<svg width="20" height="20" viewBox="0 0 20 20" fill="none" xmlns="http://www.w3.org/2000/svg">
<path d="M17.3496 9.37458C17.2615 7.23867 16.4756 5.42932 14.9916 3.94654C13.5077 2.46373 11.697 1.67832 9.55943 1.5903V0C10.8446 0.0352097 12.0461 0.303684 13.164 0.805421C14.2819 1.30716 15.2634 1.98054 16.1084 2.82558C16.9535 3.67061 17.6268 4.65208 18.1286 5.76999C18.6303 6.88789 18.8988 8.08942 18.934 9.37458H17.3496ZM12.8603 9.37458C12.7723 8.49433 12.4202 7.75053 11.804 7.14316C11.1879 6.5358 10.4397 6.1881 9.55943 6.10008V4.51564C10.8798 4.60367 12.0021 5.1054 12.9264 6.02085C13.8506 6.93631 14.3567 8.05421 14.4448 9.37458H12.8603ZM17.8249 19.066C15.7827 19.066 13.701 18.5731 11.5796 17.5872C9.4582 16.6014 7.49086 15.2018 5.67756 13.3885C3.86426 11.5752 2.46468 9.60784 1.47881 7.48646C0.492935 5.36507 0 3.2833 0 1.24114C0 0.906649 0.114431 0.624972 0.343294 0.396109C0.572157 0.167246 0.853835 0.0528145 1.18833 0.0528145H4.88534C5.13181 0.0528145 5.34307 0.140839 5.51912 0.316887C5.69516 0.492935 5.8184 0.712996 5.88882 0.977069L6.60181 4.30438C6.63702 4.55085 6.63262 4.77531 6.58861 4.97777C6.5446 5.18022 6.45217 5.35187 6.31133 5.49271L3.67061 8.15984C4.12833 8.93446 4.61247 9.65625 5.12301 10.3252C5.63355 10.9942 6.1969 11.628 6.81307 12.2266C7.46445 12.8955 8.15104 13.5073 8.87284 14.0619C9.59464 14.6164 10.3516 15.105 11.1439 15.5275L13.6526 12.9396C13.8286 12.7459 14.0311 12.6139 14.2599 12.5434C14.4888 12.473 14.7176 12.4554 14.9465 12.4906L18.089 13.1772C18.353 13.2476 18.5731 13.3885 18.7492 13.5997C18.9252 13.811 19.0132 14.0487 19.0132 14.3127V17.8777C19.0132 18.2122 18.8988 18.4939 18.6699 18.7227C18.4411 18.9516 18.1594 19.066 17.8249 19.066Z" fill="black"/>
</svg>
