<svg xmlns="http://www.w3.org/2000/svg" width="37" height="35" viewBox="0 0 37 35" fill="none">
  <path d="M21.969 15.8181C21.5469 15.4523 21.6992 14.3311 21.8815 13.7334C21.4367 14.4656 20.5431 15.9475 20.5278 16.017C20.5087 16.1039 21.2024 17.2287 21.5147 17.3279C21.827 17.4271 23.7934 17.7388 23.922 17.7064C24.0249 17.6805 24.4523 16.7703 24.6531 16.3184L24.2288 14.7973C23.687 15.2348 22.8615 16.5919 21.969 15.8181Z" fill="#004BC8"/>
  <ellipse cx="16.9224" cy="22.4486" rx="8.06831" ry="8.30561" transform="rotate(12.4251 16.9224 22.4486)" fill="#004BC8"/>
  <rect x="19.7441" y="3.03125" width="4.39011" height="16.3739" rx="2.19506" transform="rotate(12.4251 19.7441 3.03125)" fill="#004BC8"/>
  <rect x="9.30078" y="5.75781" width="4.39011" height="16.3739" rx="2.19506" transform="rotate(-11.2898 9.30078 5.75781)" fill="#004BC8"/>
  <rect x="2.9668" y="13.7656" width="4.39011" height="16.3739" rx="2.19505" transform="rotate(-36.9763 2.9668 13.7656)" fill="#004BC8"/>
  <rect x="29.4023" y="9.10156" width="4.39011" height="16.3739" rx="2.19506" transform="rotate(42.4251 29.4023 9.10156)" fill="#004BC8"/>
  <rect x="32.8926" y="19.8984" width="4.39011" height="16.3739" rx="2.19506" transform="rotate(87.4251 32.8926 19.8984)" fill="#004BC8"/>
  <path d="M24.9062 19.9844C25.0625 20.1093 25.5304 20.4838 25.385 20.3464C25.3569 20.3198 25.3213 20.268 25.2876 20.2523C25.2009 20.212 25.3698 20.224 25.3859 20.1508" stroke="#004BC8" stroke-width="3" stroke-linecap="round"/>
  <path d="M25.293 20.1641C25.2806 20.3104 25.2888 20.4938 25.3564 20.6269C25.3719 20.6575 25.4919 20.8651 25.4098 20.7365" stroke="#004BC8" stroke-width="3" stroke-linecap="round"/>
  <path d="M16.3363 13.9833C15.4026 14.0596 14.9273 12.5298 14.8149 11.8534L13.6764 13.4614L14.8313 14.517L17.5922 14.5805L18.4768 11.25L18.0165 11.1486C17.9543 11.4768 17.8352 12.1086 17.8567 12.0108C17.8837 11.8885 17.5035 13.8879 16.3363 13.9833Z" fill="#004BC8"/>
  <path d="M26.0554 19.3049L27.1801 17.993C26.4169 18.24 24.992 19.087 24.9587 19.1283C24.9253 19.1695 24.8413 20.0744 24.8035 20.5217L28.1015 20.5801L28.3163 20.1414C28.1801 20.162 27.6483 20.1825 26.8297 20.148C26.0111 20.1134 25.88 19.5498 26.0554 19.3049Z" fill="#004BC8"/>
  <path d="M25.7649 24.6394C25.0289 24.6716 24.4922 25.3613 24.3126 25.7166L23.8491 25.6145L23.7755 24.0188L27.0989 23.9613L27.1804 24.5564C27.0174 24.561 26.501 24.6072 25.7649 24.6394Z" fill="#004BC8"/>
  <path d="M8.72212 21.6194C8.72133 21.1818 7.7164 19.9804 7.22852 19.4375L10.2991 20.114L10.692 22.0534C10.0987 22.5403 8.90499 23.4639 8.87632 23.2632C8.84047 23.0123 8.72311 22.1664 8.72212 21.6194Z" fill="#004BC8"/>
  <ellipse cx="13.9381" cy="19.0857" rx="1.54559" ry="2.41919" transform="rotate(12.4251 13.9381 19.0857)" fill="white"/>
  <ellipse cx="16.8268" cy="19.7263" rx="1.54559" ry="2.41919" transform="rotate(12.4251 16.8268 19.7263)" fill="white"/>
  <ellipse cx="14.9074" cy="19.3672" rx="0.537598" ry="0.873597" transform="rotate(12.4251 14.9074 19.3672)" fill="black"/>
  <ellipse cx="14.9074" cy="19.3672" rx="0.537598" ry="0.873597" transform="rotate(12.4251 14.9074 19.3672)" fill="black"/>
  <ellipse cx="14.9074" cy="19.3672" rx="0.537598" ry="0.873597" transform="rotate(12.4251 14.9074 19.3672)" fill="black"/>
  <ellipse cx="17.796" cy="20.0079" rx="0.537598" ry="0.873597" transform="rotate(12.4251 17.796 20.0079)" fill="black"/>
  <ellipse cx="17.796" cy="20.0079" rx="0.537598" ry="0.873597" transform="rotate(12.4251 17.796 20.0079)" fill="black"/>
  <ellipse cx="17.796" cy="20.0079" rx="0.537598" ry="0.873597" transform="rotate(12.4251 17.796 20.0079)" fill="black"/>
  <mask id="mask0_1322_1335" style="mask-type:alpha" maskUnits="userSpaceOnUse" x="12" y="20" width="7" height="7">
    <ellipse cx="15.579" cy="23.6761" rx="2.63564" ry="2.98079" fill="#797979"/>
  </mask>
  <g mask="url(#mask0_1322_1335)">
    <rect x="10.3066" y="23.6797" width="10.9191" height="3.22919" fill="#266DE3"/>
  </g>
</svg>