<svg width="302" height="268" viewBox="0 0 302 268" fill="none" xmlns="http://www.w3.org/2000/svg">
<path d="M53.684 215.131L24.38 243.956L12.6339 217.247L53.684 215.131Z" fill="#D9E0EC"/>
<mask id="mask0_1333_1366" style="mask-type:alpha" maskUnits="userSpaceOnUse" x="105" y="18" width="74" height="73">
<circle cx="141.948" cy="54.751" r="36.0929" transform="rotate(37.8794 141.948 54.751)" fill="#F3F3F3"/>
</mask>
<g mask="url(#mask0_1333_1366)">
<rect x="79.2598" y="4.99219" width="158.495" height="65.9088" transform="rotate(37.8794 79.2598 4.99219)" fill="#F3F3F3"/>
</g>
<rect x="50.2598" y="103.773" width="201.206" height="136.814" rx="5" fill="white" stroke="#004BC8" stroke-width="10"/>
<rect x="106.363" y="240.953" width="88.9987" height="21.707" fill="#004BC8"/>
<rect x="35.8164" y="256.75" width="230.094" height="10.3027" rx="5.15136" fill="#004BC8"/>
<path d="M111.329 182.485C110.135 181.837 109.91 179.093 110.031 177.578C109.357 179.55 108.01 183.539 108.01 183.712C108.01 183.928 110.247 186.237 111.04 186.309C111.834 186.382 116.669 186.093 116.958 185.949C117.188 185.833 117.727 183.447 117.968 182.269L116.164 178.877C115.106 180.2 113.855 183.856 111.329 182.485Z" fill="#004BC8"/>
<ellipse cx="102.821" cy="200.884" rx="19.6275" ry="20.2047" fill="#004BC8"/>
<rect x="99.3555" y="153.258" width="10.6797" height="39.8322" rx="5.33983" fill="#004BC8"/>
<rect x="75.9746" y="165.203" width="10.6797" height="39.8322" rx="5.33983" transform="rotate(-23.7149 75.9746 165.203)" fill="#004BC8"/>
<rect x="65.1211" y="187.547" width="10.6797" height="39.8322" rx="5.33983" transform="rotate(-49.4013 65.1211 187.547)" fill="#004BC8"/>
<rect x="125.475" y="162.633" width="10.6797" height="39.8322" rx="5.33983" transform="rotate(30 125.475 162.633)" fill="#004BC8"/>
<rect x="139.416" y="186.453" width="10.6797" height="39.8322" rx="5.33983" transform="rotate(75 139.416 186.453)" fill="#004BC8"/>
<path d="M84.1992 190.769C84.2496 190.814 84.3198 190.811 84.3826 190.816C84.4634 190.824 84.5397 190.832 84.6212 190.832C84.7913 190.832 84.9607 190.845 85.1308 190.849C85.2252 190.852 85.3244 190.856 85.4169 190.833C85.514 190.81 85.6093 190.776 85.7046 190.746C85.7794 190.723 85.8478 190.717 85.917 190.677C85.9655 190.649 86.0157 190.626 86.0593 190.59C86.1166 190.543 86.1813 190.531 86.2498 190.503C86.3814 190.45 86.4719 190.378 86.5584 190.268C86.5901 190.228 86.5965 190.21 86.6101 190.163C86.6211 190.126 86.6545 190.099 86.6707 190.064C86.6868 190.029 86.6859 189.978 86.7108 189.948C86.7931 189.85 86.8552 189.712 86.8736 189.584C86.895 189.434 86.8478 189.296 86.826 189.151C86.8149 189.077 86.815 189.003 86.802 188.929C86.7922 188.873 86.797 188.814 86.797 188.758" stroke="#004BC8" stroke-width="3" stroke-linecap="round"/>
<path d="M86.4852 188.617C86.5042 188.62 86.5153 188.659 86.5213 188.673C86.5372 188.713 86.5718 188.747 86.5824 188.789C86.6123 188.905 86.5934 189.042 86.5934 189.161C86.5934 189.242 86.5934 189.323 86.5934 189.404C86.5934 189.53 86.5236 189.649 86.4827 189.765C86.4521 189.851 86.4039 189.932 86.3725 190.019C86.363 190.046 86.3457 190.092 86.3274 190.114C86.3172 190.126 86.3 190.161 86.2918 190.178C86.2667 190.228 86.2183 190.268 86.1966 190.317C86.1011 190.534 85.8944 190.689 85.7436 190.859C85.7154 190.89 85.6285 190.908 85.5917 190.922C85.5075 190.954 85.4248 190.973 85.3372 190.993C85.1874 191.027 85.0388 191.065 84.8887 191.098" stroke="#004BC8" stroke-width="3" stroke-linecap="round"/>
<path d="M85.2993 191.082C85.533 191.082 85.7672 191.092 85.9993 191.061C86.0549 191.054 85.9099 191.159 85.8926 191.169C85.7811 191.231 85.6495 191.269 85.5288 191.308C85.3482 191.367 85.1647 191.42 84.9786 191.458C84.973 191.459 84.8711 191.487 84.8553 191.468C84.848 191.46 84.898 191.412 84.9024 191.407C84.944 191.356 85.0102 191.287 84.9991 191.215C84.9914 191.164 84.9008 191.118 84.8603 191.096C84.7764 191.051 84.683 191.029 84.5957 190.992" stroke="#004BC8" stroke-width="3" stroke-linecap="round"/>
<path d="M84.1992 190.665C84.3506 190.649 84.4747 190.757 84.6237 190.765C84.7477 190.771 84.8647 190.791 84.989 190.791C85.1232 190.791 85.2834 190.815 85.4119 190.773C85.4693 190.754 85.5137 190.715 85.5657 190.692C85.6056 190.674 85.6539 190.663 85.692 190.642C85.7651 190.602 85.8623 190.602 85.9351 190.553C85.9577 190.537 85.9774 190.517 85.9997 190.502C86.0186 190.489 86.0301 190.47 86.0463 190.454C86.0609 190.44 86.0808 190.437 86.0954 190.423C86.1818 190.344 86.2526 190.242 86.3219 190.148C86.3468 190.114 86.3541 190.059 86.366 190.019C86.3963 189.92 86.4297 189.826 86.4502 189.724C86.4794 189.578 86.5029 189.425 86.5083 189.278C86.5137 189.132 86.5478 188.99 86.4953 188.847C86.4728 188.786 86.4666 188.73 86.4342 188.671C86.4092 188.626 86.3821 188.551 86.3821 188.5" stroke="#004BC8" stroke-width="3" stroke-linecap="round"/>
<path d="M122.442 188.469C122.083 188.917 122.073 190.185 122.482 190.593C122.657 190.768 122.771 190.726 122.995 190.786C123.572 190.94 124.023 191.427 124.642 191.427C124.919 191.427 125.41 191.335 125.544 191.067" stroke="#004BC8" stroke-width="3" stroke-linecap="round"/>
<path d="M122.012 191.715C121.861 191.546 121.822 191.268 121.884 191.049C122.017 190.585 121.94 190.054 121.94 189.574C121.94 189.401 121.898 189.917 121.868 190.087C121.786 190.56 121.663 191.024 121.652 191.506C121.644 191.842 121.652 192.394 121.652 191.699C121.652 191.28 121.697 190.921 121.764 190.512C121.819 190.175 121.535 190.445 121.451 190.576C121.371 190.703 121.066 191.139 121.074 191.282C121.094 191.591 122.217 190.911 122.357 191.009C122.357 191.009 122.16 191.05 122.045 190.921C121.785 190.629 122.443 191.109 122.502 191.21C122.604 191.384 122.841 191.171 122.806 191.153C122.638 191.069 122.476 191.087 122.301 190.977C122.21 190.92 122.184 190.646 122.213 190.704C122.306 190.891 122.404 191.078 122.502 191.282C122.671 191.637 123.002 191.519 123.239 191.282" stroke="#004BC8" stroke-width="3" stroke-linecap="round"/>
<path d="M120.498 190.852C120.935 191.067 122.242 191.711 121.825 191.461C121.744 191.412 121.632 191.308 121.544 191.289C121.317 191.238 121.725 191.178 121.725 190.996" stroke="#004BC8" stroke-width="3" stroke-linecap="round"/>
<path d="M121.506 191.07C121.553 191.425 121.669 191.856 121.899 192.137C121.952 192.201 122.345 192.632 122.083 192.369" stroke="#004BC8" stroke-width="3" stroke-linecap="round"/>
<path d="M96.9966 181.075C94.8183 181.745 92.8883 178.359 92.2673 176.811L90.4043 181.227L93.7004 183.13L100.293 181.836L100.651 173.461H99.5045C99.5284 174.273 99.5762 175.836 99.5762 175.593C99.5762 175.288 99.7195 180.237 96.9966 181.075Z" fill="#004BC8"/>
<path d="M122.669 188.834L124.393 185.875C122.709 186.861 119.335 188.862 119.277 188.978C119.22 189.093 119.494 191.287 119.638 192.369L127.504 190.782L127.784 189.627C127.472 189.748 126.219 190.075 124.256 190.421C122.293 190.767 122.38 189.507 122.669 188.834Z" fill="#004BC8"/>
<path d="M124.971 201.458C123.239 201.919 122.325 203.839 122.085 204.777H120.93L119.92 201.025L127.785 199.148L128.29 200.519C127.906 200.616 126.703 200.996 124.971 201.458Z" fill="#004BC8"/>
<path d="M82.9013 203.191C82.6704 202.152 79.6541 199.823 78.2109 198.789H85.8599L87.8082 203.191C86.6536 204.658 84.3012 207.477 84.128 207.015C83.9116 206.438 83.19 204.49 82.9013 203.191Z" fill="#004BC8"/>
<ellipse cx="93.9611" cy="194.455" rx="3.75991" ry="5.88507" fill="white"/>
<ellipse cx="101.152" cy="194.455" rx="3.75991" ry="5.88507" fill="white"/>
<ellipse cx="96.4172" cy="194.625" rx="1.30779" ry="2.12517" fill="black"/>
<ellipse cx="96.4172" cy="194.625" rx="1.30779" ry="2.12517" fill="black"/>
<ellipse cx="96.4172" cy="194.625" rx="1.30779" ry="2.12517" fill="black"/>
<ellipse cx="103.605" cy="194.625" rx="1.30779" ry="2.12517" fill="black"/>
<ellipse cx="103.605" cy="194.625" rx="1.30779" ry="2.12517" fill="black"/>
<ellipse cx="103.605" cy="194.625" rx="1.30779" ry="2.12517" fill="black"/>
<path d="M170.669 190.75C169.345 187.73 170.72 184.208 173.74 182.884C176.368 181.732 179.443 182.612 181.064 184.979L193.453 203.07C196.126 206.974 194.862 212.331 190.726 214.628C186.589 216.925 181.372 215.166 179.472 210.832L170.669 190.75Z" fill="#FF6E46"/>
<rect x="200.754" y="178.484" width="10.9164" height="36.7189" rx="5.45821" transform="rotate(21.3285 200.754 178.484)" fill="#FF6E46"/>
<rect x="210.924" y="182.461" width="10.9164" height="36.7189" rx="5.45821" transform="rotate(21.3285 210.924 182.461)" fill="#FF6E46"/>
<rect x="221.094" y="186.43" width="10.9164" height="27.291" rx="5.45821" transform="rotate(21.3285 221.094 186.43)" fill="#FF6E46"/>
<rect x="196.363" y="159.734" width="10.9164" height="43.1695" rx="5.45821" transform="rotate(21.3285 196.363 159.734)" fill="#FF6E46"/>
<ellipse cx="199.613" cy="207.34" rx="20.3442" ry="19.3518" transform="rotate(21.3285 199.613 207.34)" fill="#FF6E46"/>
<path d="M195.521 225.985C218.51 233.683 228.913 207.772 229.582 194.006L210.03 203.151C195.615 207.555 172.532 218.287 195.521 225.985Z" fill="#FF6E46"/>
<ellipse cx="206.279" cy="199.607" rx="5.45132" ry="8.51769" transform="rotate(25.2407 206.279 199.607)" fill="white"/>
<ellipse cx="215.523" cy="203.959" rx="5.45132" ry="8.51769" transform="rotate(25.2407 215.523 203.959)" fill="white"/>
<ellipse cx="209.833" cy="201.096" rx="1.87389" ry="3.06637" transform="rotate(25.2407 209.833 201.096)" fill="black"/>
<ellipse cx="209.833" cy="201.096" rx="1.87389" ry="3.06637" transform="rotate(25.2407 209.833 201.096)" fill="black"/>
<ellipse cx="209.833" cy="201.096" rx="1.87389" ry="3.06637" transform="rotate(25.2407 209.833 201.096)" fill="black"/>
<ellipse cx="219.325" cy="204.721" rx="1.87389" ry="3.06637" transform="rotate(25.2407 219.325 204.721)" fill="black"/>
<ellipse cx="219.325" cy="204.721" rx="1.87389" ry="3.06637" transform="rotate(25.2407 219.325 204.721)" fill="black"/>
<ellipse cx="219.325" cy="204.721" rx="1.87389" ry="3.06637" transform="rotate(25.2407 219.325 204.721)" fill="black"/>
<path d="M222.981 203.687L200.844 195.429C201.361 193.468 202.405 188.987 202.447 186.751C202.489 184.515 217.86 193.821 225.54 198.754L222.981 203.687Z" fill="#FF6E46"/>
<circle cx="160.913" cy="160.976" r="16.9925" transform="rotate(-15 160.913 160.976)" fill="black"/>
<rect x="160.869" y="116.602" width="10.7802" height="34.6977" rx="5.39008" transform="rotate(4.2582 160.869 116.602)" fill="black"/>
<rect x="129.461" y="130.594" width="10.7802" height="34.5342" rx="5.39008" transform="rotate(-37.3968 129.461 130.594)" fill="black"/>
<path d="M156.816 144.286C155.056 145.06 153.326 144.086 152.789 143.378L149.471 143.7L154.41 150.132C157.196 149.354 162.853 147.756 163.187 147.591C163.521 147.426 162.396 144.051 161.792 142.385L159.17 139.304C159.014 140.607 158.576 143.511 156.816 144.286Z" fill="black"/>
<path d="M145.221 154.301C145.886 152.783 145.166 151.037 144.51 150.235C145.98 149.841 148.931 149.088 148.969 149.229C149.016 149.406 149.844 152.494 149.691 152.63C149.569 152.738 148.653 153.696 148.21 154.162C146.869 154.805 144.517 155.908 145.221 154.301Z" fill="black"/>
<path d="M170.042 146.323C169.519 145.783 169.526 144.16 169.704 143.293L165.447 147.176C166.537 148.303 168.811 150.55 169.182 150.526C169.554 150.502 171.136 148.994 171.828 148.399C171.414 147.911 170.566 146.864 170.042 146.323Z" fill="black"/>
<ellipse cx="154.016" cy="161.345" rx="3.35575" ry="5.33478" transform="rotate(-20.5049 154.016 161.345)" fill="white"/>
<ellipse cx="160.143" cy="159.056" rx="3.35575" ry="5.33478" transform="rotate(-20.5049 160.143 159.056)" fill="white"/>
<ellipse cx="152.346" cy="163.264" rx="1.11858" ry="1.89299" transform="rotate(-20.5049 152.346 163.264)" fill="black"/>
<ellipse cx="152.346" cy="163.264" rx="1.11858" ry="1.89299" transform="rotate(-20.5049 152.346 163.264)" fill="black"/>
<ellipse cx="152.346" cy="163.264" rx="1.11858" ry="1.89299" transform="rotate(-20.5049 152.346 163.264)" fill="black"/>
<ellipse cx="158.549" cy="160.945" rx="1.20463" ry="1.89299" transform="rotate(-20.5049 158.549 160.945)" fill="black"/>
<ellipse cx="158.549" cy="160.945" rx="1.20463" ry="1.89299" transform="rotate(-20.5049 158.549 160.945)" fill="black"/>
<ellipse cx="158.549" cy="160.945" rx="1.20463" ry="1.89299" transform="rotate(-20.5049 158.549 160.945)" fill="black"/>
<path d="M219.66 89.5938C237.211 73.0044 265.613 38.8173 238.815 34.7838C205.319 29.7419 201.399 51.6393 224.18 53.4802C242.404 54.953 275.596 36.7771 289.914 27.505" stroke="black" stroke-width="5" stroke-linecap="square"/>
<circle cx="22.2491" cy="149.239" r="12.4815" fill="#FFE4DC"/>
<circle cx="293.044" cy="213.816" r="8.6828" fill="#FF6E46"/>
<circle cx="154.118" cy="35.8234" r="8.6828" fill="#FF6E46"/>
</svg>
