<svg width="48" height="48" viewBox="0 0 48 48" fill="none" xmlns="http://www.w3.org/2000/svg">
<path d="M23.9995 44.707C21.1387 44.707 18.4445 44.1678 15.9169 43.0896C13.3894 42.0113 11.1926 40.5309 9.32667 38.6483C7.46074 36.7657 5.98864 34.5653 4.91037 32.0472C3.8321 29.529 3.29297 26.8468 3.29297 24.0004C3.29297 21.1207 3.8321 18.4218 4.91037 15.9037C5.98864 13.3855 7.46074 11.1935 9.32667 9.32758C11.1926 7.46164 13.3894 5.98483 15.9169 4.89713C18.4445 3.80946 21.1387 3.26562 23.9995 3.26562C26.8604 3.26562 29.5463 3.80946 32.0571 4.89713C34.568 5.98483 36.7648 7.46164 38.6474 9.32758C40.53 11.1935 42.0151 13.3855 43.1028 15.9037C44.1905 18.4218 44.7343 21.1207 44.7343 24.0004C44.7343 26.8468 44.1905 29.529 43.1028 32.0472C42.0151 34.5653 40.53 36.7657 38.6474 38.6483C36.7648 40.5309 34.568 42.0113 32.0571 43.0896C29.5463 44.1678 26.8604 44.707 23.9995 44.707ZM27.4517 21.5635L28.0669 21.22C28.2046 21.8866 28.5281 22.4366 29.0376 22.87C29.547 23.3033 30.1444 23.52 30.83 23.52C31.6343 23.52 32.3137 23.2428 32.868 22.6885C33.4224 22.1341 33.6995 21.4548 33.6995 20.6504C33.6995 20.2171 33.6126 19.8171 33.4387 19.4504C33.2647 19.0838 33.0205 18.7483 32.706 18.4439L33.9995 17.7504L32.8582 15.7461L26.3104 19.5091L27.4517 21.5635ZM20.5474 21.5635L21.6887 19.5091L15.1408 15.7461L13.9995 17.7504L15.3213 18.4439C14.9879 18.7483 14.7343 19.0838 14.5604 19.4504C14.3865 19.8171 14.2995 20.2171 14.2995 20.6504C14.2995 21.4548 14.5767 22.1341 15.131 22.6885C15.6854 23.2428 16.3647 23.52 17.1691 23.52C17.8546 23.52 18.4521 23.3033 18.9615 22.87C19.4709 22.4366 19.8039 21.8866 19.9604 21.22L20.5474 21.5635ZM23.9995 25.8961C21.6619 25.8961 19.6311 26.6874 17.9071 28.27C16.1832 29.8526 14.9162 31.7628 14.106 34.0004H33.893C33.0684 31.7772 31.793 29.8707 30.0669 28.2809C28.3408 26.691 26.3184 25.8961 23.9995 25.8961Z" fill="#004BC8"/>
</svg>
