<svg width="380" height="280" viewBox="0 0 380 280" fill="none" xmlns="http://www.w3.org/2000/svg">
<path d="M64.6 140.8L42.6 187.8H64.6V140.8ZM54.4 95.4H97.6V187.8H102.2C106 187.8 111.6 187.6 115.4 186.6V216.6C110.2 218 104 218.2 100.2 218.2H97.6V243.8H63.6V218.2H5.6V191.4L54.4 95.4Z" fill="#FF6E46"/>
<path d="M326.6 140.8L304.6 187.8H326.6V140.8ZM316.4 95.4H359.6V187.8H364.2C368 187.8 373.6 187.6 377.4 186.6V216.6C372.2 218 366 218.2 362.2 218.2H359.6V243.8H325.6V218.2H267.6V191.4L316.4 95.4Z" fill="#FF6E46"/>
<path d="M125.2 106.466C126.894 97.5833 135.468 91.7562 144.35 93.4504C152.945 95.0897 158.731 103.196 157.49 111.857L148.778 172.624C147.289 183.012 137.176 189.86 126.978 187.386C117.763 185.151 111.922 176.081 113.698 166.767L125.2 106.466Z" fill="#004BC8"/>
<path d="M156.667 112.343C158.348 103.528 166.857 97.7458 175.671 99.4271C184.296 101.072 190.054 109.272 188.673 117.943L178.918 179.181C177.344 189.066 167.692 195.521 157.955 193.202C149.012 191.073 143.326 182.285 145.048 173.255L156.667 112.343Z" fill="#004BC8"/>
<path d="M188.242 117.62C189.847 109.205 197.97 103.684 206.386 105.289C214.666 106.868 220.169 114.771 218.779 123.085L208.321 185.629C206.787 194.801 197.878 200.813 188.799 198.803C180.226 196.905 174.716 188.535 176.361 179.91L188.242 117.62Z" fill="#004BC8"/>
<path d="M218.257 124.002C219.929 115.234 228.394 109.481 237.163 111.153C245.808 112.802 251.545 121.065 250.069 129.742L239.551 191.568C237.907 201.231 228.37 207.437 218.869 205.026C210.261 202.842 204.842 194.331 206.506 185.607L218.257 124.002Z" fill="#004BC8"/>
<path d="M246.271 149.371C247.913 140.761 256.224 135.113 264.834 136.755C273.443 138.397 279.092 146.708 277.45 155.318L271.086 188.681C269.444 197.291 261.133 202.939 252.523 201.297C243.913 199.655 238.265 191.344 239.907 182.734L246.271 149.371Z" fill="#004BC8"/>
<ellipse cx="190.845" cy="185.807" rx="79.3526" ry="63.3826" transform="rotate(10.7989 190.845 185.807)" fill="#004BC8"/>
<ellipse cx="17.2426" cy="24.4248" rx="17.2426" ry="24.4248" transform="matrix(0.97619 0.248563 -0.259634 0.956382 148.736 133.242)" fill="white"/>
<ellipse cx="17.2426" cy="24.4248" rx="17.2426" ry="24.4248" transform="matrix(0.97619 0.248563 -0.259634 0.956382 180.299 141.281)" fill="white"/>
<ellipse cx="5.92716" cy="8.79294" rx="5.92716" ry="8.79294" transform="matrix(0.97619 0.248563 -0.259634 0.956382 149.08 150.016)" fill="#004BC8"/>
<ellipse cx="5.92716" cy="8.79294" rx="5.92716" ry="8.79294" transform="matrix(0.97619 0.248563 -0.259634 0.956382 149.08 150.016)" fill="#004BC8"/>
<ellipse cx="5.92716" cy="8.79294" rx="5.92716" ry="8.79294" transform="matrix(0.97619 0.248563 -0.259634 0.956382 149.08 150.016)" fill="black"/>
<ellipse cx="5.92716" cy="8.79294" rx="5.92716" ry="8.79294" transform="matrix(0.97619 0.248563 -0.259634 0.956382 180.934 155.883)" fill="#004BC8"/>
<ellipse cx="5.92716" cy="8.79294" rx="5.92716" ry="8.79294" transform="matrix(0.97619 0.248563 -0.259634 0.956382 180.934 155.883)" fill="#004BC8"/>
<ellipse cx="5.92716" cy="8.79294" rx="5.92716" ry="8.79294" transform="matrix(0.97619 0.248563 -0.259634 0.956382 180.934 155.883)" fill="black"/>
<path d="M213.809 164.737L139.642 151.629C139.989 145.87 140.355 132.772 139.047 126.457C137.738 120.141 191.534 139.302 218.595 149.672L213.809 164.737Z" fill="#004BC8"/>
<path d="M175.773 157.655L135.59 157.655L128.115 133.828L218.285 152.049L212.678 174.942L175.773 157.655Z" fill="#004BC8"/>
<path d="M241.906 90.5859C257.637 73.2261 282.543 38.0334 256.324 36.1411C223.55 33.7758 221.4 55.2475 243.57 55.3203C261.306 55.3786 292.045 35.3119 305.197 25.2713" stroke="#D8DEE9" stroke-width="6" stroke-linecap="square"/>
</svg>
