<svg width="54" height="55" viewBox="0 0 54 55" fill="none" xmlns="http://www.w3.org/2000/svg">
<rect x="5.72266" y="23.1875" width="25" height="25" rx="5" transform="rotate(12.4719 5.72266 23.1875)" fill="#FF6E46"/>
<path d="M12.2818 41.8624L15.5283 42.5804L14.8062 45.8455L11.5596 45.1275L12.2818 41.8624ZM16.7991 35.6032C16.9509 34.9168 16.5587 34.2268 15.6889 34.1123C14.8191 33.9977 14.3043 34.3898 13.8888 35.2125L11.2062 33.7046C12.2901 31.5314 14.047 30.5384 16.0978 30.8557C18.8474 31.2693 20.1515 32.9394 20.2441 34.8084C20.3534 36.9537 19.4025 38.2612 17.6478 39.3325C16.6818 39.9167 16.0867 40.4078 15.7478 41.5003L12.4456 40.77L12.5441 40.3247C12.7533 39.3786 13.3399 38.5743 14.1966 38.0438C16.0874 36.8858 16.6104 36.4566 16.7991 35.6032Z" fill="black"/>
<rect x="12.1523" y="7.67969" width="25" height="25" rx="5" transform="rotate(-15 12.1523 7.67969)" fill="#004BC8"/>
<path d="M23.7492 9.35586L26.9609 8.49529L29.3853 17.5431L26.1736 18.4037L23.7492 9.35586ZM26.5929 20.042L29.8046 19.1814L30.7684 22.7785L27.5567 23.6391L26.5929 20.042Z" fill="#FF6E46"/>
<mask id="mask0_1468_126" style="mask-type:alpha" maskUnits="userSpaceOnUse" x="22" y="32" width="17" height="17">
<path d="M36.5715 43.4198C38.3347 39.9065 36.9155 35.6266 33.4031 33.8599C29.8907 32.0933 25.6135 33.508 23.8503 37.0213C22.0871 40.5346 23.5062 44.8145 27.0187 46.5812C30.5311 48.3478 34.8082 46.9331 36.5715 43.4198Z" fill="#D9D9D9" stroke="#004BC8" stroke-width="2"/>
</mask>
<g mask="url(#mask0_1468_126)">
<rect x="17.834" y="21.4688" width="34.9764" height="35.0286" rx="5" transform="rotate(12.4719 17.834 21.4688)" fill="#FF6E46"/>
<path d="M24.4677 46.697L28.2268 47.5285L27.3906 51.3091L23.6315 50.4777L24.4677 46.697ZM29.6983 39.4496C29.874 38.6548 29.4199 37.8559 28.4127 37.7233C27.4056 37.5906 26.8095 38.0446 26.3284 38.9972L23.2222 37.2512C24.4773 34.7348 26.5116 33.585 28.8862 33.9525C32.07 34.4314 33.58 36.3651 33.6871 38.5293C33.8137 41.0133 32.7127 42.5273 30.6809 43.7677C29.5624 44.4441 28.8734 45.0128 28.4809 46.2779L24.6573 45.4321L24.7713 44.9166C25.0136 43.8211 25.6928 42.8898 26.6849 42.2755C28.8741 40.9347 29.4797 40.4377 29.6983 39.4496Z" fill="black"/>
</g>
<path d="M36.5715 43.4198C38.3347 39.9065 36.9155 35.6266 33.4031 33.8599C29.8907 32.0933 25.6135 33.508 23.8503 37.0213C22.0871 40.5346 23.5062 44.8145 27.0187 46.5812C30.5311 48.3478 34.8082 46.9331 36.5715 43.4198Z" stroke="#004BC8" stroke-width="2"/>
<rect width="2.66911" height="3.56064" transform="matrix(0.448553 -0.893756 0.893359 0.449343 36.1211 44.5547)" fill="#004BC8"/>
<rect width="5.56065" height="14.4651" rx="1" transform="matrix(0.448553 -0.893756 0.893359 0.449343 38.5684 47.5)" fill="#D14A00"/>
</svg>
