<svg width="19" height="19" viewBox="0 0 19 19" fill="none" xmlns="http://www.w3.org/2000/svg">
<mask id="mask0_134_182" style="mask-type:luminance" maskUnits="userSpaceOnUse" x="0" y="0" width="18" height="19">
<path d="M17.6149 7.91699H9.50033V11.2816H14.1712C13.7357 13.4191 11.9149 14.6462 9.50033 14.6462C6.65033 14.6462 4.35449 12.3503 4.35449 9.50033C4.35449 6.65033 6.65033 4.35449 9.50033 4.35449C10.7274 4.35449 11.8357 4.78991 12.7066 5.50241L15.2399 2.96908C13.6962 1.62324 11.717 0.791992 9.50033 0.791992C4.67116 0.791992 0.791992 4.67116 0.791992 9.50033C0.791992 14.3295 4.67116 18.2087 9.50033 18.2087C13.8545 18.2087 17.8128 15.042 17.8128 9.50033C17.8128 8.98574 17.7337 8.43158 17.6149 7.91699Z" fill="white"/>
</mask>
<g mask="url(#mask0_134_182)">
<path d="M0 14.6462V4.35449L6.72917 9.50033L0 14.6462Z" fill="#FBBC05"/>
</g>
<mask id="mask1_134_182" style="mask-type:luminance" maskUnits="userSpaceOnUse" x="0" y="0" width="18" height="19">
<path d="M17.6149 7.91699H9.50033V11.2816H14.1712C13.7357 13.4191 11.9149 14.6462 9.50033 14.6462C6.65033 14.6462 4.35449 12.3503 4.35449 9.50033C4.35449 6.65033 6.65033 4.35449 9.50033 4.35449C10.7274 4.35449 11.8357 4.78991 12.7066 5.50241L15.2399 2.96908C13.6962 1.62324 11.717 0.791992 9.50033 0.791992C4.67116 0.791992 0.791992 4.67116 0.791992 9.50033C0.791992 14.3295 4.67116 18.2087 9.50033 18.2087C13.8545 18.2087 17.8128 15.042 17.8128 9.50033C17.8128 8.98574 17.7337 8.43158 17.6149 7.91699Z" fill="white"/>
</mask>
<g mask="url(#mask1_134_182)">
<path d="M0 4.35417L6.72917 9.5L9.5 7.08542L19 5.54167V0H0V4.35417Z" fill="#EA4335"/>
</g>
<mask id="mask2_134_182" style="mask-type:luminance" maskUnits="userSpaceOnUse" x="0" y="0" width="18" height="19">
<path d="M17.6149 7.91699H9.50033V11.2816H14.1712C13.7357 13.4191 11.9149 14.6462 9.50033 14.6462C6.65033 14.6462 4.35449 12.3503 4.35449 9.50033C4.35449 6.65033 6.65033 4.35449 9.50033 4.35449C10.7274 4.35449 11.8357 4.78991 12.7066 5.50241L15.2399 2.96908C13.6962 1.62324 11.717 0.791992 9.50033 0.791992C4.67116 0.791992 0.791992 4.67116 0.791992 9.50033C0.791992 14.3295 4.67116 18.2087 9.50033 18.2087C13.8545 18.2087 17.8128 15.042 17.8128 9.50033C17.8128 8.98574 17.7337 8.43158 17.6149 7.91699Z" fill="white"/>
</mask>
<g mask="url(#mask2_134_182)">
<path d="M0 14.6458L11.875 5.54167L15.0021 5.9375L19 0V19H0V14.6458Z" fill="#34A853"/>
</g>
<mask id="mask3_134_182" style="mask-type:luminance" maskUnits="userSpaceOnUse" x="0" y="0" width="18" height="19">
<path d="M17.6149 7.91699H9.50033V11.2816H14.1712C13.7357 13.4191 11.9149 14.6462 9.50033 14.6462C6.65033 14.6462 4.35449 12.3503 4.35449 9.50033C4.35449 6.65033 6.65033 4.35449 9.50033 4.35449C10.7274 4.35449 11.8357 4.78991 12.7066 5.50241L15.2399 2.96908C13.6962 1.62324 11.717 0.791992 9.50033 0.791992C4.67116 0.791992 0.791992 4.67116 0.791992 9.50033C0.791992 14.3295 4.67116 18.2087 9.50033 18.2087C13.8545 18.2087 17.8128 15.042 17.8128 9.50033C17.8128 8.98574 17.7337 8.43158 17.6149 7.91699Z" fill="white"/>
</mask>
<g mask="url(#mask3_134_182)">
<path d="M19.0007 19.0003L6.72982 9.50033L5.14648 8.31283L19.0007 4.35449V19.0003Z" fill="#4285F4"/>
</g>
</svg>
