<svg width="18" height="17" viewBox="0 0 18 17" fill="none" xmlns="http://www.w3.org/2000/svg">
<g clip-path="url(#clip0_134_203)">
<path d="M9.00091 0C4.02898 0 0 3.27363 0 7.31223C0 9.93713 1.70716 12.2489 4.26973 13.537C4.08734 14.2589 3.5876 16.1619 3.48911 16.5594C3.36691 17.0637 3.6715 17.0562 3.86665 16.9213C4.02168 16.8163 6.33256 15.2001 7.33205 14.5026C7.88519 14.5865 8.4436 14.6285 9.00274 14.6282C13.971 14.6245 18 11.3546 18 7.31223C18 3.26988 13.971 0 9.00091 0Z" fill="#371D1E"/>
<path d="M2.72079 5.96829H3.64733C3.64733 5.96829 3.64733 8.59319 3.64733 9.19317C3.64733 9.63753 4.61217 9.64503 4.61035 9.19317L4.61399 6.00016H5.53688C6.11323 6.00016 6.11323 5.06269 5.53688 5.06269C4.88758 5.06269 2.71897 5.04395 2.71897 5.04395C2.1718 5.04395 2.1718 5.95704 2.71897 5.95704" fill="#FAE100"/>
<mask id="mask0_134_203" style="mask-type:luminance" maskUnits="userSpaceOnUse" x="2" y="5" width="4" height="5">
<path d="M2.72079 5.96829H3.64733C3.64733 5.96829 3.64733 8.59319 3.64733 9.19317C3.64733 9.63753 4.61217 9.64503 4.61035 9.19317L4.61399 6.00016H5.53688C6.11323 6.00016 6.11323 5.06269 5.53688 5.06269C4.88758 5.06269 2.71897 5.04395 2.71897 5.04395C2.1718 5.04395 2.1718 5.95704 2.71897 5.95704" fill="white"/>
</mask>
<g mask="url(#mask0_134_203)">
<path d="M6.11357 5.05566H2.17578V9.6455H6.11357V5.05566Z" fill="#FAE100"/>
</g>
<path d="M7.1553 6.13692L7.67147 7.7981H6.59719L7.1553 6.13692ZM6.57713 5.35882C6.34914 5.8763 5.52657 8.31184 5.25298 8.95869C5.056 9.42742 5.90776 9.80803 6.10474 9.33367L6.28713 8.6662H7.98153C7.98153 8.6662 7.92316 8.69432 8.14933 9.30367C8.33172 9.79866 9.21083 9.45554 9.02844 8.96244C8.76945 8.25559 7.86845 5.71318 7.7043 5.35132C7.62952 5.18445 7.35776 5.06633 7.09512 5.06633C6.99076 5.05755 6.88613 5.07973 6.79367 5.13024C6.70121 5.18076 6.62479 5.25749 6.57348 5.35132" fill="#FAE100"/>
<mask id="mask1_134_203" style="mask-type:luminance" maskUnits="userSpaceOnUse" x="5" y="5" width="5" height="5">
<path d="M7.1553 6.13692L7.67147 7.7981H6.59719L7.1553 6.13692ZM6.57713 5.35882C6.34914 5.8763 5.52657 8.31184 5.25298 8.95869C5.056 9.42742 5.90776 9.80803 6.10474 9.33367L6.28713 8.6662H7.98153C7.98153 8.6662 7.92316 8.69432 8.14933 9.30367C8.33172 9.79866 9.21083 9.45554 9.02844 8.96244C8.76945 8.25559 7.86845 5.71318 7.7043 5.35132C7.62952 5.18445 7.35776 5.06633 7.09512 5.06633C6.99076 5.05755 6.88613 5.07973 6.79367 5.13024C6.70121 5.18076 6.62479 5.25749 6.57348 5.35132" fill="white"/>
</mask>
<g mask="url(#mask1_134_203)">
<path d="M9.21596 5.07422H5.05566V9.80842H9.21596V5.07422Z" fill="#FAE100"/>
</g>
<path d="M9.35638 5.5125C9.35638 6.34122 9.35638 9.00925 9.35638 9.00925C9.35638 9.00925 9.2816 9.53985 9.72116 9.53985H11.5797C12.0156 9.53985 12.0138 8.58739 11.5797 8.58739C11.1456 8.58739 10.3504 8.58739 10.3504 8.58739C10.3504 8.58739 10.3504 6.1181 10.3504 5.51813C10.3471 5.45503 10.3312 5.39329 10.3038 5.33673C10.2764 5.28017 10.238 5.22996 10.1911 5.18922C10.1441 5.14847 10.0895 5.11804 10.0306 5.0998C9.97176 5.08155 9.9099 5.07589 9.84883 5.08314C9.78896 5.0775 9.7286 5.08418 9.67127 5.10279C9.61394 5.12141 9.56079 5.15159 9.51494 5.19157C9.46909 5.23154 9.43145 5.28052 9.40423 5.33562C9.377 5.39073 9.36074 5.45086 9.35638 5.5125Z" fill="#FAE100"/>
<mask id="mask2_134_203" style="mask-type:luminance" maskUnits="userSpaceOnUse" x="9" y="5" width="3" height="5">
<path d="M9.35638 5.5125C9.35638 6.34122 9.35638 9.00925 9.35638 9.00925C9.35638 9.00925 9.2816 9.53985 9.72116 9.53985H11.5797C12.0156 9.53985 12.0138 8.58739 11.5797 8.58739C11.1456 8.58739 10.3504 8.58739 10.3504 8.58739C10.3504 8.58739 10.3504 6.1181 10.3504 5.51813C10.3471 5.45503 10.3312 5.39329 10.3038 5.33673C10.2764 5.28017 10.238 5.22996 10.1911 5.18922C10.1441 5.14847 10.0895 5.11804 10.0306 5.0998C9.97176 5.08155 9.9099 5.07589 9.84883 5.08314C9.78896 5.0775 9.7286 5.08418 9.67127 5.10279C9.61394 5.12141 9.56079 5.15159 9.51494 5.19157C9.46909 5.23154 9.43145 5.28052 9.40423 5.33562C9.377 5.39073 9.36074 5.45086 9.35638 5.5125Z" fill="white"/>
</mask>
<g mask="url(#mask2_134_203)">
<path d="M12.0248 5.07422H9.28711V9.54031H12.0248V5.07422Z" fill="#FAE100"/>
</g>
<path d="M12.1418 5.37893C12.1509 5.74267 12.1309 9.02755 12.1309 9.27129C12.1309 9.64628 13.0811 9.64628 13.0811 9.27129V7.97759L13.3602 7.74697L14.5913 9.46066C14.8375 9.79627 15.6145 9.19067 15.3683 8.85506L14.0624 7.10012C14.0624 7.10012 14.9433 6.12141 15.2898 5.76705C15.4923 5.5608 14.8649 4.9102 14.6624 5.11832L13.0884 6.73638C13.0884 6.73638 13.0993 5.84579 13.0884 5.35269C13.0884 5.16519 12.8604 5.0752 12.6324 5.0752C12.4044 5.0752 12.1382 5.18019 12.1436 5.37893" fill="#FAE100"/>
<mask id="mask3_134_203" style="mask-type:luminance" maskUnits="userSpaceOnUse" x="12" y="5" width="4" height="5">
<path d="M12.1418 5.37893C12.1509 5.74267 12.1309 9.02755 12.1309 9.27129C12.1309 9.64628 13.0811 9.64628 13.0811 9.27129V7.97759L13.3602 7.74697L14.5913 9.46066C14.8375 9.79627 15.6145 9.19067 15.3683 8.85506L14.0624 7.10012C14.0624 7.10012 14.9433 6.12141 15.2898 5.76705C15.4923 5.5608 14.8649 4.9102 14.6624 5.11832L13.0884 6.73638C13.0884 6.73638 13.0993 5.84579 13.0884 5.35269C13.0884 5.16519 12.8604 5.0752 12.6324 5.0752C12.4044 5.0752 12.1382 5.18019 12.1436 5.37893" fill="white"/>
</mask>
<g mask="url(#mask3_134_203)">
<path d="M15.6072 4.91016H12.1309V9.79435H15.6072V4.91016Z" fill="#FAE100"/>
</g>
</g>
<defs>
<clipPath id="clip0_134_203">
<rect width="18" height="17" fill="white"/>
</clipPath>
</defs>
</svg>
