<svg width="135" height="32" viewBox="0 0 135 32" fill="none" xmlns="http://www.w3.org/2000/svg">
<path d="M14.82 10.19H0.225V4.975H4.81V0.774999H10.235V4.975H14.82V10.19ZM7.575 23.665C8.065 23.665 8.45 23.385 8.8 22.79C9.08 22.23 9.255 21.32 9.255 20.06C9.255 18.87 9.08 17.96 8.8 17.33C8.45 16.77 8.065 16.455 7.575 16.455C7.05 16.455 6.63 16.77 6.35 17.33C6.035 17.96 5.895 18.87 5.895 20.06C5.895 21.32 6.035 22.23 6.385 22.79C6.665 23.385 7.085 23.665 7.575 23.665ZM7.575 28.915C5.265 28.915 3.48 28.215 2.29 26.78C1.065 25.38 0.47 23.14 0.47 20.06C0.47 17.12 1.1 14.915 2.395 13.41C3.655 11.94 5.405 11.205 7.575 11.205C9.745 11.205 11.46 11.94 12.755 13.41C13.105 13.865 13.455 14.355 13.7 14.915H17.2V1.65H22.765V29.86H17.2V20.445C16.675 20.48 16.185 20.48 15.73 20.48C15.345 20.515 14.995 20.515 14.68 20.515C14.61 23.385 13.98 25.45 12.86 26.78C11.6 28.215 9.85 28.915 7.575 28.915ZM24.48 29.86V1.65H30.01V29.86H24.48ZM41.58 7.25C41.23 7.25 40.88 7.355 40.565 7.53C40.215 7.74 39.935 8.09 39.69 8.65C39.445 9.21 39.27 10.015 39.13 11.03C38.955 12.08 38.885 13.48 38.885 15.16C38.885 16.91 38.955 18.275 39.13 19.29C39.27 20.34 39.445 21.145 39.69 21.705C39.935 22.265 40.215 22.65 40.565 22.79C40.88 23 41.23 23.07 41.58 23.07C41.895 23.07 42.21 23 42.56 22.79C42.875 22.65 43.155 22.265 43.435 21.705C43.645 21.145 43.855 20.34 44.03 19.29C44.17 18.275 44.275 16.91 44.275 15.16C44.275 13.48 44.17 12.08 44.03 11.03C43.855 10.015 43.645 9.21 43.435 8.65C43.155 8.09 42.875 7.74 42.56 7.53C42.21 7.355 41.895 7.25 41.58 7.25ZM41.58 1.475C42.91 1.475 44.1 1.72 45.185 2.21C46.235 2.735 47.11 3.54 47.88 4.625C48.615 5.745 49.21 7.145 49.63 8.86C50.015 10.61 50.225 12.71 50.225 15.16C50.225 17.68 50.015 19.78 49.63 21.495C49.21 23.245 48.615 24.645 47.88 25.73C47.11 26.85 46.235 27.62 45.185 28.11C44.1 28.6 42.91 28.845 41.58 28.845C40.215 28.845 39.025 28.6 37.975 28.11C36.89 27.62 35.98 26.85 35.245 25.73C34.475 24.645 33.915 23.245 33.53 21.495C33.11 19.78 32.935 17.68 32.935 15.16C32.935 12.71 33.11 10.61 33.53 8.86C33.915 7.145 34.475 5.745 35.245 4.625C35.98 3.54 36.89 2.735 37.975 2.21C39.025 1.72 40.215 1.475 41.58 1.475ZM52.885 29.825V1.65H59.36V29.825H52.885ZM62.7714 22.72H69.6664V26.78L69.0364 31.68H64.5214L64.6964 28.705H62.7714V22.72ZM83.5291 13.445C83.8441 13.445 84.1941 13.41 84.5791 13.27C84.9291 13.2 85.2791 13.025 85.5941 12.745C85.8741 12.535 86.1541 12.185 86.3641 11.765C86.5741 11.38 86.6791 10.89 86.6791 10.26C86.6791 9.7 86.5741 9.21 86.3641 8.79C86.1541 8.405 85.8741 8.09 85.5941 7.81C85.2791 7.6 84.9291 7.425 84.5791 7.285C84.1941 7.18 83.8441 7.11 83.5291 7.11C83.1791 7.11 82.7941 7.18 82.4441 7.285C82.0591 7.425 81.7091 7.6 81.4291 7.81C81.1141 8.09 80.8691 8.405 80.6941 8.79C80.4841 9.21 80.3791 9.7 80.3791 10.26C80.3791 10.89 80.4841 11.38 80.6941 11.765C80.8691 12.185 81.1141 12.535 81.4291 12.745C81.7091 13.025 82.0591 13.2 82.4441 13.27C82.7941 13.41 83.1791 13.445 83.5291 13.445ZM83.5291 19.22C80.8341 19.22 78.6641 18.485 76.9841 16.945C75.2691 15.475 74.4291 13.235 74.4291 10.26C74.4291 8.86 74.6391 7.565 75.0941 6.445C75.5141 5.36 76.1441 4.415 76.9491 3.645C77.7541 2.875 78.7341 2.315 79.8541 1.895C80.9391 1.51 82.1641 1.3 83.5291 1.3C84.8591 1.3 86.0841 1.51 87.2041 1.895C88.2891 2.315 89.2341 2.875 90.0741 3.645C90.8441 4.415 91.4741 5.36 91.9641 6.445C92.3841 7.565 92.6291 8.86 92.6291 10.26C92.6291 13.235 91.7541 15.475 90.0741 16.945C88.3591 18.485 86.1891 19.22 83.5291 19.22ZM105.194 7.18V13.235C104.914 13.235 104.564 13.27 104.179 13.27C103.759 13.305 103.339 13.34 102.954 13.41C102.534 13.48 102.149 13.515 101.799 13.585C101.554 13.655 101.379 13.725 101.239 13.795V21.32H95.1141V1.65H101.239V7.985C101.624 7.74 102.079 7.565 102.674 7.39C103.304 7.25 104.144 7.18 105.194 7.18ZM82.0941 20.48V24.505H101.589V29.755H75.9691V20.48H82.0941ZM114.143 1.755V12.57H121.423C121.878 12.57 122.333 12.57 122.823 12.535C123.243 12.535 123.698 12.535 124.153 12.5C124.573 12.5 124.958 12.465 125.378 12.395V16.56C124.958 16.665 124.573 16.735 124.153 16.77C123.698 16.84 123.243 16.875 122.788 16.875C122.298 16.91 121.808 16.91 121.318 16.91C120.793 16.945 120.268 16.945 119.778 16.945H107.668V1.755H114.143ZM127.968 17.47V11.38C127.793 11.415 127.618 11.415 127.443 11.415C126.953 11.485 126.428 11.52 125.938 11.52C125.413 11.555 124.923 11.555 124.433 11.555C123.943 11.59 123.488 11.59 123.138 11.59H120.268V7.39H126.428C126.883 7.39 127.303 7.39 127.723 7.355H127.968V6.34C127.373 6.445 126.673 6.48 125.903 6.48C124.783 6.55 123.873 6.55 123.138 6.55H120.268V2.35H126.428C126.848 2.35 127.268 2.35 127.688 2.315H127.968V1.65H134.093V17.47H127.968ZM122.228 26.185C123.348 26.185 124.258 26.15 124.993 26.08C125.693 26.01 126.253 25.905 126.673 25.765C127.093 25.625 127.373 25.45 127.548 25.24C127.688 25.03 127.758 24.785 127.758 24.505C127.758 24.26 127.688 24.015 127.548 23.805C127.373 23.595 127.093 23.42 126.673 23.28C126.253 23.14 125.693 23.035 124.993 22.93C124.258 22.86 123.348 22.825 122.228 22.825C121.073 22.825 120.128 22.86 119.428 22.93C118.693 23.035 118.133 23.14 117.748 23.28C117.328 23.42 117.048 23.595 116.908 23.805C116.768 24.015 116.698 24.26 116.698 24.505C116.698 24.785 116.768 25.03 116.908 25.24C117.048 25.45 117.328 25.625 117.748 25.765C118.133 25.905 118.693 26.01 119.428 26.08C120.128 26.15 121.073 26.185 122.228 26.185ZM122.228 30.875C119.813 30.875 117.818 30.7 116.243 30.42C114.633 30.105 113.338 29.685 112.428 29.125C111.448 28.565 110.783 27.9 110.433 27.095C110.013 26.325 109.838 25.485 109.838 24.505C109.838 23.63 110.013 22.79 110.433 22.02C110.818 21.25 111.483 20.585 112.463 19.99C113.408 19.43 114.668 18.975 116.278 18.625C117.853 18.31 119.848 18.135 122.228 18.135C124.573 18.135 126.533 18.31 128.143 18.625C129.718 18.975 130.978 19.43 131.958 19.99C132.903 20.585 133.603 21.25 134.023 22.02C134.408 22.79 134.618 23.63 134.618 24.505C134.618 25.485 134.408 26.325 134.023 27.095C133.603 27.9 132.938 28.565 131.993 29.125C131.048 29.685 129.788 30.105 128.213 30.42C126.603 30.7 124.608 30.875 122.228 30.875Z" fill="#FF6E46"/>
</svg>
