<svg width="65" height="65" viewBox="0 0 65 65" fill="none" xmlns="http://www.w3.org/2000/svg">
<path d="M32.5006 61.276C28.429 61.276 24.6471 60.5408 21.1548 59.0704C17.6625 57.6 14.6196 55.568 12.0261 52.9745C9.43262 50.381 7.40067 47.3381 5.93028 43.8458C4.45983 40.3536 3.72461 36.5716 3.72461 32.5C3.72461 28.4311 4.45956 24.6534 5.92946 21.1669C7.39937 17.6804 9.42764 14.634 12.0143 12.0278C14.6009 9.42146 17.643 7.37463 21.1405 5.88731C24.638 4.39994 28.4247 3.65625 32.5006 3.65625C33.3583 3.65625 34.1031 3.98549 34.735 4.64398C35.367 5.30242 35.6829 6.0585 35.6829 6.91221C35.6829 7.76588 35.367 8.50868 34.735 9.14062C34.1031 9.77257 33.3583 10.0885 32.5006 10.0885C26.2709 10.0885 20.9782 12.2663 16.6226 16.6218C12.267 20.9773 10.0892 26.2698 10.0892 32.4994C10.0892 38.729 12.2669 44.0217 16.6224 48.3776C20.9779 52.7335 26.2705 54.9115 32.5 54.9115C38.7296 54.9115 44.0224 52.7336 48.3783 48.378C52.7342 44.0224 54.9121 38.7298 54.9121 32.5C54.9121 31.6424 55.2281 30.8976 55.86 30.2656C56.492 29.6337 57.2348 29.3177 58.0884 29.3177C58.9422 29.3177 59.6982 29.6337 60.3567 30.2656C61.0152 30.8976 61.3444 31.6424 61.3444 32.5C61.3444 36.5759 60.5993 40.3629 59.109 43.8609C57.6188 47.359 55.5763 50.4025 52.9814 52.9915C50.3866 55.5805 47.3432 57.6085 43.8513 59.0755C40.3594 60.5425 36.5758 61.276 32.5006 61.276Z" fill="#FF6E46"/>
</svg>
