<svg width="5547" height="6203" viewBox="0 0 5547 6203" fill="none" xmlns="http://www.w3.org/2000/svg">
<path fill-rule="evenodd" clip-rule="evenodd" d="M239.095 0C107.046 0 0 105.188 0 234.943V5967.56C0 6097.32 107.046 6202.51 239.095 6202.51H4329.34L5539.23 4886.82V5969.44C5539.23 6078.43 5463.7 6170.08 5361.3 6196.63C5467.64 6172.79 5547 6079.28 5547 5967.56V234.943C5547 105.188 5439.96 0 5307.91 0H239.095Z" fill="#E2E8F2" fill-opacity="0.25"/>
<path d="M741.194 1926.54H4805.81" stroke="#E2E2E2" stroke-width="2"/>
<path d="M741.194 2725.34H4805.81" stroke="#E2E2E2" stroke-width="2"/>
<path d="M741.194 3524.15H4805.81" stroke="#E2E2E2" stroke-width="2"/>
<path d="M741.194 4322.96H4805.81" stroke="#E2E2E2" stroke-width="2"/>
<path d="M741.194 5121.77H4805.81" stroke="#E2E2E2" stroke-width="2"/>
<path fill-rule="evenodd" clip-rule="evenodd" d="M4327.64 6202.56L5539.25 4885H4566.74C4434.68 4885 4327.64 4990.18 4327.64 5119.94V6202.56Z" fill="#D8DCE8"/>
</svg>

