<svg width="29" height="29" viewBox="0 0 29 29" fill="none" xmlns="http://www.w3.org/2000/svg">
<path d="M14.4965 24.1693C14.0966 24.1693 13.7556 24.0269 13.4737 23.7421C13.1918 23.4573 13.0508 23.1149 13.0508 22.715C13.0508 22.3151 13.1932 21.9741 13.478 21.6922C13.7628 21.4102 14.1051 21.2693 14.5051 21.2693C14.905 21.2693 15.2459 21.4117 15.5279 21.6965C15.8098 21.9813 15.9508 22.3236 15.9508 22.7236C15.9508 23.1235 15.8084 23.4644 15.5236 23.7464C15.2388 24.0283 14.8964 24.1693 14.4965 24.1693ZM14.4965 15.9526C14.0966 15.9526 13.7556 15.8102 13.4737 15.5254C13.1918 15.2406 13.0508 14.8983 13.0508 14.4983C13.0508 14.0984 13.1932 13.7575 13.478 13.4755C13.7628 13.1936 14.1051 13.0526 14.5051 13.0526C14.905 13.0526 15.2459 13.195 15.5279 13.4798C15.8098 13.7646 15.9508 14.107 15.9508 14.5069C15.9508 14.9068 15.8084 15.2477 15.5236 15.5297C15.2388 15.8116 14.8964 15.9526 14.4965 15.9526ZM14.4965 7.73594C14.0966 7.73594 13.7556 7.59353 13.4737 7.30873C13.1918 7.02395 13.0508 6.68159 13.0508 6.28165C13.0508 5.88173 13.1932 5.5408 13.478 5.25885C13.7628 4.97691 14.1051 4.83594 14.5051 4.83594C14.905 4.83594 15.2459 4.97834 15.5279 5.26314C15.8098 5.54793 15.9508 5.89029 15.9508 6.29023C15.9508 6.69015 15.8084 7.03108 15.5236 7.31302C15.2388 7.59496 14.8964 7.73594 14.4965 7.73594Z" fill="black"/>
</svg>
