<svg width="56" height="56" viewBox="0 0 56 56" fill="none" xmlns="http://www.w3.org/2000/svg">
<path d="M27.9909 40.4941C28.7608 40.4941 29.3965 40.2518 29.8978 39.7671C30.3992 39.2825 30.6498 38.6551 30.6498 37.8852C30.6498 37.1153 30.402 36.4741 29.9064 35.9618C29.4107 35.4494 28.7779 35.1933 28.008 35.1933C27.238 35.1933 26.6024 35.4491 26.101 35.9608C25.5997 36.4724 25.3491 37.1132 25.3491 37.8831C25.3491 38.6531 25.5969 39.2807 26.0925 39.7661C26.5882 40.2514 27.221 40.4941 27.9909 40.4941ZM25.8639 30.7777H30.485V15.4589H25.8639V30.7777ZM28.0195 52.1607C24.6672 52.1607 21.5268 51.5308 18.5983 50.271C15.6699 49.0112 13.1083 47.2839 10.9134 45.0891C8.71862 42.8943 6.99131 40.3327 5.73151 37.4044C4.4717 34.4761 3.8418 31.3341 3.8418 27.9785C3.8418 24.6228 4.4717 21.4794 5.73151 18.548C6.99131 15.6167 8.71691 13.0628 10.9083 10.8862C13.0996 8.7097 15.6603 6.98661 18.5902 5.71697C21.5201 4.44732 24.6638 3.8125 28.0213 3.8125C31.3788 3.8125 34.5245 4.44647 37.4584 5.7144C40.3924 6.98233 42.9468 8.70311 45.1217 10.8767C47.2966 13.0503 49.0184 15.6064 50.287 18.5448C51.5557 21.4832 52.19 24.6308 52.19 27.9876C52.19 31.343 51.5552 34.4847 50.2856 37.4128C49.0159 40.3409 47.2928 42.8974 45.1163 45.0823C42.9398 47.2674 40.3843 48.9933 37.4498 50.2603C34.5153 51.5273 31.3718 52.1608 28.0195 52.1608V52.1607Z" fill="#FFE4DC"/>
</svg>
