<svg width="56" height="55" viewBox="0 0 56 55" fill="none" xmlns="http://www.w3.org/2000/svg">
<circle cx="27.9324" cy="27.5007" r="27.5007" fill="#FF6E46"/>
<path d="M38.9925 27.236C38.8683 24.2239 37.7599 21.6723 35.6672 19.5812C33.5745 17.4901 31.0209 16.3825 28.0065 16.2583V14.0156C29.8189 14.0653 31.5133 14.4439 33.0898 15.1515C34.6663 15.859 36.0504 16.8087 37.2421 18.0004C38.4338 19.1921 39.3835 20.5762 40.0911 22.1527C40.7986 23.7292 41.1772 25.4237 41.2269 27.236H38.9925ZM32.6616 27.236C32.5374 25.9947 32.0409 24.9457 31.1719 24.0892C30.303 23.2327 29.2478 22.7423 28.0065 22.6182V20.3838C29.8685 20.5079 31.4512 21.2155 32.7547 22.5065C34.0581 23.7975 34.7719 25.374 34.896 27.236H32.6616ZM39.6628 40.9033C36.7828 40.9033 33.847 40.2082 30.8554 38.8179C27.8637 37.4275 25.0893 35.4538 22.5321 32.8966C19.9749 30.3394 18.0012 27.565 16.6109 24.5733C15.2205 21.5817 14.5254 18.6459 14.5254 15.7659C14.5254 15.2942 14.6868 14.897 15.0095 14.5742C15.3323 14.2515 15.7295 14.0901 16.2012 14.0901H21.4149C21.7625 14.0901 22.0604 14.2142 22.3087 14.4625C22.5569 14.7108 22.7307 15.0211 22.83 15.3935L23.8355 20.0858C23.8852 20.4334 23.879 20.75 23.8169 21.0355C23.7548 21.321 23.6245 21.5631 23.4259 21.7617L19.7018 25.523C20.3473 26.6154 21.0301 27.6333 21.7501 28.5767C22.47 29.5201 23.2645 30.4139 24.1335 31.258C25.0521 32.2014 26.0203 33.0642 27.0382 33.8462C28.0561 34.6283 29.1237 35.3172 30.2409 35.9131L33.7788 32.2635C34.027 31.9904 34.3126 31.8042 34.6353 31.7049C34.9581 31.6056 35.2808 31.5808 35.6036 31.6304L40.0352 32.5987C40.4076 32.698 40.7179 32.8966 40.9662 33.1945C41.2145 33.4925 41.3386 33.8276 41.3386 34.2V39.2275C41.3386 39.6992 41.1772 40.0964 40.8545 40.4192C40.5317 40.742 40.1345 40.9033 39.6628 40.9033Z" fill="black"/>
</svg>
