<svg width="48" height="48" viewBox="0 0 48 48" fill="none" xmlns="http://www.w3.org/2000/svg">
<g clip-path="url(#clip0_576_807)">
<path d="M8.96319 46.348C8.47336 46.348 8.07264 46.1922 7.76104 45.8806C7.44944 45.569 7.29364 45.1683 7.29364 44.6784C7.29364 44.1886 7.44944 43.7878 7.76104 43.4762C8.07264 43.1646 8.47336 43.0088 8.96319 43.0088H17.698V40.0088H4.96319C4.47336 40.0088 4.07264 39.853 3.76104 39.5415C3.44944 39.2299 3.29364 38.8291 3.29364 38.3393C3.29364 37.8494 3.44944 37.4487 3.76104 37.1371C4.07264 36.8255 4.47336 36.6697 4.96319 36.6697H17.698V33.6697H2.82189C2.33203 33.6697 1.93131 33.5139 1.61974 33.2023C1.30814 32.8907 1.15234 32.49 1.15234 32.0001C1.15234 31.5103 1.30814 31.1095 1.61974 30.7979C1.93131 30.4864 2.33203 30.3306 2.82189 30.3306H17.698V27.3306H6.96319C6.47336 27.3306 6.07264 27.1748 5.76104 26.8632C5.44944 26.5516 5.29364 26.1508 5.29364 25.661C5.29364 25.1711 5.44944 24.7704 5.76104 24.4588C6.07264 24.1472 6.47336 23.9914 6.96319 23.9914H21.2676L19.0719 20.1436C18.7676 19.6161 18.6582 19.0458 18.7437 18.4327C18.8292 17.8197 19.093 17.2921 19.535 16.8501L20.9502 15.4349L33.9415 25.1197C34.6603 25.6718 35.2161 26.3407 35.6089 27.1262C36.0017 27.9117 36.198 28.7566 36.198 29.661V40.6784C36.198 42.2683 35.6506 43.6107 34.5556 44.7056C33.4607 45.8005 32.1183 46.348 30.5284 46.348H8.96319ZM16.3719 22.274L11.9871 19.0175C11.5828 18.732 11.3556 18.374 11.3056 17.9436C11.2556 17.5131 11.3733 17.0958 11.6588 16.6914C11.9443 16.2871 12.307 16.0552 12.7469 15.9957C13.1868 15.9363 13.6089 16.0494 14.0132 16.3349L16.8871 18.524C16.906 19.1574 17.0154 19.7907 17.2154 20.424C17.4154 21.0574 17.6821 21.674 18.0154 22.274H16.3719ZM12.2567 9.20877C12.5422 8.80444 12.9002 8.57728 13.3306 8.52728C13.761 8.47727 14.1784 8.59502 14.5828 8.88052L20.3502 13.1849L18.3067 15.2501C18.2502 15.3066 18.2078 15.3678 18.1795 15.4338C18.1513 15.4997 18.1277 15.5704 18.1089 15.6458L12.6132 11.5349C12.2089 11.2494 11.977 10.8914 11.9175 10.461C11.8581 10.0305 11.9712 9.61314 12.2567 9.20877ZM43.8372 21.9088L38.198 29.4892C38.1835 28.2849 37.9038 27.1697 37.3589 26.1436C36.814 25.1175 36.0748 24.2429 35.1415 23.5197L24.7023 15.7153L26.1523 13.7153L14.698 5.19572C14.2937 4.91022 14.0534 4.54754 13.9773 4.10767C13.9012 3.66781 14.006 3.24571 14.2915 2.84137C14.577 2.45587 14.935 2.23812 15.3654 2.18812C15.7958 2.13812 16.2132 2.25587 16.6176 2.54137L28.6806 11.3001L30.4024 9.00008L21.7306 2.57617C21.3263 2.29064 21.1038 1.92796 21.0632 1.48812C21.0226 1.04826 21.1451 0.626139 21.4306 0.221773C21.7161 -0.163727 22.0741 -0.386177 22.5045 -0.445577C22.935 -0.50501 23.3524 -0.391977 23.7567 -0.106477L35.2828 8.43482L35.798 4.07182C35.8647 3.45879 36.1154 2.93596 36.5502 2.50332C36.985 2.07072 37.5183 1.81167 38.1502 1.72617L40.1372 1.42617L44.7154 16.9457C44.9633 17.8312 45.0122 18.7001 44.8622 19.5523C44.7122 20.4044 44.3705 21.1899 43.8372 21.9088Z" fill="#FF6E46"/>
</g>
<defs>
<clipPath id="clip0_576_807">
<rect width="48" height="48" fill="white"/>
</clipPath>
</defs>
</svg>
