<svg width="56" height="56" viewBox="0 0 56 56" fill="none" xmlns="http://www.w3.org/2000/svg">
<path d="M27.9993 35.5224L38.091 25.4307L35.5827 22.9807L27.9993 30.5641L20.416 22.9807L17.9077 25.4307L27.9993 35.5224ZM27.9993 51.3307C24.8105 51.3307 21.7966 50.7182 18.9577 49.4932C16.1188 48.2682 13.6396 46.596 11.5202 44.4766C9.40074 42.3571 7.72852 39.878 6.50352 37.0391C5.27852 34.2002 4.66602 31.1863 4.66602 27.9974C4.66602 24.7696 5.27852 21.7363 6.50352 18.8974C7.72852 16.0585 9.40074 13.5891 11.5202 11.4891C13.6396 9.38906 16.1188 7.72656 18.9577 6.50156C21.7966 5.27656 24.8105 4.66406 27.9993 4.66406C31.2271 4.66406 34.2605 5.27656 37.0993 6.50156C39.9382 7.72656 42.4077 9.38906 44.5077 11.4891C46.6077 13.5891 48.2702 16.0585 49.4952 18.8974C50.7202 21.7363 51.3327 24.7696 51.3327 27.9974C51.3327 31.1863 50.7202 34.2002 49.4952 37.0391C48.2702 39.878 46.6077 42.3571 44.5077 44.4766C42.4077 46.596 39.9382 48.2682 37.0993 49.4932C34.2605 50.7182 31.2271 51.3307 27.9993 51.3307Z" fill="#FFE4DC"/>
</svg>
