<svg width="28" height="42" viewBox="0 0 28 42" fill="none" xmlns="http://www.w3.org/2000/svg">
<rect x="12.5898" y="0.390625" width="2.63087" height="41.3423" fill="#D9D9D9"/>
<rect x="13.2383" y="17.8672" width="2.63087" height="26.1208" transform="rotate(30 13.2383 17.8672)" fill="#D9D9D9"/>
<rect x="12.4023" y="19.1875" width="2.63087" height="26.1208" transform="rotate(-30 12.4023 19.1875)" fill="#D9D9D9"/>
<rect x="2.25391" y="4.71875" width="23.4899" height="23.1141" fill="#D9D9D9"/>
<mask id="mask0_902_234" style="mask-type:alpha" maskUnits="userSpaceOnUse" x="2" y="4" width="24" height="24">
<rect x="2.25586" y="4.71875" width="23.4899" height="23.1141" fill="#D9D9D9"/>
</mask>
<g mask="url(#mask0_902_234)">
<path d="M13.0634 18.718C4.79497 13.9261 -0.842609 19.7516 -1.12449 20.1274L-5.72852 28.7717L28.1909 31.5905L28.6607 28.114L28.1909 20.1274C25.9046 21.255 19.6782 22.5516 13.0634 18.718Z" fill="#004BC8"/>
</g>
<rect y="27.8281" width="28" height="2.44295" fill="black"/>
<rect x="10.3359" y="2.64844" width="6.95302" height="2.44295" fill="black"/>
<circle cx="20.1055" cy="11.2949" r="2.63087" fill="#FF6E46"/>
<ellipse cx="5.76285" cy="6.2678" rx="1.02013" ry="6.18456" transform="rotate(-30 5.76285 6.2678)" fill="#004BC8"/>
<path d="M10.3545 10.644C11.1565 12.0332 10.8243 13.362 10.2606 14.052C9.40125 14.1107 8.06439 13.8184 7.26236 12.4293C6.46033 11.0401 6.6779 9.63172 7.00895 8.41988C7.8284 8.53003 9.55245 9.25488 10.3545 10.644Z" fill="#D14A00"/>
<mask id="mask1_902_234" style="mask-type:alpha" maskUnits="userSpaceOnUse" x="6" y="8" width="5" height="7">
<path d="M10.4092 10.7456C11.2112 12.1348 10.879 13.4636 10.3153 14.1535C9.45594 14.2122 8.11908 13.92 7.31705 12.5308C6.51502 11.1417 6.73258 9.73328 7.06364 8.52145C7.88308 8.63159 9.60714 9.35645 10.4092 10.7456Z" fill="#D14A00"/>
</mask>
<g mask="url(#mask1_902_234)">
<path d="M8.51141 13.0987L7.06791 12.6656L8.03351 14.526L11.9967 15.0012L12.2545 10.9377L10.2861 10.3471L9.93942 11.8137L8.88959 11.4987L8.51141 13.0987Z" fill="black"/>
</g>
</svg>
