<svg width="54" height="48" viewBox="0 0 54 48" fill="none" xmlns="http://www.w3.org/2000/svg">
<rect x="10.7305" y="22.5938" width="2.57655" height="6.29823" transform="rotate(-28.6632 10.7305 22.5938)" fill="#D9D9D9"/>
<ellipse cx="10.1627" cy="22.7419" rx="2.00398" ry="1.86084" transform="rotate(-28.6632 10.1627 22.7419)" fill="#D9D9D9"/>
<ellipse cx="13.4264" cy="20.9606" rx="2.00398" ry="1.86084" transform="rotate(-28.6632 13.4264 20.9606)" fill="#D9D9D9"/>
<path d="M22.0295 30.1181C24.153 34.0026 23.4943 37.474 21.0665 38.8012C18.6386 40.1283 15.361 38.8088 13.2375 34.9242C11.114 31.0397 11.3607 26.8147 13.7886 25.4875C16.2164 24.1604 19.906 26.2335 22.0295 30.1181Z" fill="#004BC8"/>
<rect x="35.9688" y="29.7422" width="15.4593" height="4.29425" rx="2" transform="rotate(-15 35.9688 29.7422)" fill="black"/>
<path d="M6.49528 36.9524C6.38786 36.5516 6.62577 36.1395 7.02667 36.0321L38.2052 27.6778C38.6061 27.5704 39.0182 27.8083 39.1256 28.2092C40.7369 34.2226 37.1683 40.4037 31.1548 42.015L20.3011 44.9232C14.2877 46.5345 8.10658 42.9659 6.49528 36.9524Z" fill="#FF6E46"/>
<rect x="31.4668" y="12.8906" width="4.00796" height="6.01194" rx="2.00398" transform="rotate(19.9419 31.4668 12.8906)" fill="#FFE4DC"/>
<circle cx="7.40116" cy="29.8542" r="2.14712" transform="rotate(-15 7.40116 29.8542)" fill="#FF6E46"/>
<circle cx="31.6805" cy="24.237" r="2.14712" transform="rotate(-15 31.6805 24.237)" fill="#FF6E46"/>
<rect x="16.3203" y="8.35156" width="1.7177" height="22.6164" transform="rotate(-15 16.3203 8.35156)" fill="black"/>
<rect width="1.70451" height="22.8565" transform="matrix(0.999531 -0.0306265 -0.0342592 0.999413 25.6484 6.375)" fill="black"/>
<mask id="mask0_902_205" style="mask-type:alpha" maskUnits="userSpaceOnUse" x="6" y="27" width="34" height="19">
<path d="M6.49138 36.9524C6.38396 36.5516 6.62187 36.1395 7.02276 36.0321L38.2013 27.6778C38.6022 27.5704 39.0143 27.8083 39.1217 28.2092C40.733 34.2226 37.1644 40.4037 31.1509 42.015L20.2972 44.9232C14.2838 46.5345 8.10267 42.9659 6.49138 36.9524Z" fill="#FF6E46"/>
</mask>
<g mask="url(#mask0_902_205)">
<rect x="3.7793" y="43.4219" width="39.7933" height="12.8827" transform="rotate(-15 3.7793 43.4219)" fill="#CF5635"/>
</g>
</svg>
