<svg width="29" height="38" viewBox="0 0 29 38" fill="none" xmlns="http://www.w3.org/2000/svg">
<path d="M23.2568 18.0714V12.4467H24.8607C25.4028 12.4467 25.8734 12.2622 26.2725 11.8932C26.6716 11.5243 26.8711 11.0687 26.8711 10.5266C26.8711 10.12 26.7694 9.73973 26.5661 9.38583C26.3628 9.03193 26.0729 8.77216 25.6965 8.6065L19.3489 5.89579V4.94705C19.9061 4.79645 20.3616 4.4915 20.7155 4.03218C21.0694 3.57287 21.2464 3.05708 21.2464 2.48482C21.2464 1.79208 20.9979 1.20476 20.5009 0.722856C20.004 0.240952 19.4091 0 18.7164 0C18.0236 0 17.4288 0.240952 16.9318 0.722856C16.4349 1.20476 16.1864 1.79208 16.1864 2.48482H17.5417C17.5417 2.16857 17.6584 1.90126 17.8919 1.6829C18.1253 1.46454 18.4001 1.35536 18.7164 1.35536C19.0326 1.35536 19.3075 1.46454 19.5409 1.6829C19.7743 1.90126 19.891 2.16857 19.891 2.48482C19.891 2.83119 19.7743 3.12108 19.5409 3.3545C19.3075 3.58793 19.0176 3.70464 18.6712 3.70464C18.4905 3.70464 18.3324 3.76864 18.1968 3.89665C18.0613 4.02465 17.9935 4.17901 17.9935 4.35973V5.89579L11.7815 8.6065C11.405 8.77216 11.1151 9.03193 10.9118 9.38583C10.7085 9.73973 10.6068 10.12 10.6068 10.5266C10.6068 11.0687 10.8064 11.5243 11.2054 11.8932C11.6045 12.2622 12.0751 12.4467 12.6173 12.4467H14.2211V18.0714H23.2568ZM24.8607 11.0913H23.2568V9.93927H14.2211V11.0913H12.6173C12.4516 11.0913 12.301 11.0348 12.1655 10.9219C12.03 10.809 11.9622 10.6697 11.9622 10.504C11.9622 10.3685 11.9998 10.248 12.0751 10.1426C12.1504 10.0372 12.2483 9.95433 12.3688 9.89409L18.6712 7.04785L25.1091 9.89409C25.2296 9.95433 25.3275 10.0372 25.4028 10.1426C25.4781 10.248 25.5157 10.3609 25.5157 10.4814C25.5157 10.6471 25.4517 10.7901 25.3237 10.9106C25.1957 11.0311 25.0414 11.0913 24.8607 11.0913ZM21.9015 16.716H15.5765V11.2946H21.9015V16.716Z" fill="#989898"/>
<rect x="10.6055" y="8.99219" width="16.3847" height="2.24889" fill="black"/>
<path d="M10.6876 11.2422H26.9117L29 37.5863H8.67969L10.6876 11.2422Z" fill="#004BC8"/>
<rect x="17.8379" y="11.2422" width="1.76698" height="26.3441" fill="#0A429F"/>
<path d="M12.6494 18.0714V12.4467H14.2532C14.7954 12.4467 15.266 12.2622 15.6651 11.8932C16.0641 11.5243 16.2637 11.0687 16.2637 10.5266C16.2637 10.12 16.162 9.73973 15.9587 9.38583C15.7554 9.03193 15.4655 8.77216 15.089 8.6065L8.74145 5.89579V4.94705C9.29865 4.79645 9.7542 4.4915 10.1081 4.03218C10.462 3.57287 10.6389 3.05708 10.6389 2.48482C10.6389 1.79208 10.3905 1.20476 9.8935 0.722856C9.39654 0.240952 8.80169 0 8.10895 0C7.41621 0 6.82136 0.240952 6.3244 0.722856C5.82744 1.20476 5.57896 1.79208 5.57896 2.48482H6.93431C6.93431 2.16857 7.05102 1.90126 7.28444 1.6829C7.51787 1.46454 7.7927 1.35536 8.10895 1.35536C8.4252 1.35536 8.70004 1.46454 8.93346 1.6829C9.16688 1.90126 9.28359 2.16857 9.28359 2.48482C9.28359 2.83119 9.16688 3.12108 8.93346 3.3545C8.70004 3.58793 8.41014 3.70464 8.06377 3.70464C7.88306 3.70464 7.72493 3.76864 7.5894 3.89665C7.45386 4.02465 7.3861 4.17901 7.3861 4.35973V5.89579L1.17405 8.6065C0.797564 8.77216 0.507668 9.03193 0.304365 9.38583C0.101063 9.73973 -0.000589371 10.12 -0.000589371 10.5266C-0.000589371 11.0687 0.198948 11.5243 0.598025 11.8932C0.997103 12.2622 1.46771 12.4467 2.00985 12.4467H3.61369V18.0714H12.6494ZM14.2532 11.0913H12.6494V9.93927H3.61369V11.0913H2.00985C1.8442 11.0913 1.6936 11.0348 1.55807 10.9219C1.42253 10.809 1.35477 10.6697 1.35477 10.504C1.35477 10.3685 1.39241 10.248 1.46771 10.1426C1.54301 10.0372 1.6409 9.95433 1.76137 9.89409L8.06377 7.04785L14.5017 9.89409C14.6222 9.95433 14.7201 10.0372 14.7954 10.1426C14.8707 10.248 14.9083 10.3609 14.9083 10.4814C14.9083 10.6471 14.8443 10.7901 14.7163 10.9106C14.5883 11.0311 14.4339 11.0913 14.2532 11.0913ZM11.294 16.716H4.96905V11.2946H11.294V16.716Z" fill="#989898"/>
<path d="M5.94846 6.26562L3.59612 7.30975C3.59612 9.23737 2.27293 11.6469 1.61133 12.6107L1.97888 24.578H14.3287L14.6227 12.4501C14.6227 12.4501 12.5399 8.70192 12.4174 7.30975L10.0651 6.26562L9.91805 9.23737H8.08028H6.169L5.94846 6.26562Z" fill="#FF6E46"/>
<mask id="mask0_902_222" style="mask-type:alpha" maskUnits="userSpaceOnUse" x="1" y="6" width="14" height="19">
<path d="M5.94846 6.26562L3.59612 7.30975C3.59612 9.23737 2.27293 11.6469 1.61133 12.6107L1.97888 24.578H14.3287L14.6227 12.4501C14.6227 12.4501 12.5399 8.70192 12.4174 7.30975L10.0651 6.26562L9.91805 9.23737H8.08028H6.169L5.94846 6.26562Z" fill="#FF6E46"/>
</mask>
<g mask="url(#mask0_902_222)">
<rect x="-0.634766" y="21.2031" width="17.5092" height="6.42539" fill="#D14A00"/>
</g>
</svg>
