<svg width="40" height="30" viewBox="0 0 40 30" fill="none" xmlns="http://www.w3.org/2000/svg">
<rect x="2.79062" y="1.15" width="34.4164" height="23.2224" rx="4.85" fill="black" stroke="#FF6E46" stroke-width="2.3"/>
<rect x="18" y="25" width="4" height="3" fill="#004BC8"/>
<rect y="27.4609" width="40" height="2.3" rx="1.15" fill="#004BC8"/>
<path d="M8.06055 12.4139C8.06055 9.35053 10.5439 6.86719 13.6072 6.86719H26.3944C29.4578 6.86719 31.9411 9.35053 31.9411 12.4139C31.9411 15.7365 29.0398 18.3137 25.7404 17.9219L21.1402 17.3756C20.3833 17.2857 19.6184 17.2857 18.8615 17.3756L14.2613 17.9219C10.9619 18.3137 8.06055 15.7365 8.06055 12.4139Z" fill="#E6E6E6"/>
<rect x="13.4316" y="9.10156" width="1.64179" height="6.41791" rx="0.820896" fill="#004BC8"/>
<rect x="17.4629" y="11.4922" width="1.64179" height="6.41791" rx="0.820896" transform="rotate(90 17.4629 11.4922)" fill="#004BC8"/>
<circle cx="25.8948" cy="9.92409" r="1.1194" fill="#FF6E46"/>
<circle cx="25.8948" cy="14.6975" r="1.1194" fill="black"/>
<circle cx="28.2849" cy="12.3147" r="1.1194" transform="rotate(90 28.2849 12.3147)" fill="white"/>
<circle cx="23.5075" cy="12.3147" r="1.1194" transform="rotate(90 23.5075 12.3147)" fill="#004BC8"/>
</svg>
