<svg width="42" height="56" viewBox="0 0 42 56" fill="none" xmlns="http://www.w3.org/2000/svg">
<mask id="mask0_902_138" style="mask-type:alpha" maskUnits="userSpaceOnUse" x="9" y="2" width="26" height="27">
<path d="M30.7681 18.7591C29.9837 21.6863 28.39 23.5196 26.5307 24.5116C24.6367 25.5222 22.216 25.7906 19.6114 25.0927C17.0068 24.3948 15.0446 22.952 13.9096 21.1298C12.7955 19.3411 12.3319 16.9565 13.1162 14.0293C14.7408 7.96625 20.1661 4.81977 24.7168 6.03914C29.2675 7.2585 32.3927 12.6961 30.7681 18.7591Z" fill="#D9D9D9" stroke="black" stroke-width="6"/>
</mask>
<g mask="url(#mask0_902_138)">
<line x1="18.7713" y1="4.61599" x2="13.3764" y2="24.7502" stroke="#FFE4DC" stroke-width="1.5"/>
<line x1="25.0448" y1="4.65505" x2="18.8303" y2="27.8476" stroke="#FFE4DC" stroke-width="1.5"/>
<line x1="30.4979" y1="7.75661" x2="25.1029" y2="27.8908" stroke="#FFE4DC" stroke-width="1.5"/>
<line x1="14.2761" y1="7.27556" x2="32.6263" y2="12.1925" stroke="#FFE4DC" stroke-width="1.5"/>
<line x1="11.6883" y1="12.8693" x2="32.3322" y2="18.4008" stroke="#FFE4DC" stroke-width="1.5"/>
<line x1="10.1199" y1="18.7287" x2="30.7638" y2="24.2602" stroke="#FFE4DC" stroke-width="1.5"/>
</g>
<path d="M32.555 19.238C31.6497 22.6168 29.7505 24.8905 27.4016 26.1438C25.0394 27.4042 22.1274 27.6822 19.1326 26.8797C16.1377 26.0772 13.7548 24.3805 12.3393 22.1079C10.9318 19.8481 10.4239 16.9294 11.3292 13.5505C13.1614 6.71273 19.4583 2.71488 25.1956 4.25217C30.9329 5.78947 34.3872 12.4002 32.555 19.238Z" stroke="#FF6E46" stroke-width="2.3"/>
<rect x="16.9668" y="26.8047" width="4.48552" height="5.80478" transform="rotate(15 16.9668 26.8047)" fill="#FF6E46"/>
<path d="M21.8384 28.5235C21.0047 28.6941 20.8937 29.4996 20.723 30.1368L20.5049 27.8931L22.7054 28.3461C22.6309 28.3308 22.7054 28.3461 21.8384 28.5235Z" fill="#FF6E46"/>
<path d="M16.1013 26.9833C16.7379 27.5478 16.5244 28.4624 16.3537 29.0996L17.5713 27.104L15.4391 26.3961C15.5113 26.42 15.4391 26.3961 16.1013 26.9833Z" fill="#FF6E46"/>
<rect x="14.4434" y="32.1406" width="6.59635" height="18.4698" rx="2" transform="rotate(15 14.4434 32.1406)" fill="black"/>
<circle cx="33.5311" cy="20.0483" r="4.48552" transform="rotate(15 33.5311 20.0483)" fill="#004BC8"/>
<mask id="mask1_902_138" style="mask-type:alpha" maskUnits="userSpaceOnUse" x="9" y="32" width="12" height="20">
<rect x="16.0312" y="51.6875" width="6.59635" height="18.4698" rx="1" transform="rotate(-165 16.0312 51.6875)" fill="black"/>
</mask>
<g mask="url(#mask1_902_138)">
<rect x="17.2715" y="54.2031" width="9.76259" height="5.80478" transform="rotate(-165 17.2715 54.2031)" fill="#004BC8"/>
</g>
</svg>
