<svg width="37" height="43" viewBox="0 0 37 43" fill="none" xmlns="http://www.w3.org/2000/svg">
<rect x="12.2227" y="8.91406" width="23.7794" height="30.0546" rx="3" fill="#FF6E46"/>
<rect x="20.8086" y="2.96875" width="1.43797" height="5.94486" fill="#D9D9D9"/>
<rect x="26.5605" y="2.96875" width="1.43797" height="5.94486" fill="#D9D9D9"/>
<rect x="19" width="11" height="3" rx="1" fill="#004BC8"/>
<rect x="15.5215" y="11.5625" width="1.65135" height="24.44" fill="#D35634"/>
<rect x="20.8066" y="11.5625" width="1.65135" height="24.44" fill="#D35634"/>
<rect x="31.375" y="11.5625" width="1.65135" height="24.44" fill="#D35634"/>
<rect x="26.0898" y="11.5625" width="1.65135" height="24.44" fill="#D35634"/>
<rect y="25.1016" width="29.394" height="17.174" rx="4" fill="black"/>
<rect x="10.5684" y="21.7969" width="8.25675" height="6.93567" stroke="black" stroke-width="1.5" stroke-linejoin="round"/>
<rect x="17.2461" y="29.7266" width="7.26594" height="4.62378" rx="2.31189" transform="rotate(13.3158 17.2461 29.7266)" fill="#FF6E46"/>
<rect x="21.4648" y="25.1016" width="2.97243" height="17.174" fill="#D9D9D9"/>
<path d="M9.91729 34.9993L10.2595 40.1363L5.63962 37.8642L9.91729 34.9993Z" fill="#004BC8"/>
<rect x="3.30078" y="28.7344" width="5.94486" height="3.96324" rx="1.98162" fill="#666666"/>
<rect x="4.62305" y="25.1016" width="2.97243" height="17.174" fill="#D9D9D9"/>
</svg>
