<svg width="207" height="295" viewBox="0 0 207 295" fill="none" xmlns="http://www.w3.org/2000/svg">
<rect width="206.342" height="289.352" rx="15" fill="#004BC8"/>
<path fill-rule="evenodd" clip-rule="evenodd" d="M206.322 246.164V275.15C206.322 283.434 199.606 290.15 191.322 290.15H15.0001C6.71587 290.15 0.000135906 283.434 0.000135906 275.15V246.164H206.322Z" fill="black"/>
<rect x="39.2578" y="91.2266" width="68.1836" height="54.0156" transform="rotate(-11.5152 39.2578 91.2266)" fill="#D9D9D9"/>
<mask id="mask0_1385_281" style="mask-type:alpha" maskUnits="userSpaceOnUse" x="36" y="66" width="82" height="80">
<rect x="36.9609" y="79.9453" width="68.1561" height="66.5195" transform="rotate(-11.5152 36.9609 79.9453)" fill="#D9D9D9"/>
</mask>
<g mask="url(#mask0_1385_281)">
<path d="M75.7313 113.157C49.4703 104.433 36.7888 124.126 36.2033 125.349L28.0798 152.393L126.136 140.695L125.474 130.619L119.55 108.369C113.698 112.873 96.7402 120.136 75.7313 113.157Z" fill="black"/>
</g>
<circle cx="92.8093" cy="95.2669" r="7.57133" transform="rotate(-11.5152 92.8093 95.2669)" fill="#FF6E46"/>
<rect x="90.082" y="127.859" width="80.5806" height="58.4431" transform="rotate(6.04876 90.082 127.859)" fill="#FF6E46"/>
<path d="M138.689 162.653L146.415 161.811L139.102 158.937L151.159 154.493L137.87 155.368L140.643 150.449L135.328 152.454L138.364 143.63L131.644 150.637L130.395 144.034L127.509 150.225L123.16 137.92L123.58 151.284L114.279 145.497L120.341 153.574L110.971 151.268L118.393 156.856L112.92 158.474L117.959 160.6L106.024 165.577L119.15 164.146L114.665 170.034L121.757 167.079L116.748 180.429L125.394 168.885L126.387 179.591L129.54 169.304L135.496 179.899L133.487 168.247L141.052 172.89L136.677 165.952L148.499 169.06L138.689 162.653Z" fill="white"/>
<circle cx="50.4749" cy="167.358" r="9.74051" fill="#D9D9D9"/>
<path d="M151.157 68.8882L155.905 108.919L132.521 104.634L151.157 68.8882Z" fill="#FFE4DC" fill-opacity="0.7"/>
<path d="M65.2374 263.168H58.1994V265.598L64.8954 265.58V268.37H58.1994V270.836H62.4654C63.7794 270.836 64.4814 270.746 65.3274 270.638V273.428C64.5354 273.626 63.0774 273.68 62.0514 273.68H55.0494V260.324H65.2374V263.168ZM66.2654 263.78H69.8654L71.5214 266.552L73.1774 263.78H76.6874L73.5374 268.73L76.9394 273.68H73.3754L71.5214 271.052L69.6674 273.68H66.1574L69.5054 268.73L66.2654 263.78ZM83.4437 273.824C82.4177 273.824 81.4457 273.428 80.8697 272.798V275.93H77.7737V263.78H80.8697V264.662C81.3917 264.086 82.3457 263.654 83.5337 263.618C86.1617 263.546 88.1057 265.418 88.1417 268.802C88.1957 272.294 86.1077 273.824 83.4437 273.824ZM82.9217 271.07C84.0197 271.124 85.1177 270.53 85.1177 268.712C85.1177 267.056 84.0557 266.372 83.0657 266.372C81.8597 266.372 80.9777 267.398 80.9777 269C80.9777 270.044 81.8057 270.998 82.9217 271.07ZM89.1593 268.784C89.1593 265.472 91.1753 263.42 94.0913 263.42C97.0793 263.42 98.8073 265.616 98.8073 268.82L98.7353 269.81H92.2373C92.3093 270.728 93.1913 271.232 94.2173 271.232C95.1533 271.232 95.8013 270.854 96.3773 270.152L98.4113 271.916C97.3493 273.374 95.9093 274.04 94.0913 274.04C91.1933 274.04 89.1053 272.024 89.1593 268.784ZM95.7653 267.398C95.6393 266.57 94.9193 266.174 94.1093 266.174C93.2093 266.174 92.5253 266.624 92.4173 267.398H95.7653ZM105.644 263.69V266.66H105.356C104.618 266.66 103.844 266.858 103.196 267.326V273.68H99.9925V263.78H103.196V264.5C103.862 263.996 104.456 263.78 105.32 263.69H105.644ZM106.479 263.78H109.593V273.68H106.479V263.78ZM109.593 262.736H106.479V260.324H109.593V262.736ZM110.833 268.784C110.833 265.472 112.849 263.42 115.765 263.42C118.753 263.42 120.481 265.616 120.481 268.82L120.409 269.81H113.911C113.983 270.728 114.865 271.232 115.891 271.232C116.827 271.232 117.475 270.854 118.051 270.152L120.085 271.916C119.023 273.374 117.583 274.04 115.765 274.04C112.867 274.04 110.779 272.024 110.833 268.784ZM117.439 267.398C117.313 266.57 116.593 266.174 115.783 266.174C114.883 266.174 114.199 266.624 114.091 267.398H117.439ZM121.666 273.68V263.78H124.816V264.356C125.266 263.978 126.166 263.618 127.03 263.546H127.318C129.73 263.546 130.846 265.166 130.864 267.632V273.68H127.714V268.982C127.714 266.912 127.21 266.552 126.328 266.588C125.644 266.624 125.338 266.804 124.816 267.2V273.68H121.666ZM132.049 268.694C132.049 265.382 134.191 263.42 137.557 263.42C139.159 263.42 140.563 264.014 141.715 265.4L139.861 267.524C139.033 266.624 138.457 266.3 137.503 266.3C136.333 266.318 135.163 267.272 135.163 268.694C135.163 270.152 136.297 271.106 137.539 271.106C138.565 271.106 139.231 270.638 139.933 269.882L141.769 271.988C140.689 273.392 139.177 273.986 137.557 273.986C134.263 274.004 132.049 272.204 132.049 268.694ZM142.737 268.784C142.737 265.472 144.753 263.42 147.669 263.42C150.657 263.42 152.385 265.616 152.385 268.82L152.313 269.81H145.815C145.887 270.728 146.769 271.232 147.795 271.232C148.731 271.232 149.379 270.854 149.955 270.152L151.989 271.916C150.927 273.374 149.487 274.04 147.669 274.04C144.771 274.04 142.683 272.024 142.737 268.784ZM149.343 267.398C149.217 266.57 148.497 266.174 147.687 266.174C146.787 266.174 146.103 266.624 145.995 267.398H149.343Z" fill="white"/>
</svg>
