<svg width="234" height="329" viewBox="0 0 234 329" fill="none" xmlns="http://www.w3.org/2000/svg">
<rect width="233.022" height="326.767" rx="23" fill="#004BC8"/>
<path fill-rule="evenodd" clip-rule="evenodd" d="M233 278V304.675C233 317.377 222.703 327.675 210 327.675H23C10.2975 327.675 0 317.377 0 304.675V278H233Z" fill="black"/>
<path d="M70.7346 297.36H62.1326V300.33L70.3166 300.308V303.718H62.1326V306.732H67.3466C68.9526 306.732 69.8106 306.622 70.8446 306.49V309.9C69.8766 310.142 68.0946 310.208 66.8406 310.208H58.2826V293.884H70.7346V297.36ZM71.991 298.108H76.391L78.415 301.496L80.439 298.108H84.729L80.879 304.158L85.037 310.208H80.681L78.415 306.996L76.149 310.208H71.859L75.951 304.158L71.991 298.108ZM92.9868 310.384C91.7328 310.384 90.5448 309.9 89.8408 309.13V312.958H86.0568V298.108H89.8408V299.186C90.4788 298.482 91.6448 297.954 93.0968 297.91C96.3088 297.822 98.6848 300.11 98.7288 304.246C98.7948 308.514 96.2428 310.384 92.9868 310.384ZM92.3488 307.018C93.6908 307.084 95.0328 306.358 95.0328 304.136C95.0328 302.112 93.7348 301.276 92.5248 301.276C91.0508 301.276 89.9728 302.53 89.9728 304.488C89.9728 305.764 90.9848 306.93 92.3488 307.018ZM99.9724 304.224C99.9724 300.176 102.436 297.668 106 297.668C109.652 297.668 111.764 300.352 111.764 304.268L111.676 305.478H103.734C103.822 306.6 104.9 307.216 106.154 307.216C107.298 307.216 108.09 306.754 108.794 305.896L111.28 308.052C109.982 309.834 108.222 310.648 106 310.648C102.458 310.648 99.9064 308.184 99.9724 304.224ZM108.046 302.53C107.892 301.518 107.012 301.034 106.022 301.034C104.922 301.034 104.086 301.584 103.954 302.53H108.046ZM120.121 297.998V301.628H119.769C118.867 301.628 117.921 301.87 117.129 302.442V310.208H113.213V298.108H117.129V298.988C117.943 298.372 118.669 298.108 119.725 297.998H120.121ZM121.141 298.108H124.947V310.208H121.141V298.108ZM124.947 296.832H121.141V293.884H124.947V296.832ZM126.463 304.224C126.463 300.176 128.927 297.668 132.491 297.668C136.143 297.668 138.255 300.352 138.255 304.268L138.167 305.478H130.225C130.313 306.6 131.391 307.216 132.645 307.216C133.789 307.216 134.581 306.754 135.285 305.896L137.771 308.052C136.473 309.834 134.713 310.648 132.491 310.648C128.949 310.648 126.397 308.184 126.463 304.224ZM134.537 302.53C134.383 301.518 133.503 301.034 132.513 301.034C131.413 301.034 130.577 301.584 130.445 302.53H134.537ZM139.703 310.208V298.108H143.553V298.812C144.103 298.35 145.203 297.91 146.259 297.822H146.611C149.559 297.822 150.923 299.802 150.945 302.816V310.208H147.095V304.466C147.095 301.936 146.479 301.496 145.401 301.54C144.565 301.584 144.191 301.804 143.553 302.288V310.208H139.703ZM152.393 304.114C152.393 300.066 155.011 297.668 159.125 297.668C161.083 297.668 162.799 298.394 164.207 300.088L161.941 302.684C160.929 301.584 160.225 301.188 159.059 301.188C157.629 301.21 156.199 302.376 156.199 304.114C156.199 305.896 157.585 307.062 159.103 307.062C160.357 307.062 161.171 306.49 162.029 305.566L164.273 308.14C162.953 309.856 161.105 310.582 159.125 310.582C155.099 310.604 152.393 308.404 152.393 304.114ZM165.457 304.224C165.457 300.176 167.921 297.668 171.485 297.668C175.137 297.668 177.249 300.352 177.249 304.268L177.161 305.478H169.219C169.307 306.6 170.385 307.216 171.639 307.216C172.783 307.216 173.575 306.754 174.279 305.896L176.765 308.052C175.467 309.834 173.707 310.648 171.485 310.648C167.943 310.648 165.391 308.184 165.457 304.224ZM173.531 302.53C173.377 301.518 172.497 301.034 171.507 301.034C170.407 301.034 169.571 301.584 169.439 302.53H173.531Z" fill="white"/>
<g clip-path="url(#clip0_576_990)">
<path d="M122.272 213V172.188L138.064 209.815L148.721 205.355L133.199 168.366L161.559 196.725L169.725 188.559L140.864 159.697L178.645 175.142L183.008 164.466L145.883 149.272H186V137.728H145.188L182.815 121.936L178.355 111.279L141.346 126.82L169.725 98.4408L161.559 90.2746L132.697 119.136L148.142 81.3554L137.466 76.9924L122.272 114.117V74H110.728V114.812L94.9357 77.1854L84.279 81.645L99.82 118.654L71.4408 90.2746L63.2746 98.4408L92.1364 127.303L54.3554 111.858L49.9924 122.534L87.1363 137.728H47V149.272H87.8119L50.1854 165.064L54.645 175.721L91.6537 160.199L63.2746 188.559L71.4408 196.725L100.303 167.864L84.8582 205.645L95.5342 210.008L110.728 172.883V213H122.272Z" fill="black"/>
</g>
<defs>
<clipPath id="clip0_576_990">
<rect width="139" height="139" fill="white" transform="translate(47 74)"/>
</clipPath>
</defs>
</svg>
