<svg width="234" height="329" viewBox="0 0 234 329" fill="none" xmlns="http://www.w3.org/2000/svg">
<rect width="233.022" height="327.66" rx="23" fill="black"/>
<path d="M69.418 136.286V136.286C90.2665 98.9939 143.929 98.9939 164.777 136.286V136.286" stroke="#FF6E46" stroke-width="13" stroke-linecap="round"/>
<circle cx="117.097" cy="139.835" r="18.1317" fill="#FF6E46"/>
<path d="M117.094 63.0859L117.094 88.6047" stroke="#FF6E46" stroke-width="13" stroke-linecap="round"/>
<path d="M176.105 85.25L158.061 103.294" stroke="#FF6E46" stroke-width="13" stroke-linecap="round"/>
<path d="M58 85.25L76.0445 103.294" stroke="#FF6E46" stroke-width="13" stroke-linecap="round"/>
<path d="M117.012 204.695L117.012 179.177" stroke="#FF6E46" stroke-width="13" stroke-linecap="round"/>
<path d="M58 182.539L76.0445 164.495" stroke="#FF6E46" stroke-width="13" stroke-linecap="round"/>
<path d="M176.105 182.539L158.061 164.495" stroke="#FF6E46" stroke-width="13" stroke-linecap="round"/>
<path fill-rule="evenodd" clip-rule="evenodd" d="M233 278V304.675C233 317.377 222.703 327.675 210 327.675H23C10.2975 327.675 0 317.377 0 304.675V278H233Z" fill="#004BC8"/>
<path d="M80.6916 297.36H72.0896V300.33L80.2736 300.308V303.718H72.0896V306.732H77.3036C78.9096 306.732 79.7676 306.622 80.8016 306.49V309.9C79.8336 310.142 78.0516 310.208 76.7976 310.208H68.2396V293.884H80.6916V297.36ZM86.5021 307.414L81.7721 298.108H86.1281L88.5041 303.08L90.5721 298.108H94.8401L87.9981 313.508L84.1701 312.43L86.5021 307.414ZM95.1053 304.224C95.1053 300.176 97.5693 297.668 101.133 297.668C104.785 297.668 106.897 300.352 106.897 304.268L106.809 305.478H98.8673C98.9553 306.6 100.033 307.216 101.287 307.216C102.431 307.216 103.223 306.754 103.927 305.896L106.413 308.052C105.115 309.834 103.355 310.648 101.133 310.648C97.5913 310.648 95.0393 308.184 95.1053 304.224ZM103.179 302.53C103.025 301.518 102.145 301.034 101.155 301.034C100.055 301.034 99.2193 301.584 99.0873 302.53H103.179ZM121.062 310.406C119.896 310.736 118.466 310.692 116.816 310.428C115.672 310.208 114.374 309.636 113.23 308.844L114.77 305.852C116.2 306.6 117.542 307.15 118.818 307.326C119.632 307.502 119.808 306.512 119.082 306.204C118.136 305.742 116.882 305.5 115.364 304.576C113.912 303.696 113.186 301.892 113.934 300.132C114.484 298.68 115.826 297.734 118.268 297.646C120.226 297.58 121.898 298.152 123.548 299.428L121.568 302.178C120.358 301.43 119.412 301.122 118.488 301.056C117.982 300.99 117.696 301.848 118.224 302.134C119.126 302.64 120.424 302.904 121.656 303.564C123.284 304.4 124.054 305.698 123.812 307.392C123.614 309.042 122.58 309.966 121.062 310.406ZM125.168 298.108H128.974V310.208H125.168V298.108ZM128.974 296.832H125.168V293.884H128.974V296.832ZM136.738 306.358C138.322 306.336 139.18 305.302 139.18 303.938C139.18 302.024 138.058 301.144 136.738 301.078C135.66 301.012 134.384 301.716 134.296 303.74C134.208 305.544 135.374 306.38 136.738 306.358ZM143.096 308.118C143.096 310.384 142.788 311.902 141.028 313.156C139.664 314.08 137.706 314.278 135.748 314.19C134.406 314.124 132.668 313.728 131.04 312.782L132.624 309.79C134.142 310.648 135.572 311.11 137.266 310.934C138.74 310.758 139.246 309.9 139.246 309.108V308.58C138.674 309.196 137.42 309.614 136.144 309.614C133.548 309.614 130.424 307.876 130.556 303.916C130.71 299.56 133.328 297.668 136.364 297.822C137.64 297.866 138.608 298.328 139.246 298.966V298.108H143.096V308.118ZM144.869 310.208V293.884H148.719V298.68C149.269 298.218 150.347 297.866 151.403 297.778H151.689C154.637 297.778 156.199 299.912 156.199 302.816V310.208H152.349V304.246C152.349 301.98 151.667 301.386 150.545 301.496C149.797 301.562 149.203 301.848 148.719 302.354V310.208H144.869ZM163.058 305.126C163.058 306.05 163.168 306.49 163.652 306.666C163.982 306.776 164.268 306.754 164.972 306.512L165.61 309.878C164.466 310.406 162.618 310.604 161.32 310.098C159.802 309.482 159.252 308.14 159.252 305.83V301.54H157.272V298.108H159.252V293.884H163.058V298.108H165.522V301.54H163.058V305.126Z" fill="white"/>
</svg>
