<svg width="207" height="291" viewBox="0 0 207 291" fill="none" xmlns="http://www.w3.org/2000/svg">
<rect width="206.342" height="290.44" rx="15" fill="black"/>
<path fill-rule="evenodd" clip-rule="evenodd" d="M206.4 246.25V275.445C206.4 283.729 199.684 290.445 191.4 290.445H15C6.71574 290.445 0 283.729 0 275.445V246.25H206.4Z" fill="#FF6E46"/>
<path d="M89.4297 65.5859L89.4297 77.734" stroke="#FF6E46" stroke-width="7" stroke-linecap="square"/>
<path d="M137.176 83.5312L128.595 92.1212" stroke="#FF6E46" stroke-width="7" stroke-linecap="square"/>
<path d="M41.6211 83.5312L50.2023 92.1212" stroke="#FF6E46" stroke-width="7" stroke-linecap="square"/>
<path d="M44.0469 127.059C58.7923 104.447 97.7204 72.7891 135.469 127.059H44.0469Z" fill="#D9D9D9"/>
<path d="M135.469 127.063C120.723 149.065 81.7952 179.867 44.0468 127.063L135.469 127.063Z" fill="#D9D9D9"/>
<ellipse cx="90.1751" cy="126.621" rx="18.3431" ry="18.9019" fill="black"/>
<mask id="mask0_431_47" style="mask-type:alpha" maskUnits="userSpaceOnUse" x="104" y="103" width="54" height="54">
<ellipse cx="131.008" cy="129.753" rx="26.531" ry="26.5581" fill="#D9D9D9"/>
</mask>
<g mask="url(#mask0_431_47)">
<path d="M60.543 127.799C74.9183 105.754 112.869 74.8914 149.67 127.799H60.543Z" fill="#D9D9D9"/>
<path d="M149.672 127.803C135.297 149.252 97.3457 179.281 60.5449 127.803L149.672 127.803Z" fill="#D9D9D9"/>
<ellipse cx="105.508" cy="127.357" rx="17.8826" ry="18.4274" fill="black"/>
</g>
<path d="M146.416 151.948C159.547 144.359 164.042 127.555 156.464 114.417C148.887 101.279 132.101 96.7738 118.971 104.362C105.841 111.951 101.345 128.755 108.923 141.893C116.501 155.031 133.286 159.536 146.416 151.948Z" stroke="#004BC8" stroke-width="10"/>
<rect width="9.79856" height="13.0714" transform="matrix(0.865804 -0.500383 0.499617 0.866246 142.07 153.406)" fill="#004BC8"/>
<rect width="20.4137" height="53.1026" rx="5" transform="matrix(0.865804 -0.500383 0.499617 0.866246 143.66 167.32)" fill="#D14A00"/>
<path d="M74.2023 263.168H67.1643V265.598L73.8603 265.58V268.37H67.1643V270.836H71.4303C72.7443 270.836 73.4463 270.746 74.2923 270.638V273.428C73.5003 273.626 72.0423 273.68 71.0163 273.68H64.0143V260.324H74.2023V263.168ZM78.9562 271.394L75.0862 263.78H78.6502L80.5942 267.848L82.2862 263.78H85.7782L80.1802 276.38L77.0482 275.498L78.9562 271.394ZM85.9952 268.784C85.9952 265.472 88.0112 263.42 90.9272 263.42C93.9152 263.42 95.6432 265.616 95.6432 268.82L95.5712 269.81H89.0732C89.1452 270.728 90.0272 271.232 91.0532 271.232C91.9892 271.232 92.6372 270.854 93.2132 270.152L95.2472 271.916C94.1852 273.374 92.7452 274.04 90.9272 274.04C88.0292 274.04 85.9412 272.024 85.9952 268.784ZM92.6012 267.398C92.4752 266.57 91.7552 266.174 90.9452 266.174C90.0452 266.174 89.3612 266.624 89.2532 267.398H92.6012ZM107.232 273.842C106.278 274.112 105.108 274.076 103.758 273.86C102.822 273.68 101.76 273.212 100.824 272.564L102.084 270.116C103.254 270.728 104.352 271.178 105.396 271.322C106.062 271.466 106.206 270.656 105.612 270.404C104.838 270.026 103.812 269.828 102.57 269.072C101.382 268.352 100.788 266.876 101.4 265.436C101.85 264.248 102.948 263.474 104.946 263.402C106.548 263.348 107.916 263.816 109.266 264.86L107.646 267.11C106.656 266.498 105.882 266.246 105.126 266.192C104.712 266.138 104.478 266.84 104.91 267.074C105.648 267.488 106.71 267.704 107.718 268.244C109.05 268.928 109.68 269.99 109.482 271.376C109.32 272.726 108.474 273.482 107.232 273.842ZM110.592 263.78H113.706V273.68H110.592V263.78ZM113.706 262.736H110.592V260.324H113.706V262.736ZM120.058 270.53C121.354 270.512 122.056 269.666 122.056 268.55C122.056 266.984 121.138 266.264 120.058 266.21C119.176 266.156 118.132 266.732 118.06 268.388C117.988 269.864 118.942 270.548 120.058 270.53ZM125.26 271.97C125.26 273.824 125.008 275.066 123.568 276.092C122.452 276.848 120.85 277.01 119.248 276.938C118.15 276.884 116.728 276.56 115.396 275.786L116.692 273.338C117.934 274.04 119.104 274.418 120.49 274.274C121.696 274.13 122.11 273.428 122.11 272.78V272.348C121.642 272.852 120.616 273.194 119.572 273.194C117.448 273.194 114.892 271.772 115 268.532C115.126 264.968 117.268 263.42 119.752 263.546C120.796 263.582 121.588 263.96 122.11 264.482V263.78H125.26V271.97ZM126.711 273.68V260.324H129.861V264.248C130.311 263.87 131.193 263.582 132.057 263.51H132.291C134.703 263.51 135.981 265.256 135.981 267.632V273.68H132.831V268.802C132.831 266.948 132.273 266.462 131.355 266.552C130.743 266.606 130.257 266.84 129.861 267.254V273.68H126.711ZM141.593 269.522C141.593 270.278 141.683 270.638 142.079 270.782C142.349 270.872 142.583 270.854 143.159 270.656L143.681 273.41C142.745 273.842 141.233 274.004 140.171 273.59C138.929 273.086 138.479 271.988 138.479 270.098V266.588H136.859V263.78H138.479V260.324H141.593V263.78H143.609V266.588H141.593V269.522Z" fill="white"/>
</svg>
