<svg width="234" height="329" viewBox="0 0 234 329" fill="none" xmlns="http://www.w3.org/2000/svg">
<rect width="233.022" height="326.767" rx="23" fill="#004BC8"/>
<circle cx="110.271" cy="179.814" r="39.4548" fill="black"/>
<path fill-rule="evenodd" clip-rule="evenodd" d="M84.9336 186.047C87.2664 198.344 98.0709 207.643 111.047 207.643C124.024 207.643 134.828 198.344 137.161 186.047H84.9336Z" fill="white"/>
<rect x="37.5898" y="51" width="156.327" height="66.4501" rx="9" fill="black"/>
<path d="M128.186 132.398L111.263 96.2662L145.109 96.2662L128.186 132.398Z" fill="black"/>
<path d="M62.0915 99V70.7188H67.9509V82.4375H80.2165V70.7188H86.115V99H80.2165V87.2812H67.9509V99H62.0915ZM95.6071 99H89.279L99.0837 70.7188H106.623L116.388 99H110.099L107.97 92.4766H97.7361L95.6071 99ZM99.2204 87.9062H106.486L102.951 77.0859H102.756L99.2204 87.9062ZM119.592 99V70.7188H125.451V82.4375H137.717V70.7188H143.615V99H137.717V87.2812H125.451V99H119.592ZM153.107 99H146.779L156.584 70.7188H164.123L173.888 99H167.599L165.47 92.4766H155.236L153.107 99ZM156.72 87.9062H163.986L160.451 77.0859H160.256L156.72 87.9062Z" fill="white"/>
<path fill-rule="evenodd" clip-rule="evenodd" d="M232.688 277.375V304.05C232.688 316.752 222.39 327.05 209.688 327.05H23C10.2974 327.05 0 316.752 0 304.05V277.375H232.688Z" fill="black"/>
<path d="M97.1625 310.208V293.884H109.395V297.404H101.101V300.594H105.479C107.085 300.594 107.921 300.55 108.977 300.418V303.828C107.987 304.07 106.227 304.092 104.995 304.092H101.101V310.208H97.1625ZM122.014 298.108V310.208H118.164V309.504C117.614 309.966 116.646 310.406 115.59 310.494H115.304C112.356 310.494 111.058 308.624 111.058 305.72V298.108H114.908V304.07C114.908 306.292 115.568 306.798 116.448 306.776C117.218 306.754 117.702 306.534 118.164 306.028V298.108H122.014ZM123.798 310.208V298.108H127.648V298.812C128.198 298.35 129.298 297.91 130.354 297.822H130.706C133.654 297.822 135.018 299.802 135.04 302.816V310.208H131.19V304.466C131.19 301.936 130.574 301.496 129.496 301.54C128.66 301.584 128.286 301.804 127.648 302.288V310.208H123.798Z" fill="white"/>
</svg>
