<svg width="207" height="295" viewBox="0 0 207 295" fill="none" xmlns="http://www.w3.org/2000/svg">
<rect width="206.342" height="289.352" rx="15" fill="#004BC8"/>
<rect x="50.4531" y="54.0078" width="99.8455" height="49.5438" rx="9" transform="rotate(5.68651 50.4531 54.0078)" fill="#FF6E46"/>
<path d="M102.018 120.131L93.9321 92.2527L115.443 94.3946L102.018 120.131Z" fill="#FF6E46"/>
<path d="M55.6403 89.9849L57.742 68.8784L62.1149 69.3138L61.244 78.0596L70.398 78.9711L71.2689 70.2253L75.6709 70.6637L73.5692 91.7702L69.1672 91.3319L70.038 82.5861L60.8841 81.6746L60.0132 90.4204L55.6403 89.9849ZM80.6533 92.4756L75.9306 92.0053L85.3496 71.6274L90.9761 72.1877L96.1626 94.02L91.469 93.5526L90.3649 88.5259L82.7269 87.7653L80.6533 92.4756ZM84.1744 84.4648L89.5968 85.0047L87.7626 76.6667L87.6168 76.6522L84.1744 84.4648ZM98.5531 94.258L100.655 73.1514L105.028 73.5869L104.157 82.3327L113.311 83.2442L114.182 74.4984L118.584 74.9367L116.482 96.0433L112.08 95.6049L112.951 86.8591L103.797 85.9476L102.926 94.6934L98.5531 94.258ZM123.566 96.7487L118.843 96.2784L128.262 75.9005L133.889 76.4607L139.075 98.293L134.382 97.8256L133.278 92.7989L125.64 92.0384L123.566 96.7487ZM127.087 88.7378L132.51 89.2778L130.675 80.9398L130.53 80.9252L127.087 88.7378Z" fill="white"/>
<path d="M108.333 153.529C116.72 138.903 146.566 133.911 154.586 147.887C162.607 161.862 148.336 179.975 142.74 178.683C134.846 177.412 130.53 164.88 172.677 148.701" stroke="#D9E0EC" stroke-width="6"/>
<path fill-rule="evenodd" clip-rule="evenodd" d="M206.213 245.609V274.595C206.213 282.879 199.497 289.595 191.213 289.595H15.168C6.88371 289.595 0.167969 282.879 0.167969 274.595V245.609H206.213Z" fill="black"/>
<circle cx="74.9902" cy="164.264" r="34.0918" fill="black"/>
<path fill-rule="evenodd" clip-rule="evenodd" d="M53.0937 170.398C55.1095 181.024 64.4453 189.059 75.6577 189.059C86.8701 189.059 96.2059 181.024 98.2217 170.398H53.0937Z" fill="white"/>
<ellipse cx="68.3105" cy="154.193" rx="6.7832" ry="10.7835" transform="rotate(-20.5049 68.3105 154.193)" fill="white"/>
<ellipse cx="80.6933" cy="149.56" rx="6.7832" ry="10.7835" transform="rotate(-20.5049 80.6933 149.56)" fill="white"/>
<ellipse cx="64.9269" cy="158.058" rx="2.26107" ry="3.82642" transform="rotate(-20.5049 64.9269 158.058)" fill="black"/>
<ellipse cx="64.9269" cy="158.058" rx="2.26107" ry="3.82642" transform="rotate(-20.5049 64.9269 158.058)" fill="black"/>
<ellipse cx="64.9269" cy="158.058" rx="2.26107" ry="3.82642" transform="rotate(-20.5049 64.9269 158.058)" fill="black"/>
<ellipse cx="77.4765" cy="153.372" rx="2.43499" ry="3.82642" transform="rotate(-20.5049 77.4765 153.372)" fill="black"/>
<ellipse cx="77.4765" cy="153.372" rx="2.43499" ry="3.82642" transform="rotate(-20.5049 77.4765 153.372)" fill="black"/>
<ellipse cx="77.4765" cy="153.372" rx="2.43499" ry="3.82642" transform="rotate(-20.5049 77.4765 153.372)" fill="black"/>
<path d="M88.0875 273.68V260.324H98.0955V263.204H91.3095V265.814H94.8915C96.2055 265.814 96.8895 265.778 97.7535 265.67V268.46C96.9435 268.658 95.5035 268.676 94.4955 268.676H91.3095V273.68H88.0875ZM108.42 263.78V273.68H105.27V273.104C104.82 273.482 104.028 273.842 103.164 273.914H102.93C100.518 273.914 99.4563 272.384 99.4563 270.008V263.78H102.606V268.658C102.606 270.476 103.146 270.89 103.866 270.872C104.496 270.854 104.892 270.674 105.27 270.26V263.78H108.42ZM109.88 273.68V263.78H113.03V264.356C113.48 263.978 114.38 263.618 115.244 263.546H115.532C117.944 263.546 119.06 265.166 119.078 267.632V273.68H115.928V268.982C115.928 266.912 115.424 266.552 114.542 266.588C113.858 266.624 113.552 266.804 113.03 267.2V273.68H109.88Z" fill="white"/>
</svg>
