<svg width="234" height="328" viewBox="0 0 234 328" fill="none" xmlns="http://www.w3.org/2000/svg">
<rect width="233.022" height="327.66" rx="23" fill="#FF6E46"/>
<path d="M117.425 139.865L106.087 128.36C104.129 126.373 100.923 126.373 98.9647 128.36L67.3257 160.466C65.4075 162.413 65.4075 165.539 67.3257 167.485L73.5489 173.8C75.5072 175.787 78.7132 175.787 80.6715 173.8L98.9647 155.237C100.923 153.25 104.129 153.25 106.087 155.237L117.425 166.742C119.383 168.729 122.589 168.729 124.547 166.742L151.962 138.922C153.318 137.546 155.538 137.546 156.894 138.922C158.824 140.881 162.158 139.915 162.742 137.227L167.26 116.434C168.023 112.92 164.939 109.773 161.41 110.466L141.568 114.363C139.054 114.857 138.099 117.95 139.898 119.775C141.131 121.026 141.131 123.036 139.898 124.288L124.547 139.865C122.589 141.852 119.383 141.852 117.425 139.865Z" fill="black"/>
<path d="M78.6896 240.3H64.1396L60.1646 230.175H43.2146L39.5396 240.3H25.0646L45.6896 184.65H57.4646L78.6896 240.3ZM51.8396 200.925L46.8146 218.175H56.5646L51.8396 200.925Z" fill="black"/>
<path d="M191.265 84.3C196.59 84.3 199.515 84 203.04 83.475V95.25C199.74 96.075 193.665 96.3 189.315 96.3H163.515V91.575L183.915 52.65H164.94V40.65H202.14V46.35L182.19 84.3H191.265Z" fill="black"/>
<path fill-rule="evenodd" clip-rule="evenodd" d="M232.688 277V304C232.688 316.703 222.39 327 209.688 327H23C10.2974 327 0 316.703 0 304V277H232.688Z" fill="black"/>
<path d="M70.1257 309.208H63.1957V292.884H67.1117V305.666H70.6317C72.2597 305.666 73.0957 305.556 74.1297 305.424V308.9C73.1617 309.142 71.3797 309.208 70.1257 309.208ZM83.9962 309.208V308.152C83.2702 308.9 82.1262 309.362 80.8502 309.362C77.6382 309.362 75.0422 307.382 75.1522 303.092C75.2842 298.758 78.0122 296.734 81.0042 296.866C82.2802 296.932 83.3362 297.504 83.9962 298.208V297.108H87.8022V309.208H83.9962ZM81.3122 305.996C82.6102 305.996 83.6002 305.38 83.8642 304.038C83.8862 303.95 83.9082 303.532 83.9082 303.444C83.9082 301.376 82.8082 300.232 81.4002 300.232C80.2122 300.166 78.9582 301.112 78.9582 303.092C78.9582 305.006 79.9702 305.996 81.3122 305.996ZM89.5948 309.208V297.108H93.4448V297.812C93.9948 297.35 95.0948 296.91 96.1508 296.822H96.5028C99.4508 296.822 100.815 298.802 100.837 301.816V309.208H96.9868V303.466C96.9868 300.936 96.3708 300.496 95.2928 300.54C94.4568 300.584 94.0828 300.804 93.4448 301.288V309.208H89.5948ZM108.598 305.358C110.182 305.336 111.04 304.302 111.04 302.938C111.04 301.024 109.918 300.144 108.598 300.078C107.52 300.012 106.244 300.716 106.156 302.74C106.068 304.544 107.234 305.38 108.598 305.358ZM114.956 307.118C114.956 309.384 114.648 310.902 112.888 312.156C111.524 313.08 109.566 313.278 107.608 313.19C106.266 313.124 104.528 312.728 102.9 311.782L104.484 308.79C106.002 309.648 107.432 310.11 109.126 309.934C110.6 309.758 111.106 308.9 111.106 308.108V307.58C110.534 308.196 109.28 308.614 108.004 308.614C105.408 308.614 102.284 306.876 102.416 302.916C102.57 298.56 105.188 296.668 108.224 296.822C109.5 296.866 110.468 297.328 111.106 297.966V297.108H114.956V307.118ZM127.686 297.108V309.208H123.836V308.504C123.286 308.966 122.318 309.406 121.262 309.494H120.976C118.028 309.494 116.73 307.624 116.73 304.72V297.108H120.58V303.07C120.58 305.292 121.24 305.798 122.12 305.776C122.89 305.754 123.374 305.534 123.836 305.028V297.108H127.686ZM138.094 309.208V308.152C137.368 308.9 136.224 309.362 134.948 309.362C131.736 309.362 129.14 307.382 129.25 303.092C129.382 298.758 132.11 296.734 135.102 296.866C136.378 296.932 137.434 297.504 138.094 298.208V297.108H141.9V309.208H138.094ZM135.41 305.996C136.708 305.996 137.698 305.38 137.962 304.038C137.984 303.95 138.006 303.532 138.006 303.444C138.006 301.376 136.906 300.232 135.498 300.232C134.31 300.166 133.056 301.112 133.056 303.092C133.056 305.006 134.068 305.996 135.41 305.996ZM149.677 305.358C151.261 305.336 152.119 304.302 152.119 302.938C152.119 301.024 150.997 300.144 149.677 300.078C148.599 300.012 147.323 300.716 147.235 302.74C147.147 304.544 148.312 305.38 149.677 305.358ZM156.035 307.118C156.035 309.384 155.727 310.902 153.967 312.156C152.603 313.08 150.645 313.278 148.687 313.19C147.345 313.124 145.607 312.728 143.979 311.782L145.562 308.79C147.081 309.648 148.511 310.11 150.205 309.934C151.679 309.758 152.185 308.9 152.185 308.108V307.58C151.613 308.196 150.359 308.614 149.083 308.614C146.487 308.614 143.363 306.876 143.495 302.916C143.649 298.56 146.267 296.668 149.303 296.822C150.579 296.866 151.547 297.328 152.185 297.966V297.108H156.035V307.118ZM157.544 303.224C157.544 299.176 160.008 296.668 163.572 296.668C167.224 296.668 169.336 299.352 169.336 303.268L169.248 304.478H161.306C161.394 305.6 162.472 306.216 163.726 306.216C164.87 306.216 165.662 305.754 166.366 304.896L168.852 307.052C167.554 308.834 165.794 309.648 163.572 309.648C160.03 309.648 157.478 307.184 157.544 303.224ZM165.618 301.53C165.464 300.518 164.584 300.034 163.594 300.034C162.494 300.034 161.658 300.584 161.526 301.53H165.618Z" fill="white"/>
</svg>
