<svg width="207" height="292" viewBox="0 0 207 292" fill="none" xmlns="http://www.w3.org/2000/svg">
<rect width="206.342" height="291.018" rx="15" fill="#FF6E46"/>
<path d="M102.39 128.125L93.442 119.018C92.6582 118.22 91.3725 118.22 90.5887 119.018L68.6779 141.319C67.9134 142.097 67.9134 143.344 68.6779 144.122L74.3404 149.886C75.1242 150.683 76.4099 150.683 77.1937 149.886L90.5887 136.252C91.3725 135.454 92.6582 135.454 93.442 136.252L102.39 145.359C103.174 146.157 104.46 146.157 105.243 145.359L123.769 126.503C124.553 125.705 125.839 125.705 126.623 126.503L127.046 126.934C128.161 128.069 130.091 127.511 130.427 125.956L133.788 110.443C134.092 109.037 132.858 107.779 131.447 108.057L116.864 110.93C115.302 111.237 114.708 113.158 115.824 114.294L115.951 114.423C116.716 115.201 116.716 116.448 115.951 117.226L105.243 128.125C104.46 128.923 103.174 128.923 102.39 128.125Z" fill="#004BC8"/>
<path d="M80.7082 204.949H68.0982L64.6532 196.174H49.9632L46.7782 204.949H34.2332L52.1082 156.719H62.3132L80.7082 204.949ZM57.4382 170.824L53.0832 185.774H61.5332L57.4382 170.824Z" fill="black"/>
<path d="M157.72 93.3303C162.335 93.3303 164.87 93.0703 167.925 92.6153V102.82C165.065 103.535 159.8 103.73 156.03 103.73H133.67V99.6353L151.35 65.9003H134.905V55.5003H167.145V60.4403L149.855 93.3303H157.72Z" fill="black"/>
<path fill-rule="evenodd" clip-rule="evenodd" d="M206.045 246.023V276.321C206.045 284.605 199.329 291.321 191.045 291.321H15C6.71574 291.321 0 284.605 0 276.321V246.023H206.045Z" fill="black"/>
<path d="M65.9665 273.524H60.2965V260.168H63.5005V270.626H66.3805C67.7125 270.626 68.3965 270.536 69.2425 270.428V273.272C68.4505 273.47 66.9925 273.524 65.9665 273.524ZM77.3151 273.524V272.66C76.7211 273.272 75.7851 273.65 74.7411 273.65C72.1131 273.65 69.9891 272.03 70.0791 268.52C70.1871 264.974 72.4191 263.318 74.8671 263.426C75.9111 263.48 76.7751 263.948 77.3151 264.524V263.624H80.4291V273.524H77.3151ZM75.1191 270.896C76.1811 270.896 76.9911 270.392 77.2071 269.294C77.2251 269.222 77.2431 268.88 77.2431 268.808C77.2431 267.116 76.3431 266.18 75.1911 266.18C74.2191 266.126 73.1931 266.9 73.1931 268.52C73.1931 270.086 74.0211 270.896 75.1191 270.896ZM81.8958 273.524V263.624H85.0458V264.2C85.4958 263.822 86.3958 263.462 87.2598 263.39H87.5478C89.9598 263.39 91.0758 265.01 91.0938 267.476V273.524H87.9438V268.826C87.9438 266.756 87.4398 266.396 86.5578 266.432C85.8738 266.468 85.5678 266.648 85.0458 267.044V273.524H81.8958ZM97.4441 270.374C98.7401 270.356 99.4421 269.51 99.4421 268.394C99.4421 266.828 98.5241 266.108 97.4441 266.054C96.5621 266 95.5181 266.576 95.4461 268.232C95.3741 269.708 96.3281 270.392 97.4441 270.374ZM102.646 271.814C102.646 273.668 102.394 274.91 100.954 275.936C99.8381 276.692 98.2361 276.854 96.6341 276.782C95.5361 276.728 94.1141 276.404 92.7821 275.63L94.0781 273.182C95.3201 273.884 96.4901 274.262 97.8761 274.118C99.0821 273.974 99.4961 273.272 99.4961 272.624V272.192C99.0281 272.696 98.0021 273.038 96.9581 273.038C94.8341 273.038 92.2781 271.616 92.3861 268.376C92.5121 264.812 94.6541 263.264 97.1381 263.39C98.1821 263.426 98.9741 263.804 99.4961 264.326V263.624H102.646V271.814ZM113.061 263.624V273.524H109.911V272.948C109.461 273.326 108.669 273.686 107.805 273.758H107.571C105.159 273.758 104.097 272.228 104.097 269.852V263.624H107.247V268.502C107.247 270.32 107.787 270.734 108.507 270.716C109.137 270.698 109.533 270.518 109.911 270.104V263.624H113.061ZM121.577 273.524V272.66C120.983 273.272 120.047 273.65 119.003 273.65C116.375 273.65 114.251 272.03 114.341 268.52C114.449 264.974 116.681 263.318 119.129 263.426C120.173 263.48 121.037 263.948 121.577 264.524V263.624H124.691V273.524H121.577ZM119.381 270.896C120.443 270.896 121.253 270.392 121.469 269.294C121.487 269.222 121.505 268.88 121.505 268.808C121.505 267.116 120.605 266.18 119.453 266.18C118.481 266.126 117.455 266.9 117.455 268.52C117.455 270.086 118.283 270.896 119.381 270.896ZM131.054 270.374C132.35 270.356 133.052 269.51 133.052 268.394C133.052 266.828 132.134 266.108 131.054 266.054C130.172 266 129.128 266.576 129.056 268.232C128.984 269.708 129.938 270.392 131.054 270.374ZM136.256 271.814C136.256 273.668 136.004 274.91 134.564 275.936C133.448 276.692 131.846 276.854 130.244 276.782C129.146 276.728 127.724 276.404 126.392 275.63L127.688 273.182C128.93 273.884 130.1 274.262 131.486 274.118C132.692 273.974 133.106 273.272 133.106 272.624V272.192C132.638 272.696 131.612 273.038 130.568 273.038C128.444 273.038 125.888 271.616 125.996 268.376C126.122 264.812 128.264 263.264 130.748 263.39C131.792 263.426 132.584 263.804 133.106 264.326V263.624H136.256V271.814ZM137.49 268.628C137.49 265.316 139.506 263.264 142.422 263.264C145.41 263.264 147.138 265.46 147.138 268.664L147.066 269.654H140.568C140.64 270.572 141.522 271.076 142.548 271.076C143.484 271.076 144.132 270.698 144.708 269.996L146.742 271.76C145.68 273.218 144.24 273.884 142.422 273.884C139.524 273.884 137.436 271.868 137.49 268.628ZM144.096 267.242C143.97 266.414 143.25 266.018 142.44 266.018C141.54 266.018 140.856 266.468 140.748 267.242H144.096Z" fill="white"/>
</svg>
