<svg width="767" height="860" viewBox="0 0 767 860" fill="none" xmlns="http://www.w3.org/2000/svg">
<path d="M329.801 284.566C321.279 279.939 319.673 260.362 320.531 249.547C315.724 263.623 306.109 292.084 306.109 293.32C306.109 294.865 322.074 311.345 327.739 311.86C333.403 312.375 367.907 310.315 369.967 309.285C371.615 308.461 375.46 291.432 377.177 283.021L364.302 258.817C356.75 268.258 347.823 294.35 329.801 284.566Z" fill="#004BC8"/>
<ellipse cx="269.03" cy="415.89" rx="140.075" ry="144.195" fill="#004BC8"/>
<rect x="244.311" y="76" width="76.2174" height="284.27" rx="37" fill="#004BC8"/>
<rect x="77.457" y="161.242" width="76.2174" height="284.27" rx="37" transform="rotate(-23.7149 77.457 161.242)" fill="#004BC8"/>
<rect y="320.711" width="76.2174" height="284.27" rx="37" transform="rotate(-49.4013 0 320.711)" fill="#004BC8"/>
<rect x="430.734" y="142.945" width="76.2174" height="284.27" rx="37" transform="rotate(30 430.734 142.945)" fill="#004BC8"/>
<rect x="530.223" y="312.891" width="76.2174" height="284.27" rx="37" transform="rotate(75 530.223 312.891)" fill="#004BC8"/>
<path d="M136.165 343.73C136.525 344.052 137.025 344.025 137.474 344.066C138.05 344.12 138.595 344.181 139.176 344.181C140.391 344.181 141.6 344.271 142.813 344.302C143.487 344.32 144.195 344.35 144.855 344.188C145.548 344.017 146.228 343.779 146.908 343.566C147.443 343.398 147.931 343.36 148.424 343.072C148.771 342.87 149.128 342.706 149.44 342.45C149.849 342.113 150.31 342.028 150.799 341.831C151.739 341.453 152.384 340.937 153.002 340.154C153.228 339.868 153.273 339.736 153.37 339.406C153.449 339.138 153.687 338.948 153.803 338.695C153.918 338.444 153.912 338.085 154.089 337.872C154.677 337.167 155.12 336.188 155.252 335.269C155.404 334.2 155.067 333.214 154.912 332.179C154.832 331.65 154.833 331.127 154.74 330.595C154.67 330.196 154.704 329.778 154.704 329.375" stroke="#004BC8" stroke-width="3" stroke-linecap="round"/>
<path d="M152.451 328.344C152.586 328.361 152.666 328.639 152.708 328.744C152.822 329.025 153.069 329.272 153.144 329.567C153.358 330.397 153.223 331.377 153.223 332.228C153.223 332.805 153.223 333.382 153.223 333.958C153.223 334.855 152.725 335.706 152.433 336.533C152.214 337.152 151.87 337.727 151.646 338.35C151.578 338.538 151.455 338.869 151.324 339.026C151.251 339.113 151.129 339.362 151.07 339.48C150.891 339.839 150.546 340.123 150.391 340.474C149.709 342.021 148.234 343.13 147.158 344.34C146.957 344.566 146.337 344.69 146.074 344.791C145.473 345.023 144.883 345.158 144.257 345.299C143.189 345.539 142.128 345.813 141.057 346.046" stroke="#004BC8" stroke-width="3" stroke-linecap="round"/>
<path d="M144.018 345.917C145.686 345.917 147.357 345.986 149.014 345.767C149.411 345.715 148.376 346.463 148.252 346.532C147.457 346.981 146.518 347.246 145.656 347.526C144.368 347.946 143.058 348.328 141.729 348.599C141.69 348.607 140.963 348.803 140.85 348.671C140.798 348.611 141.155 348.269 141.186 348.231C141.483 347.868 141.956 347.378 141.876 346.861C141.821 346.502 141.174 346.174 140.885 346.017C140.287 345.693 139.62 345.533 138.997 345.273" stroke="#004BC8" stroke-width="3" stroke-linecap="round"/>
<path d="M136.165 342.957C137.246 342.848 138.131 343.614 139.194 343.669C140.08 343.714 140.915 343.859 141.801 343.859C142.759 343.859 143.902 344.03 144.82 343.73C145.229 343.596 145.546 343.315 145.918 343.15C146.202 343.024 146.547 342.947 146.819 342.796C147.341 342.506 148.034 342.509 148.553 342.156C148.715 342.046 148.855 341.901 149.015 341.795C149.149 341.705 149.231 341.566 149.347 341.455C149.451 341.356 149.593 341.33 149.698 341.234C150.314 340.664 150.819 339.941 151.314 339.267C151.491 339.025 151.544 338.632 151.629 338.351C151.845 337.64 152.083 336.972 152.23 336.241C152.438 335.201 152.605 334.112 152.644 333.058C152.683 332.021 152.926 331.003 152.552 329.986C152.391 329.55 152.347 329.152 152.115 328.731C151.937 328.407 151.743 327.872 151.743 327.508" stroke="#004BC8" stroke-width="3" stroke-linecap="round"/>
<path d="M409.105 327.312C406.548 330.509 406.473 339.558 409.391 342.476C410.64 343.724 411.458 343.424 413.053 343.849C417.172 344.948 420.395 348.427 424.812 348.427C426.789 348.427 430.292 347.767 431.249 345.852" stroke="#004BC8" stroke-width="3" stroke-linecap="round"/>
<path d="M406.016 350.488C404.935 349.286 404.655 347.298 405.101 345.739C406.047 342.428 405.501 338.639 405.501 335.21C405.501 333.977 405.197 337.657 404.986 338.872C404.402 342.248 403.519 345.558 403.442 349C403.388 351.399 403.442 355.333 403.442 350.373C403.442 347.387 403.762 344.824 404.243 341.905C404.638 339.5 402.605 341.429 402.011 342.363C401.436 343.267 399.258 346.381 399.322 347.398C399.459 349.602 407.476 344.752 408.477 345.452C408.478 345.453 407.067 345.748 406.245 344.823C404.395 342.742 409.086 346.167 409.507 346.883C410.241 348.131 411.926 346.605 411.681 346.482C410.478 345.881 409.327 346.005 408.076 345.224C407.427 344.818 407.238 342.859 407.447 343.278C408.111 344.607 408.814 345.942 409.507 347.398C410.714 349.933 413.079 349.09 414.771 347.398" stroke="#004BC8" stroke-width="3" stroke-linecap="round"/>
<path d="M395.201 344.305C398.318 345.839 407.65 350.441 404.671 348.653C404.095 348.308 403.297 347.563 402.668 347.423C401.048 347.063 403.956 346.635 403.956 345.335" stroke="#004BC8" stroke-width="3" stroke-linecap="round"/>
<path d="M402.411 345.852C402.748 348.38 403.572 351.458 405.215 353.462C405.593 353.923 408.403 356.993 406.531 355.121" stroke="#004BC8" stroke-width="3" stroke-linecap="round"/>
<path d="M227.5 274.532C211.954 279.314 198.181 255.152 193.749 244.103L180.453 275.619L203.977 289.203L251.024 279.966L253.581 220.195H245.399C245.569 225.991 245.91 237.148 245.91 235.41C245.91 233.236 246.933 268.555 227.5 274.532Z" fill="#004BC8"/>
<path d="M410.705 329.888L423.01 308.773C410.994 315.812 386.914 330.094 386.502 330.918C386.09 331.742 388.047 347.397 389.077 355.122L445.21 343.792L447.214 335.553C444.982 336.411 436.042 338.745 422.034 341.217C408.027 343.689 408.645 334.694 410.705 329.888Z" fill="#004BC8"/>
<path d="M427.13 420.011C414.77 423.307 408.247 437.005 406.531 443.7H398.291L391.081 416.921L447.214 403.531L450.819 413.316C448.072 414.003 439.489 416.715 427.13 420.011Z" fill="#004BC8"/>
<path d="M126.895 432.367C125.247 424.951 103.721 408.335 93.4209 400.953H148.009L161.914 432.367C153.674 442.838 136.885 462.957 135.649 459.661C134.105 455.541 128.955 441.637 126.895 432.367Z" fill="#004BC8"/>
<ellipse cx="205.833" cy="370" rx="26.8333" ry="42" fill="white"/>
<ellipse cx="257.166" cy="370" rx="26.8333" ry="42" fill="white"/>
<ellipse cx="223.333" cy="371.167" rx="9.33333" ry="15.1667" fill="black"/>
<ellipse cx="223.333" cy="371.167" rx="9.33333" ry="15.1667" fill="black"/>
<ellipse cx="223.333" cy="371.167" rx="9.33333" ry="15.1667" fill="black"/>
<ellipse cx="274.666" cy="371.167" rx="9.33333" ry="15.1667" fill="black"/>
<ellipse cx="274.666" cy="371.167" rx="9.33333" ry="15.1667" fill="black"/>
<ellipse cx="274.666" cy="371.167" rx="9.33333" ry="15.1667" fill="black"/>
<circle cx="164.431" cy="648.164" r="71.6269" transform="rotate(-15 164.431 648.164)" fill="black"/>
<rect x="164.251" y="461.102" width="45.4408" height="146.258" rx="22.7204" transform="rotate(4.2582 164.251 461.102)" fill="black"/>
<rect x="31.8838" y="520.109" width="45.4407" height="145.569" rx="22.7204" transform="rotate(-37.3968 31.8838 520.109)" fill="black"/>
<path d="M147.179 577.833C139.761 581.096 132.468 576.99 130.207 574.008L116.218 575.364L137.038 602.477C148.784 599.197 172.627 592.462 174.035 591.766C175.443 591.07 170.702 576.845 168.155 569.82L157.101 556.835C156.446 562.326 154.597 574.569 147.179 577.833Z" fill="black"/>
<path d="M98.291 620.035C101.095 613.638 98.0574 606.276 95.2916 602.898C101.491 601.237 113.93 598.063 114.089 598.658C114.289 599.402 117.777 612.421 117.133 612.993C116.617 613.45 112.756 617.488 110.89 619.45C105.237 622.16 95.3212 626.81 98.291 620.035Z" fill="black"/>
<path d="M202.905 586.426C200.7 584.147 200.729 577.308 201.477 573.653L183.536 590.021C188.131 594.77 197.712 604.243 199.28 604.142C200.847 604.041 207.516 597.683 210.432 595.174C208.685 593.117 205.111 588.706 202.905 586.426Z" fill="black"/>
<ellipse cx="135.396" cy="649.694" rx="14.1452" ry="22.4873" transform="rotate(-20.5049 135.396 649.694)" fill="white"/>
<ellipse cx="161.213" cy="640.037" rx="14.1452" ry="22.4873" transform="rotate(-20.5049 161.213 640.037)" fill="white"/>
<ellipse cx="128.342" cy="657.752" rx="4.71508" ry="7.97936" transform="rotate(-20.5049 128.342 657.752)" fill="black"/>
<ellipse cx="128.342" cy="657.752" rx="4.71508" ry="7.97936" transform="rotate(-20.5049 128.342 657.752)" fill="black"/>
<ellipse cx="128.342" cy="657.752" rx="4.71508" ry="7.97936" transform="rotate(-20.5049 128.342 657.752)" fill="black"/>
<ellipse cx="154.499" cy="647.969" rx="5.07778" ry="7.97936" transform="rotate(-20.5049 154.499 647.969)" fill="black"/>
<ellipse cx="154.499" cy="647.969" rx="5.07778" ry="7.97936" transform="rotate(-20.5049 154.499 647.969)" fill="black"/>
<ellipse cx="154.499" cy="647.969" rx="5.07778" ry="7.97936" transform="rotate(-20.5049 154.499 647.969)" fill="black"/>
<path d="M422.923 83.3594C462.494 47.5018 544.202 -11.1201 554.462 41.2532C564.721 93.6265 504.074 133.644 488.572 123.322C466.161 110.468 465.584 66.7518 607.889 64.2072" stroke="black" stroke-width="10"/>
<path d="M265 654H380L265 683L380 689L265 726L380 741C342.667 758.667 269.8 793.6 277 792C284.2 790.4 358 779.333 394 774L265 845L413 821" stroke="#D14A00" stroke-width="10" stroke-linecap="round"/>
<rect x="16" y="738" width="108" height="57" rx="28.5" fill="#D9D9D9"/>
<path d="M85 720L97.9904 747.75H72.0096L85 720Z" fill="#D9D9D9"/>
<path d="M48.08 766.648C48.296 766.648 48.536 766.624 48.8 766.528C49.04 766.48 49.28 766.36 49.496 766.168C49.688 766.024 49.88 765.784 50.024 765.496C50.168 765.232 50.24 764.896 50.24 764.464C50.24 764.08 50.168 763.744 50.024 763.456C49.88 763.192 49.688 762.976 49.496 762.784C49.28 762.64 49.04 762.52 48.8 762.424C48.536 762.352 48.296 762.304 48.08 762.304C47.84 762.304 47.576 762.352 47.336 762.424C47.072 762.52 46.832 762.64 46.64 762.784C46.424 762.976 46.256 763.192 46.136 763.456C45.992 763.744 45.92 764.08 45.92 764.464C45.92 764.896 45.992 765.232 46.136 765.496C46.256 765.784 46.424 766.024 46.64 766.168C46.832 766.36 47.072 766.48 47.336 766.528C47.576 766.624 47.84 766.648 48.08 766.648ZM48.08 770.608C46.232 770.608 44.744 770.104 43.592 769.048C42.416 768.04 41.84 766.504 41.84 764.464C41.84 763.504 41.984 762.616 42.296 761.848C42.584 761.104 43.016 760.456 43.568 759.928C44.12 759.4 44.792 759.016 45.56 758.728C46.304 758.464 47.144 758.32 48.08 758.32C48.992 758.32 49.832 758.464 50.6 758.728C51.344 759.016 51.992 759.4 52.568 759.928C53.096 760.456 53.528 761.104 53.864 761.848C54.152 762.616 54.32 763.504 54.32 764.464C54.32 766.504 53.72 768.04 52.568 769.048C51.392 770.104 49.904 770.608 48.08 770.608ZM62.936 762.352V766.504C62.744 766.504 62.504 766.528 62.24 766.528C61.952 766.552 61.664 766.576 61.4 766.624C61.112 766.672 60.848 766.696 60.608 766.744C60.44 766.792 60.32 766.84 60.224 766.888V772.048H56.024V758.56H60.224V762.904C60.488 762.736 60.8 762.616 61.208 762.496C61.64 762.4 62.216 762.352 62.936 762.352ZM47.096 771.472V774.232H60.464V777.832H42.896V771.472H47.096ZM69.0725 758.632V766.048H74.0645C74.3765 766.048 74.6885 766.048 75.0245 766.024C75.3125 766.024 75.6245 766.024 75.9365 766C76.2245 766 76.4885 765.976 76.7765 765.928V768.784C76.4885 768.856 76.2245 768.904 75.9365 768.928C75.6245 768.976 75.3125 769 75.0005 769C74.6645 769.024 74.3285 769.024 73.9925 769.024C73.6325 769.048 73.2725 769.048 72.9365 769.048H64.6325V758.632H69.0725ZM78.5525 769.408V765.232C78.4325 765.256 78.3125 765.256 78.1925 765.256C77.8565 765.304 77.4965 765.328 77.1605 765.328C76.8005 765.352 76.4645 765.352 76.1285 765.352C75.7925 765.376 75.4805 765.376 75.2405 765.376H73.2725V762.496H77.4965C77.8085 762.496 78.0965 762.496 78.3845 762.472H78.5525V761.776C78.1445 761.848 77.6645 761.872 77.1365 761.872C76.3685 761.92 75.7445 761.92 75.2405 761.92H73.2725V759.04H77.4965C77.7845 759.04 78.0725 759.04 78.3605 759.016H78.5525V758.56H82.7525V769.408H78.5525ZM74.6165 775.384C75.3845 775.384 76.0085 775.36 76.5125 775.312C76.9925 775.264 77.3765 775.192 77.6645 775.096C77.9525 775 78.1445 774.88 78.2645 774.736C78.3605 774.592 78.4085 774.424 78.4085 774.232C78.4085 774.064 78.3605 773.896 78.2645 773.752C78.1445 773.608 77.9525 773.488 77.6645 773.392C77.3765 773.296 76.9925 773.224 76.5125 773.152C76.0085 773.104 75.3845 773.08 74.6165 773.08C73.8245 773.08 73.1765 773.104 72.6965 773.152C72.1925 773.224 71.8085 773.296 71.5445 773.392C71.2565 773.488 71.0645 773.608 70.9685 773.752C70.8725 773.896 70.8245 774.064 70.8245 774.232C70.8245 774.424 70.8725 774.592 70.9685 774.736C71.0645 774.88 71.2565 775 71.5445 775.096C71.8085 775.192 72.1925 775.264 72.6965 775.312C73.1765 775.36 73.8245 775.384 74.6165 775.384ZM74.6165 778.6C72.9605 778.6 71.5925 778.48 70.5125 778.288C69.4085 778.072 68.5205 777.784 67.8965 777.4C67.2245 777.016 66.7685 776.56 66.5285 776.008C66.2405 775.48 66.1205 774.904 66.1205 774.232C66.1205 773.632 66.2405 773.056 66.5285 772.528C66.7925 772 67.2485 771.544 67.9205 771.136C68.5685 770.752 69.4325 770.44 70.5365 770.2C71.6165 769.984 72.9845 769.864 74.6165 769.864C76.2245 769.864 77.5685 769.984 78.6725 770.2C79.7525 770.44 80.6165 770.752 81.2885 771.136C81.9365 771.544 82.4165 772 82.7045 772.528C82.9685 773.056 83.1125 773.632 83.1125 774.232C83.1125 774.904 82.9685 775.48 82.7045 776.008C82.4165 776.56 81.9605 777.016 81.3125 777.4C80.6645 777.784 79.8005 778.072 78.7205 778.288C77.6165 778.48 76.2485 778.6 74.6165 778.6ZM88.4673 773.344H92.6673V777.568H88.4673V773.344ZM92.3313 764.392C92.3313 763.504 91.6593 762.76 90.5553 762.856C89.4513 762.952 88.9233 763.576 88.6353 764.704L84.9153 763.576C85.6593 760.6 87.5553 758.896 90.1713 758.728C93.6753 758.488 95.7393 760.192 96.3633 762.472C97.0833 765.088 96.2673 766.96 94.3953 768.76C93.3633 769.744 92.7633 770.512 92.6433 771.952H88.3713V771.376C88.3713 770.152 88.8753 769 89.7873 768.112C91.8033 766.168 92.3313 765.496 92.3313 764.392Z" fill="black"/>
<g clip-path="url(#clip0_1636_403)">
<path d="M608.29 412.08L657.04 365L585 400.88L608.29 412.08Z" fill="black"/>
<path d="M657.04 365L610.18 413.86L621.18 436.86L657.04 365Z" fill="black"/>
</g>
<rect x="492" y="628" width="202" height="69" rx="34.5" fill="#E6E6E6"/>
<rect width="231.397" height="73.2156" rx="36.6078" transform="matrix(0.280426 0.959876 -0.95952 0.281642 664.822 475)" fill="#E6E6E6"/>
<rect x="513.293" y="793.312" width="162.013" height="66.3603" rx="33.1802" fill="#E6E6E6"/>
<rect x="484.765" y="739.359" width="201.305" height="66.3603" rx="33.1802" fill="#E6E6E6"/>
<rect x="474" y="684.875" width="201.305" height="66.3603" rx="33.1802" fill="#E6E6E6"/>
<ellipse cx="652.5" cy="744.5" rx="114.5" ry="115.5" fill="#E6E6E6"/>
<path d="M762.49 719.027C762.49 684.904 707.96 568.138 673.691 504.266C667.771 594.153 636.422 759.019 637.714 760.742C639.005 762.464 729.124 779.849 740.965 799.765C763.213 780.388 762.49 757.243 762.49 719.027Z" fill="#E6E6E6"/>
<path d="M630.362 618.643C632.515 632.207 610.446 629.139 597.528 629.139L610.446 639.635L651.084 636.136V620.258L623.903 592C625.069 595.768 628.209 605.079 630.362 618.643Z" fill="#E6E6E6"/>
<ellipse cx="624.751" cy="695.59" rx="25.8349" ry="40.3671" transform="rotate(-9.24611 624.751 695.59)" fill="white"/>
<ellipse cx="672.555" cy="687.809" rx="25.8349" ry="40.3671" transform="rotate(-9.24611 672.555 687.809)" fill="white"/>
<ellipse cx="642.612" cy="691.877" rx="8.88076" ry="14.5322" transform="rotate(-9.24611 642.612 691.877)" fill="black"/>
<ellipse cx="642.612" cy="691.877" rx="8.88076" ry="14.5322" transform="rotate(-9.24611 642.612 691.877)" fill="black"/>
<ellipse cx="642.612" cy="691.877" rx="8.88076" ry="14.5322" transform="rotate(-9.24611 642.612 691.877)" fill="black"/>
<ellipse cx="689.438" cy="680.573" rx="8.88076" ry="14.5322" transform="rotate(-9.24611 689.438 680.573)" fill="black"/>
<ellipse cx="689.438" cy="680.573" rx="8.88076" ry="14.5322" transform="rotate(-9.24611 689.438 680.573)" fill="black"/>
<ellipse cx="689.438" cy="680.573" rx="8.88076" ry="14.5322" transform="rotate(-9.24611 689.438 680.573)" fill="black"/>
<path d="M700.945 666.726L592.311 693.871C589.068 684.822 581.123 664.514 575.286 655.666C569.449 646.819 654.465 641.926 697.703 640.586L700.945 666.726Z" fill="#E6E6E6"/>
<defs>
<clipPath id="clip0_1636_403">
<rect width="72.04" height="71.86" fill="white" transform="translate(585 365)"/>
</clipPath>
</defs>
</svg>
