  <svg
            width="970"
            height="835"
            viewBox="0 0 970 835"
            fill="none"
            xmlns="http://www.w3.org/2000/svg">
            <path
              d="M575.801 269.566C567.279 264.939 565.673 245.362 566.531 234.547C561.724 248.623 552.109 277.084 552.109 278.32C552.109 279.865 568.074 296.345 573.739 296.86C579.403 297.375 613.907 295.315 615.967 294.285C617.615 293.461 621.46 276.432 623.177 268.021L610.302 243.817C602.75 253.258 593.823 279.35 575.801 269.566Z"
              fill="#004BC8"
            />
            <ellipse cx="515.028" cy="400.89" rx="140.075" ry="144.195" fill="#004BC8" />
            <rect x="490.312" y="61" width="76.2174" height="284.27" rx="37" fill="#004BC8" />
            <rect
              x="323.457"
              y="146.242"
              width="76.2174"
              height="284.27"
              rx="37"
              transform="rotate(-23.7149 323.457 146.242)"
              fill="#004BC8"
            />
            <rect
              x="246"
              y="305.711"
              width="76.2174"
              height="284.27"
              rx="37"
              transform="rotate(-49.4013 246 305.711)"
              fill="#004BC8"
            />
            <rect
              x="676.734"
              y="127.945"
              width="76.2174"
              height="284.27"
              rx="37"
              transform="rotate(30 676.734 127.945)"
              fill="#004BC8"
            />
            <rect
              x="776.223"
              y="297.891"
              width="76.2174"
              height="284.27"
              rx="37"
              transform="rotate(75 776.223 297.891)"
              fill="#004BC8"
            />
            <path
              d="M382.164 328.73C382.524 329.052 383.024 329.025 383.473 329.066C384.049 329.12 384.594 329.181 385.175 329.181C386.39 329.181 387.599 329.271 388.812 329.302C389.486 329.32 390.194 329.35 390.854 329.188C391.547 329.017 392.227 328.779 392.907 328.566C393.442 328.398 393.93 328.36 394.424 328.072C394.77 327.87 395.128 327.706 395.439 327.45C395.848 327.113 396.309 327.028 396.798 326.831C397.738 326.453 398.383 325.937 399.001 325.154C399.227 324.868 399.272 324.736 399.369 324.406C399.448 324.138 399.686 323.948 399.802 323.695C399.917 323.444 399.911 323.085 400.088 322.872C400.676 322.167 401.119 321.188 401.251 320.269C401.403 319.2 401.066 318.214 400.911 317.179C400.831 316.65 400.832 316.127 400.739 315.595C400.669 315.196 400.703 314.778 400.703 314.375"
              stroke="#004BC8"
              stroke-width="3"
              stroke-linecap="round"
            />
            <path
              d="M398.453 313.344C398.588 313.361 398.667 313.639 398.71 313.744C398.824 314.025 399.071 314.272 399.146 314.567C399.36 315.397 399.225 316.377 399.225 317.228C399.225 317.805 399.225 318.382 399.225 318.958C399.225 319.855 398.727 320.706 398.435 321.533C398.216 322.152 397.872 322.727 397.648 323.35C397.58 323.538 397.457 323.869 397.326 324.026C397.253 324.113 397.131 324.362 397.072 324.48C396.893 324.839 396.548 325.123 396.393 325.474C395.711 327.021 394.236 328.13 393.16 329.34C392.959 329.566 392.339 329.69 392.076 329.791C391.475 330.023 390.885 330.158 390.259 330.299C389.191 330.539 388.13 330.813 387.059 331.046"
              stroke="#004BC8"
              stroke-width="3"
              stroke-linecap="round"
            />
            <path
              d="M390.017 330.917C391.685 330.917 393.356 330.986 395.013 330.767C395.41 330.715 394.375 331.463 394.251 331.532C393.456 331.981 392.517 332.246 391.655 332.526C390.367 332.946 389.057 333.328 387.728 333.599C387.689 333.607 386.962 333.803 386.849 333.671C386.797 333.611 387.154 333.269 387.185 333.231C387.482 332.868 387.955 332.378 387.875 331.861C387.82 331.502 387.173 331.174 386.884 331.017C386.286 330.693 385.619 330.533 384.996 330.273"
              stroke="#004BC8"
              stroke-width="3"
              stroke-linecap="round"
            />
            <path
              d="M382.164 327.957C383.245 327.848 384.13 328.614 385.193 328.669C386.079 328.714 386.914 328.859 387.8 328.859C388.758 328.859 389.901 329.03 390.819 328.73C391.228 328.596 391.545 328.315 391.917 328.15C392.201 328.024 392.546 327.947 392.818 327.796C393.34 327.506 394.033 327.509 394.552 327.156C394.714 327.046 394.854 326.901 395.014 326.795C395.148 326.705 395.23 326.566 395.346 326.455C395.45 326.356 395.592 326.33 395.697 326.234C396.313 325.664 396.819 324.941 397.313 324.267C397.49 324.025 397.543 323.632 397.628 323.351C397.844 322.64 398.082 321.972 398.229 321.241C398.437 320.201 398.604 319.112 398.644 318.058C398.682 317.021 398.925 316.003 398.551 314.986C398.39 314.55 398.346 314.152 398.114 313.731C397.936 313.407 397.742 312.872 397.742 312.508"
              stroke="#004BC8"
              stroke-width="3"
              stroke-linecap="round"
            />
            <path
              d="M655.106 312.312C652.549 315.509 652.474 324.558 655.392 327.476C656.641 328.724 657.459 328.424 659.054 328.849C663.173 329.948 666.396 333.427 670.813 333.427C672.79 333.427 676.293 332.767 677.25 330.852"
              stroke="#004BC8"
              stroke-width="3"
              stroke-linecap="round"
            />
            <path
              d="M652.016 335.488C650.935 334.286 650.655 332.298 651.101 330.739C652.047 327.428 651.501 323.639 651.501 320.21C651.501 318.977 651.197 322.657 650.986 323.872C650.402 327.248 649.519 330.558 649.442 334C649.388 336.399 649.442 340.333 649.442 335.373C649.442 332.387 649.762 329.824 650.243 326.905C650.638 324.5 648.605 326.429 648.011 327.363C647.436 328.267 645.258 331.381 645.322 332.398C645.459 334.602 653.476 329.752 654.477 330.452C654.478 330.453 653.067 330.748 652.245 329.823C650.395 327.742 655.086 331.167 655.507 331.883C656.241 333.131 657.926 331.605 657.681 331.482C656.478 330.881 655.327 331.005 654.076 330.224C653.427 329.818 653.238 327.859 653.447 328.278C654.111 329.607 654.814 330.942 655.507 332.398C656.714 334.933 659.079 334.09 660.771 332.398"
              stroke="#004BC8"
              stroke-width="3"
              stroke-linecap="round"
            />
            <path
              d="M641.199 329.305C644.316 330.839 653.648 335.441 650.669 333.653C650.093 333.308 649.295 332.563 648.666 332.423C647.046 332.063 649.954 331.635 649.954 330.335"
              stroke="#004BC8"
              stroke-width="3"
              stroke-linecap="round"
            />
            <path
              d="M648.41 330.852C648.747 333.38 649.571 336.458 651.214 338.462C651.592 338.923 654.402 341.993 652.53 340.121"
              stroke="#004BC8"
              stroke-width="3"
              stroke-linecap="round"
            />
            <path
              d="M473.5 259.532C457.954 264.314 444.181 240.152 439.749 229.103L426.453 260.619L449.977 274.203L497.024 264.966L499.581 205.195H491.399C491.569 210.991 491.91 222.148 491.91 220.41C491.91 218.236 492.933 253.555 473.5 259.532Z"
              fill="#004BC8"
            />
            <path
              d="M656.704 314.888L669.009 293.773C656.993 300.812 632.913 315.094 632.501 315.918C632.089 316.742 634.046 332.397 635.076 340.122L691.209 328.792L693.213 320.553C690.981 321.411 682.041 323.745 668.033 326.217C654.026 328.689 654.644 319.694 656.704 314.888Z"
              fill="#004BC8"
            />
            <path
              d="M673.131 405.011C660.771 408.307 654.248 422.005 652.532 428.7H644.292L637.082 401.921L693.215 388.531L696.82 398.316C694.073 399.003 685.49 401.715 673.131 405.011Z"
              fill="#004BC8"
            />
            <path
              d="M372.896 417.367C371.248 409.951 349.722 393.335 339.422 385.953H394.01L407.915 417.367C399.675 427.838 382.886 447.957 381.65 444.661C380.106 440.541 374.956 426.637 372.896 417.367Z"
              fill="#004BC8"
            />
            <circle
              cx="410.432"
              cy="637.164"
              r="71.6269"
              transform="rotate(-15 410.432 637.164)"
              fill="black"
            />
            <rect
              x="410.25"
              y="450.102"
              width="45.4408"
              height="146.258"
              rx="22.7204"
              transform="rotate(4.2582 410.25 450.102)"
              fill="black"
            />
            <rect
              x="277.883"
              y="509.109"
              width="45.4407"
              height="145.569"
              rx="22.7204"
              transform="rotate(-37.3968 277.883 509.109)"
              fill="black"
            />
            <path
              d="M393.179 566.833C385.761 570.096 378.468 565.99 376.207 563.008L362.218 564.364L383.038 591.477C394.784 588.197 418.627 581.462 420.035 580.766C421.443 580.07 416.702 565.845 414.155 558.82L403.101 545.835C402.446 551.326 400.597 563.569 393.179 566.833Z"
              fill="black"
            />
            <path
              d="M344.29 609.035C347.094 602.638 344.056 595.276 341.291 591.898C347.49 590.237 359.929 587.063 360.088 587.658C360.288 588.402 363.776 601.421 363.132 601.993C362.616 602.45 358.755 606.488 356.889 608.45C351.236 611.16 341.32 615.81 344.29 609.035Z"
              fill="black"
            />
            <path
              d="M448.904 575.426C446.699 573.147 446.728 566.308 447.476 562.653L429.535 579.021C434.13 583.77 443.711 593.243 445.279 593.142C446.846 593.041 453.515 586.683 456.431 584.174C454.684 582.117 451.11 577.706 448.904 575.426Z"
              fill="black"
            />
            <ellipse cx="451.833" cy="355" rx="26.8333" ry="42" fill="white" />
            <ellipse cx="503.165" cy="355" rx="26.8333" ry="42" fill="white" />
            <ellipse cx="469.333" cy="356.167" rx="9.33333" ry="15.1667" fill="black" />
            <ellipse cx="469.333" cy="356.167" rx="9.33333" ry="15.1667" fill="black" />
            <ellipse cx="469.333" cy="356.167" rx="9.33333" ry="15.1667" fill="black" />
            <ellipse cx="520.665" cy="356.167" rx="9.33333" ry="15.1667" fill="black" />
            <ellipse cx="520.665" cy="356.167" rx="9.33333" ry="15.1667" fill="black" />
            <ellipse cx="520.665" cy="356.167" rx="9.33333" ry="15.1667" fill="black" />
            <ellipse
              cx="381.396"
              cy="638.694"
              rx="14.1452"
              ry="22.4873"
              transform="rotate(-20.5049 381.396 638.694)"
              fill="white"
            />
            <ellipse
              cx="407.212"
              cy="629.037"
              rx="14.1452"
              ry="22.4873"
              transform="rotate(-20.5049 407.212 629.037)"
              fill="white"
            />
            <ellipse
              cx="374.344"
              cy="646.752"
              rx="4.71508"
              ry="7.97936"
              transform="rotate(-20.5049 374.344 646.752)"
              fill="black"
            />
            <ellipse
              cx="374.344"
              cy="646.752"
              rx="4.71508"
              ry="7.97936"
              transform="rotate(-20.5049 374.344 646.752)"
              fill="black"
            />
            <ellipse
              cx="374.344"
              cy="646.752"
              rx="4.71508"
              ry="7.97936"
              transform="rotate(-20.5049 374.344 646.752)"
              fill="black"
            />
            <ellipse
              cx="400.5"
              cy="636.969"
              rx="5.07778"
              ry="7.97936"
              transform="rotate(-20.5049 400.5 636.969)"
              fill="black"
            />
            <ellipse
              cx="400.5"
              cy="636.969"
              rx="5.07778"
              ry="7.97936"
              transform="rotate(-20.5049 400.5 636.969)"
              fill="black"
            />
            <ellipse
              cx="400.5"
              cy="636.969"
              rx="5.07778"
              ry="7.97936"
              transform="rotate(-20.5049 400.5 636.969)"
              fill="black"
            />
            <g clip-path="url(#clip0_431_47)">
              <path
                d="M181.254 524.191L224.031 515L181.22 502.768L246 470.583L172.063 483.123L184.5 453.5L155.971 467.952L167.417 415.917L134.173 459.684L123 422.75L110.734 459.684L78.5833 392L89.38 467.952L33.5858 440.243L72.6725 482.849L18.6892 475.025L63.8233 502.666L34.1667 515L63.755 524.259L0 559.417L72.6725 543.803L51.25 579.917L89.1408 559.041L69.495 638L110.666 567.275L123 627.75L134.173 567.309L174.25 624.333L155.629 559.041L200.968 581.215L172.063 544.144L240.294 555.146L181.254 524.191Z"
                fill="black"
              />
            </g>
            <rect x="695" y="582" width="202" height="69" rx="34.5" fill="#E6E6E6" />
            <rect
              width="231.397"
              height="73.2156"
              rx="36.6078"
              transform="matrix(0.280426 0.959876 -0.95952 0.281642 867.82 429)"
              fill="#E6E6E6"
            />
            <rect
              x="716.293"
              y="747.312"
              width="162.013"
              height="66.3603"
              rx="33.1802"
              fill="#E6E6E6"
            />
            <rect
              x="687.766"
              y="693.359"
              width="201.305"
              height="66.3603"
              rx="33.1802"
              fill="#E6E6E6"
            />
            <rect
              x="677"
              y="638.875"
              width="201.305"
              height="66.3603"
              rx="33.1802"
              fill="#E6E6E6"
            />
            <ellipse cx="855.5" cy="698.5" rx="114.5" ry="115.5" fill="#E6E6E6" />
            <path
              d="M965.491 673.027C965.491 638.904 910.961 522.138 876.692 458.266C870.772 548.153 839.423 713.019 840.715 714.742C842.006 716.464 932.125 733.849 943.966 753.765C966.214 734.388 965.491 711.243 965.491 673.027Z"
              fill="#E6E6E6"
            />
            <path
              d="M833.361 572.643C835.514 586.207 813.445 583.139 800.527 583.139L813.445 593.635L854.083 590.136V574.258L826.902 546C828.068 549.768 831.208 559.079 833.361 572.643Z"
              fill="#E6E6E6"
            />
            <ellipse
              cx="827.751"
              cy="649.59"
              rx="25.8349"
              ry="40.3671"
              transform="rotate(-9.24611 827.751 649.59)"
              fill="white"
            />
            <ellipse
              cx="875.556"
              cy="641.809"
              rx="25.8349"
              ry="40.3671"
              transform="rotate(-9.24611 875.556 641.809)"
              fill="white"
            />
            <ellipse
              cx="845.612"
              cy="645.877"
              rx="8.88076"
              ry="14.5322"
              transform="rotate(-9.24611 845.612 645.877)"
              fill="black"
            />
            <ellipse
              cx="845.612"
              cy="645.877"
              rx="8.88076"
              ry="14.5322"
              transform="rotate(-9.24611 845.612 645.877)"
              fill="black"
            />
            <ellipse
              cx="845.612"
              cy="645.877"
              rx="8.88076"
              ry="14.5322"
              transform="rotate(-9.24611 845.612 645.877)"
              fill="black"
            />
            <ellipse
              cx="892.436"
              cy="634.573"
              rx="8.88076"
              ry="14.5322"
              transform="rotate(-9.24611 892.436 634.573)"
              fill="black"
            />
            <ellipse
              cx="892.436"
              cy="634.573"
              rx="8.88076"
              ry="14.5322"
              transform="rotate(-9.24611 892.436 634.573)"
              fill="black"
            />
            <ellipse
              cx="892.436"
              cy="634.573"
              rx="8.88076"
              ry="14.5322"
              transform="rotate(-9.24611 892.436 634.573)"
              fill="black"
            />
            <path
              d="M903.945 620.726L795.311 647.871C792.068 638.822 784.123 618.514 778.286 609.666C772.449 600.819 857.465 595.926 900.703 594.586L903.945 620.726Z"
              fill="#E6E6E6"
            />
            <path
              d="M668.923 68.3594C708.494 32.5018 790.202 -26.1201 800.462 26.2532C810.721 78.6265 750.074 118.644 734.572 108.322C712.161 95.4675 711.584 51.7518 853.889 49.2072"
              stroke="black"
              stroke-width="10"
            />
            <path
              d="M67.9994 220.878L104.379 96L288.409 149.612L261.677 241.374L218.915 264.843L67.9994 220.878Z"
              fill="#E6E6E6"
            />
            <path
              d="M233.09 230.304L261.398 241.494L219.819 264.313L233.09 230.304Z"
              fill="#656565"
            />
            <path
              d="M126.031 158.094L132.049 159.707L129.512 169.173L138.099 171.474L140.636 162.008L146.654 163.62L139.932 188.705L133.914 187.093L136.65 176.883L128.063 174.582L125.327 184.792L119.309 183.18L126.031 158.094ZM167.77 175.003L154.551 171.461L153.328 176.025L165.913 179.361L164.509 184.602L151.933 181.232L150.692 185.863L158.704 188.01C161.172 188.672 162.536 188.856 164.179 189.079L162.775 194.319C161.188 194.292 158.423 193.66 156.496 193.144L143.344 189.62L150.066 164.535L169.201 169.662L167.77 175.003ZM176.378 198.471L165.729 195.618L172.45 170.532L178.468 172.145L173.205 191.787L178.614 193.236C181.116 193.907 182.446 194.082 184.089 194.305L182.658 199.646C181.071 199.62 178.305 198.987 176.378 198.471ZM195.428 203.575L184.778 200.722L191.5 175.637L197.518 177.249L192.254 196.891L197.664 198.341C200.165 199.011 201.495 199.186 203.139 199.409L201.707 204.751C200.12 204.724 197.355 204.092 195.428 203.575ZM216.451 209.897C208.878 207.868 205.833 201.653 208.007 193.539C210.181 185.425 215.926 181.566 223.499 183.595C231.139 185.642 234.252 191.875 232.078 199.989C229.904 208.103 224.091 211.944 216.451 209.897ZM218.059 204.168C221.608 205.119 224.779 202.889 225.992 198.358C227.143 194.065 225.508 190.293 222.026 189.36C218.544 188.427 215.243 190.876 214.092 195.17C212.878 199.7 214.509 203.217 218.059 204.168Z"
              fill="black"
            />
            <path
              d="M511 639H626L511 668L626 674L511 711L626 726C588.667 743.667 515.8 778.6 523 777C530.2 775.4 604 764.333 640 759L511 830L659 806"
              stroke="#D14A00"
              stroke-width="10"
              stroke-linecap="round"
            />
            <rect x="262" y="723" width="108" height="57" rx="28.5" fill="#D9D9D9" />
            <path d="M331 705L343.99 732.75H318.01L331 705Z" fill="#D9D9D9" />
            <path
              d="M292.08 751.648C292.296 751.648 292.536 751.624 292.8 751.528C293.04 751.48 293.28 751.36 293.496 751.168C293.688 751.024 293.88 750.784 294.024 750.496C294.168 750.232 294.24 749.896 294.24 749.464C294.24 749.08 294.168 748.744 294.024 748.456C293.88 748.192 293.688 747.976 293.496 747.784C293.28 747.64 293.04 747.52 292.8 747.424C292.536 747.352 292.296 747.304 292.08 747.304C291.84 747.304 291.576 747.352 291.336 747.424C291.072 747.52 290.832 747.64 290.64 747.784C290.424 747.976 290.256 748.192 290.136 748.456C289.992 748.744 289.92 749.08 289.92 749.464C289.92 749.896 289.992 750.232 290.136 750.496C290.256 750.784 290.424 751.024 290.64 751.168C290.832 751.36 291.072 751.48 291.336 751.528C291.576 751.624 291.84 751.648 292.08 751.648ZM292.08 755.608C290.232 755.608 288.744 755.104 287.592 754.048C286.416 753.04 285.84 751.504 285.84 749.464C285.84 748.504 285.984 747.616 286.296 746.848C286.584 746.104 287.016 745.456 287.568 744.928C288.12 744.4 288.792 744.016 289.56 743.728C290.304 743.464 291.144 743.32 292.08 743.32C292.992 743.32 293.832 743.464 294.6 743.728C295.344 744.016 295.992 744.4 296.568 744.928C297.096 745.456 297.528 746.104 297.864 746.848C298.152 747.616 298.32 748.504 298.32 749.464C298.32 751.504 297.72 753.04 296.568 754.048C295.392 755.104 293.904 755.608 292.08 755.608ZM306.936 747.352V751.504C306.744 751.504 306.504 751.528 306.24 751.528C305.952 751.552 305.664 751.576 305.4 751.624C305.112 751.672 304.848 751.696 304.608 751.744C304.44 751.792 304.32 751.84 304.224 751.888V757.048H300.024V743.56H304.224V747.904C304.488 747.736 304.8 747.616 305.208 747.496C305.64 747.4 306.216 747.352 306.936 747.352ZM291.096 756.472V759.232H304.464V762.832H286.896V756.472H291.096ZM313.073 743.632V751.048H318.065C318.377 751.048 318.689 751.048 319.025 751.024C319.312 751.024 319.625 751.024 319.937 751C320.225 751 320.489 750.976 320.777 750.928V753.784C320.489 753.856 320.225 753.904 319.937 753.928C319.625 753.976 319.312 754 319.001 754C318.665 754.024 318.329 754.024 317.993 754.024C317.633 754.048 317.273 754.048 316.937 754.048H308.633V743.632H313.073ZM322.553 754.408V750.232C322.433 750.256 322.312 750.256 322.193 750.256C321.857 750.304 321.497 750.328 321.161 750.328C320.801 750.352 320.465 750.352 320.129 750.352C319.793 750.376 319.481 750.376 319.241 750.376H317.273V747.496H321.497C321.809 747.496 322.097 747.496 322.385 747.472H322.553V746.776C322.145 746.848 321.665 746.872 321.137 746.872C320.369 746.92 319.745 746.92 319.241 746.92H317.273V744.04H321.497C321.785 744.04 322.073 744.04 322.361 744.016H322.553V743.56H326.753V754.408H322.553ZM318.617 760.384C319.385 760.384 320.009 760.36 320.513 760.312C320.993 760.264 321.377 760.192 321.665 760.096C321.953 760 322.145 759.88 322.265 759.736C322.361 759.592 322.409 759.424 322.409 759.232C322.409 759.064 322.361 758.896 322.265 758.752C322.145 758.608 321.953 758.488 321.665 758.392C321.377 758.296 320.993 758.224 320.513 758.152C320.009 758.104 319.385 758.08 318.617 758.08C317.825 758.08 317.177 758.104 316.697 758.152C316.193 758.224 315.809 758.296 315.545 758.392C315.257 758.488 315.065 758.608 314.969 758.752C314.873 758.896 314.825 759.064 314.825 759.232C314.825 759.424 314.873 759.592 314.969 759.736C315.065 759.88 315.257 760 315.545 760.096C315.809 760.192 316.193 760.264 316.697 760.312C317.177 760.36 317.825 760.384 318.617 760.384ZM318.617 763.6C316.961 763.6 315.593 763.48 314.513 763.288C313.409 763.072 312.521 762.784 311.897 762.4C311.225 762.016 310.769 761.56 310.529 761.008C310.241 760.48 310.121 759.904 310.121 759.232C310.121 758.632 310.241 758.056 310.529 757.528C310.793 757 311.249 756.544 311.921 756.136C312.569 755.752 313.433 755.44 314.537 755.2C315.617 754.984 316.985 754.864 318.617 754.864C320.225 754.864 321.569 754.984 322.673 755.2C323.753 755.44 324.617 755.752 325.289 756.136C325.937 756.544 326.417 757 326.705 757.528C326.969 758.056 327.113 758.632 327.113 759.232C327.113 759.904 326.969 760.48 326.705 761.008C326.417 761.56 325.961 762.016 325.313 762.4C324.665 762.784 323.801 763.072 322.721 763.288C321.617 763.48 320.249 763.6 318.617 763.6ZM332.467 758.344H336.667V762.568H332.467V758.344ZM336.331 749.392C336.331 748.504 335.659 747.76 334.555 747.856C333.451 747.952 332.923 748.576 332.635 749.704L328.915 748.576C329.659 745.6 331.555 743.896 334.171 743.728C337.675 743.488 339.739 745.192 340.363 747.472C341.083 750.088 340.267 751.96 338.395 753.76C337.363 754.744 336.763 755.512 336.643 756.952H332.371V756.376C332.371 755.152 332.875 754 333.787 753.112C335.803 751.168 336.331 750.496 336.331 749.392Z"
              fill="black"
            />
            <g clip-path="url(#clip1_431_47)">
              <path d="M854.29 397.08L903.04 350L831 385.88L854.29 397.08Z" fill="black" />
              <path d="M903.04 350L856.18 398.86L867.18 421.86L903.04 350Z" fill="black" />
            </g>
            <defs>
              <clipPath id="clip0_431_47">
                <rect width="246" height="246" fill="white" transform="translate(0 392)" />
              </clipPath>
              <clipPath id="clip1_431_47">
                <rect width="72.04" height="71.86" fill="white" transform="translate(831 350)" />
              </clipPath>
            </defs>
          </svg>