<svg
          width="127"
          height="30"
          viewBox="0 0 127 38"
          fill="none"
          xmlns="http://www.w3.org/2000/svg">
          <path
            d="M0.75 0.769998H6.98V10.57H15.87V0.769998H22.1V26.74H15.87V16.17H6.98V26.74H0.75V0.769998ZM45.4428 6.3H31.7578V11.025L44.7778 10.99V16.415H31.7578V21.21H40.0528C42.6078 21.21 43.9728 21.035 45.6178 20.825V26.25C44.0778 26.635 41.2428 26.74 39.2478 26.74H25.6328V0.769998H45.4428V6.3ZM62.5266 16.66V26.74H56.1566V16.66L47.2316 0.769998H54.4416L59.3066 10.64L64.1716 0.769998H71.3816L62.5266 16.66ZM72.7177 20.72H79.6127V24.78L78.9827 29.68H74.4677L74.6427 26.705H72.7177V20.72ZM84.9004 0.769998H91.1304V10.57H100.02V0.769998H106.25V26.74H100.02V16.17H91.1304V26.74H84.9004V0.769998ZM109.783 0.769998H116.013V26.74H109.783V0.769998ZM120.364 0.139998H126.489V17.395H120.364V0.139998ZM120.329 20.51H126.454V27.37H120.329V20.51Z"
            fill="black"
          />
        </svg>