<svg width="207" height="295" viewBox="0 0 207 295" fill="none" xmlns="http://www.w3.org/2000/svg">
<rect width="206.342" height="288.375" rx="15" fill="#F8F9FC"/>
<rect width="63.5504" height="39.3071" rx="5" transform="matrix(0.97862 -0.205677 0.207015 0.978338 102.523 167.523)" fill="#004BC8"/>
<mask id="mask0_1385_277" style="mask-type:alpha" maskUnits="userSpaceOnUse" x="102" y="154" width="71" height="52">
<rect width="63.5504" height="39.3071" rx="2" transform="matrix(0.97862 -0.205677 0.207015 0.978338 102.527 167.523)" fill="#D9D9D9"/>
</mask>
<g mask="url(#mask0_1385_277)">
<rect width="82.5691" height="16.1853" transform="matrix(0.97862 -0.205677 0.207015 0.978338 92.8711 166.719)" fill="black"/>
</g>
<mask id="mask1_1385_277" style="mask-type:alpha" maskUnits="userSpaceOnUse" x="102" y="154" width="71" height="29">
<mask id="mask2_1385_277" style="mask-type:alpha" maskUnits="userSpaceOnUse" x="102" y="154" width="71" height="52">
<rect width="63.5504" height="39.3071" rx="2" transform="matrix(0.97862 -0.205677 0.207015 0.978338 102.531 167.531)" fill="#D9D9D9"/>
</mask>
<g mask="url(#mask2_1385_277)">
<rect width="82.5691" height="16.1853" transform="matrix(0.97862 -0.205677 0.207015 0.978338 92.875 166.727)" fill="black"/>
</g>
</mask>
<g mask="url(#mask1_1385_277)">
<path d="M91.8008 168.375L115.406 163.414L111.135 181.323L95.2471 184.662L91.8008 168.375Z" fill="#D9D9D9"/>
<path d="M127.885 160.793L144 157.406L139.729 175.315L123.841 178.654L127.885 160.793Z" fill="#D9D9D9"/>
<path d="M156.123 153.043L172.238 149.656L167.968 167.565L152.079 170.904L156.123 153.043Z" fill="#D9D9D9"/>
</g>
<rect width="63.5013" height="13.4211" rx="5" transform="matrix(0.744898 -0.666292 0.669588 0.74353 94.9258 158.492)" fill="black"/>
<mask id="mask3_1385_277" style="mask-type:alpha" maskUnits="userSpaceOnUse" x="95" y="117" width="64" height="58">
<mask id="mask4_1385_277" style="mask-type:alpha" maskUnits="userSpaceOnUse" x="95" y="117" width="73" height="70">
<rect width="63.5013" height="39.3376" rx="2" transform="matrix(0.744898 -0.666292 0.669588 0.74353 94.9141 158.492)" fill="#D9D9D9"/>
</mask>
<g mask="url(#mask4_1385_277)">
<rect width="82.5053" height="16.1979" transform="matrix(0.744898 -0.666292 0.669588 0.74353 86.1484 162.602)" fill="black"/>
</g>
</mask>
<g mask="url(#mask3_1385_277)">
<path d="M86.0391 164.555L103.993 148.495L109.279 166.133L97.1948 176.942L86.0391 164.555Z" fill="#D9D9D9"/>
<path d="M113.498 140.006L125.755 129.042L131.041 146.68L118.957 157.489L113.498 140.006Z" fill="#D9D9D9"/>
<path d="M135.248 120.56L147.505 109.597L152.791 127.235L140.707 138.044L135.248 120.56Z" fill="#D9D9D9"/>
</g>
<ellipse cx="6.03033" cy="6.01168" rx="6.03033" ry="6.01168" transform="matrix(0.97862 -0.205677 0.207015 0.978338 98.8164 161.227)" fill="#FF6E46"/>
<rect width="63.5504" height="4.62437" transform="matrix(0.97862 -0.205677 0.207015 0.978338 105.199 180.18)" fill="#11408E"/>
<path fill-rule="evenodd" clip-rule="evenodd" d="M206.045 245.328V274.167C206.045 282.451 199.329 289.167 191.045 289.167H15C6.71574 289.167 0 282.451 0 274.167V245.328H206.045Z" fill="black"/>
<path d="M45.0079 153.211C40.176 152.421 36.409 150.199 33.7069 146.545C31.0048 142.891 30.0568 138.738 30.8629 134.084C31.6576 129.497 33.95 125.89 37.7401 123.264C41.5303 120.637 45.8413 119.719 50.6731 120.509C52.178 120.755 53.5377 121.183 54.7521 121.791C55.9664 122.4 56.9991 123.116 57.8502 123.938L65.8471 77.7772L90.0022 81.7266C92.7275 82.1722 94.5546 84.7392 94.0832 87.4601L92.9231 94.157C92.4517 96.8779 89.8603 98.7224 87.1351 98.2768L72.4004 95.8677L64.818 139.636C64.0119 144.289 61.6821 147.907 57.8287 150.489C53.9753 153.071 49.7017 153.978 45.0079 153.211Z" fill="black"/>
<path d="M136.412 98.4066C134.139 100.394 130.702 100.414 128.447 98.4066C123.419 93.7701 119.248 89.7777 115.935 86.4291C112.622 83.0806 109.979 80.0481 108.005 77.3318C106.032 74.6155 104.657 72.1451 103.882 69.9205C103.106 67.696 102.719 65.4597 102.719 63.2117C102.719 58.5753 104.281 54.6765 107.406 51.5153C110.531 48.354 114.396 46.7734 119.001 46.7734C121.633 46.7734 124.088 47.3471 126.367 48.4945C128.646 49.6419 130.655 51.3162 132.394 53.5174C134.368 51.2226 136.447 49.5249 138.632 48.4243C140.817 47.3237 143.202 46.7734 145.787 46.7734C150.439 46.7734 154.339 48.354 157.487 51.5153C160.636 54.6765 162.21 58.5753 162.21 63.2117C162.21 65.4597 161.811 67.6843 161.012 69.8854C160.213 72.0866 158.838 74.5453 156.888 77.2616C154.938 79.9779 152.307 83.022 148.994 86.394C145.681 89.7659 141.487 93.7701 136.412 98.4066Z" fill="#FF6E46"/>
<path d="M85.5221 273.932C84.2441 274.292 82.5161 274.31 80.9141 273.86C80.0141 273.554 78.5561 272.708 77.7641 271.826L79.8881 269.522C81.6881 270.782 83.0921 271.322 84.1181 271.07C85.0541 270.836 85.2521 269.756 84.4421 269.234C83.5241 268.604 82.6061 268.406 80.9861 267.542C78.7001 266.264 78.1241 264.338 78.9161 262.79C79.7261 261.08 81.4721 260.18 83.5241 260.18C85.5581 260.18 87.2501 260.936 88.4201 262.196L86.3321 264.518C85.4501 263.762 84.1361 263.222 83.2721 263.222C82.7681 263.222 82.2821 263.51 82.2821 264.104C82.2821 264.68 82.9841 265.13 84.9281 266.084C87.3761 267.2 88.2941 268.316 88.4741 269.666C88.7981 271.592 87.7721 273.302 85.5221 273.932ZM89.7981 273.86V260.504H92.9481V264.428C93.3981 264.05 94.2801 263.762 95.1441 263.69H95.3781C97.7901 263.69 99.0681 265.436 99.0681 267.812V273.86H95.9181V268.982C95.9181 267.128 95.3601 266.642 94.4421 266.732C93.8301 266.786 93.3441 267.02 92.9481 267.434V273.86H89.7981ZM107.542 273.86V272.996C106.948 273.608 106.012 273.986 104.968 273.986C102.34 273.986 100.216 272.366 100.306 268.856C100.414 265.31 102.646 263.654 105.094 263.762C106.138 263.816 107.002 264.284 107.542 264.86V263.96H110.656V273.86H107.542ZM105.346 271.232C106.408 271.232 107.218 270.728 107.434 269.63C107.452 269.558 107.47 269.216 107.47 269.144C107.47 267.452 106.57 266.516 105.418 266.516C104.446 266.462 103.42 267.236 103.42 268.856C103.42 270.422 104.248 271.232 105.346 271.232ZM117.774 263.87V266.84H117.486C116.748 266.84 115.974 267.038 115.326 267.506V273.86H112.122V263.96H115.326V264.68C115.992 264.176 116.586 263.96 117.45 263.87H117.774ZM118.393 268.964C118.393 265.652 120.409 263.6 123.325 263.6C126.313 263.6 128.041 265.796 128.041 269L127.969 269.99H121.471C121.543 270.908 122.425 271.412 123.451 271.412C124.387 271.412 125.035 271.034 125.611 270.332L127.645 272.096C126.583 273.554 125.143 274.22 123.325 274.22C120.427 274.22 118.339 272.204 118.393 268.964ZM124.999 267.578C124.873 266.75 124.153 266.354 123.343 266.354C122.443 266.354 121.759 266.804 121.651 267.578H124.999Z" fill="white"/>
</svg>
