<svg width="234" height="329" viewBox="0 0 234 329" fill="none" xmlns="http://www.w3.org/2000/svg">
<rect width="233.022" height="326.767" rx="23" fill="white"/>
<path d="M96.9168 110.734C94.3519 112.984 90.4669 113.006 87.9218 110.734C82.2436 105.48 77.5338 100.956 73.7925 97.1617C70.0512 93.3674 67.0662 89.9313 64.8373 86.8533C62.6085 83.7754 61.0562 80.9761 60.1806 78.4553C59.305 75.9346 58.8672 73.4006 58.8672 70.8534C58.8672 65.5997 60.6317 61.1818 64.1607 57.5997C67.6897 54.0176 72.0545 52.2266 77.2552 52.2266C80.227 52.2266 82.9998 52.8766 85.5736 54.1768C88.1474 55.477 90.416 57.3741 92.3795 59.8683C94.6084 57.268 96.9566 55.3443 99.4243 54.0972C101.892 52.8501 104.585 52.2266 107.504 52.2266C112.758 52.2266 117.162 54.0176 120.718 57.5997C124.273 61.1818 126.051 65.5997 126.051 70.8534C126.051 73.4006 125.6 75.9213 124.698 78.4155C123.796 80.9097 122.243 83.6958 120.041 86.7737C117.839 89.8517 114.867 93.3011 111.126 97.1219C107.384 100.943 102.648 105.48 96.9168 110.734Z" fill="black"/>
<path d="M54.9793 223.792C49.5677 223.792 45.0458 221.976 41.4134 218.343C37.781 214.711 35.9648 210.189 35.9648 204.778C35.9648 199.443 37.781 194.941 41.4134 191.27C45.0458 187.599 49.5677 185.763 54.9793 185.763C56.6648 185.763 58.2262 185.995 59.6637 186.459C61.1011 186.923 62.3609 187.541 63.443 188.314V144.633C63.443 139.11 67.9202 134.633 73.443 134.633H91.0226C93.784 134.633 96.0226 136.871 96.0226 139.633V148.879C96.0226 151.641 93.784 153.879 91.0226 153.879H73.9937V204.778C73.9937 210.189 72.1389 214.711 68.4292 218.343C64.7195 221.976 60.2362 223.792 54.9793 223.792Z" fill="black"/>
<path d="M125.94 109.245L132.357 122.524H143.943L137.526 109.245H145.368L151.785 122.524H163.46L156.954 109.245H164.886L171.302 122.524H182.888L176.471 109.245H184.581C186.807 109.245 188.73 110.07 190.35 111.72C191.97 113.37 192.78 115.278 192.78 117.444V162.182C192.78 164.324 191.97 166.211 190.35 167.843C188.73 169.476 186.807 170.292 184.581 170.292H125.762C123.561 170.292 121.659 169.52 120.056 167.975C118.454 166.43 117.652 164.559 117.652 162.36V117.444C117.652 115.278 118.469 113.355 120.101 111.675C121.733 109.996 123.68 109.186 125.94 109.245Z" fill="black"/>
<path fill-rule="evenodd" clip-rule="evenodd" d="M232.688 278V304.675C232.688 317.377 222.39 327.675 209.688 327.675H23C10.2974 327.675 0 317.377 0 304.675V278H232.688Z" fill="black"/>
<path d="M95.1382 310.296C93.5762 310.736 91.4642 310.758 89.5062 310.208C88.4062 309.834 86.6242 308.8 85.6562 307.722L88.2522 304.906C90.4522 306.446 92.1682 307.106 93.4222 306.798C94.5662 306.512 94.8082 305.192 93.8182 304.554C92.6962 303.784 91.5742 303.542 89.5942 302.486C86.8002 300.924 86.0962 298.57 87.0642 296.678C88.0542 294.588 90.1882 293.488 92.6962 293.488C95.1822 293.488 97.2502 294.412 98.6802 295.952L96.1282 298.79C95.0502 297.866 93.4442 297.206 92.3882 297.206C91.7722 297.206 91.1782 297.558 91.1782 298.284C91.1782 298.988 92.0362 299.538 94.4122 300.704C97.4042 302.068 98.5262 303.432 98.7462 305.082C99.1422 307.436 97.8882 309.526 95.1382 310.296ZM100.364 310.208V293.884H104.214V298.68C104.764 298.218 105.842 297.866 106.898 297.778H107.184C110.132 297.778 111.694 299.912 111.694 302.816V310.208H107.844V304.246C107.844 301.98 107.162 301.386 106.04 301.496C105.292 301.562 104.698 301.848 104.214 302.354V310.208H100.364ZM122.051 310.208V309.152C121.325 309.9 120.181 310.362 118.905 310.362C115.693 310.362 113.097 308.382 113.207 304.092C113.339 299.758 116.067 297.734 119.059 297.866C120.335 297.932 121.391 298.504 122.051 299.208V298.108H125.857V310.208H122.051ZM119.367 306.996C120.665 306.996 121.655 306.38 121.919 305.038C121.941 304.95 121.963 304.532 121.963 304.444C121.963 302.376 120.863 301.232 119.455 301.232C118.267 301.166 117.013 302.112 117.013 304.092C117.013 306.006 118.025 306.996 119.367 306.996ZM134.558 297.998V301.628H134.206C133.304 301.628 132.358 301.87 131.566 302.442V310.208H127.65V298.108H131.566V298.988C132.38 298.372 133.106 298.108 134.162 297.998H134.558ZM135.313 304.224C135.313 300.176 137.777 297.668 141.341 297.668C144.993 297.668 147.105 300.352 147.105 304.268L147.017 305.478H139.075C139.163 306.6 140.241 307.216 141.495 307.216C142.639 307.216 143.431 306.754 144.135 305.896L146.621 308.052C145.323 309.834 143.563 310.648 141.341 310.648C137.799 310.648 135.247 308.184 135.313 304.224ZM143.387 302.53C143.233 301.518 142.353 301.034 141.363 301.034C140.263 301.034 139.427 301.584 139.295 302.53H143.387Z" fill="white"/>
</svg>
