<svg width="151" height="133" viewBox="0 0 151 133" fill="none" xmlns="http://www.w3.org/2000/svg">
<path d="M90.0047 56.9243C87.6789 55.6616 87.2406 50.3186 87.4749 47.3672C86.1629 51.2088 83.5391 58.9763 83.5391 59.3136C83.5391 59.7352 87.896 64.2327 89.442 64.3732C90.988 64.5138 100.405 63.9516 100.967 63.6705C101.416 63.4456 102.466 58.7982 102.934 56.5027L99.4207 49.897C97.3596 52.4737 94.9233 59.5947 90.0047 56.9243Z" fill="#FF6E46"/>
<ellipse cx="73.4237" cy="92.759" rx="38.2284" ry="39.3528" fill="#FF6E46"/>
<rect x="66.6797" width="20.8008" height="77.5812" rx="10.4004" fill="#FF6E46"/>
<rect x="21.1406" y="23.2656" width="20.8008" height="77.5812" rx="10.4004" transform="rotate(-23.7149 21.1406 23.2656)" fill="#FF6E46"/>
<rect y="66.7891" width="20.8008" height="77.5812" rx="10.4004" transform="rotate(-49.4013 0 66.7891)" fill="#FF6E46"/>
<rect x="117.555" y="18.2734" width="20.8008" height="77.5812" rx="10.4004" transform="rotate(30 117.555 18.2734)" fill="#FF6E46"/>
<rect x="144.707" y="64.6484" width="20.8008" height="77.5812" rx="10.4004" transform="rotate(75 144.707 64.6484)" fill="#FF6E46"/>
<path d="M62.0859 54.1808C57.8432 55.4858 54.0843 48.8917 52.8747 45.8764L49.2461 54.4774L55.666 58.1847L68.5058 55.6637L69.2036 39.3516H66.9706C67.0171 40.9333 67.1101 43.9783 67.1101 43.5038C67.1101 42.9106 67.3893 52.5496 62.0859 54.1808Z" fill="#FF6E46"/>
<path d="M112.085 69.2858L115.444 63.5234C112.164 65.4442 105.593 69.342 105.48 69.5669C105.368 69.7918 105.902 74.0644 106.183 76.1725L121.502 73.0805L122.049 70.8318C121.44 71.0661 119 71.7032 115.177 72.3778C111.354 73.0524 111.523 70.5976 112.085 69.2858Z" fill="#FF6E46"/>
<path d="M116.565 93.8881C113.192 94.7876 111.411 98.5261 110.943 100.353H108.694L106.727 93.0448L122.046 89.3906L123.03 92.061C122.28 92.2484 119.938 92.9886 116.565 93.8881Z" fill="#FF6E46"/>
<path d="M34.6277 97.2608C34.1779 95.2369 28.3031 90.702 25.4922 88.6875H40.39L44.1848 97.2608C41.936 100.119 37.3542 105.609 37.0169 104.71C36.5953 103.585 35.1898 99.7906 34.6277 97.2608Z" fill="#FF6E46"/>
</svg>
