<svg width="137" height="164" viewBox="0 0 137 164" fill="none" xmlns="http://www.w3.org/2000/svg">
<circle cx="77.4058" cy="110.806" r="40.0526" transform="rotate(-15 77.4058 110.806)" fill="black"/>
<rect x="77.3047" y="6.21094" width="25.4097" height="81.7852" rx="12.7049" transform="rotate(4.2582 77.3047 6.21094)" fill="black"/>
<rect x="3.28906" y="39.2031" width="25.4097" height="81.3999" rx="12.7049" transform="rotate(-37.3968 3.28906 39.2031)" fill="black"/>
<path d="M67.7584 71.4807C63.6104 73.3055 59.5323 71.0097 58.268 69.342L50.4456 70.1004L62.0877 85.2614C68.6558 83.4272 81.9888 79.6614 82.7762 79.2721C83.5636 78.8828 80.9121 70.9286 79.4879 67.0002L73.3066 59.7391C72.9404 62.8097 71.9064 69.6558 67.7584 71.4807Z" fill="black"/>
<path d="M40.4257 95.0806C41.9935 91.5035 40.295 87.3873 38.7485 85.498C42.2151 84.5692 49.1707 82.7946 49.2599 83.1274C49.3714 83.5434 51.322 90.8234 50.9618 91.1428C50.6735 91.3984 48.5142 93.6564 47.4706 94.7535C44.3098 96.2692 38.765 98.8696 40.4257 95.0806Z" fill="black"/>
<path d="M98.9237 76.2872C97.6904 75.0125 97.7069 71.1886 98.1252 69.1444L88.0928 78.2976C90.6622 80.9531 96.0199 86.2501 96.8965 86.1936C97.7731 86.137 101.502 82.5816 103.133 81.1787C102.156 80.0285 100.157 77.5619 98.9237 76.2872Z" fill="black"/>
</svg>
